if (_typeface_js && _typeface_js.loadFace) _typeface_js.loadFace({"glyphs":{"S":{"x_min":-625,"x_max":2068,"ha":1736,"o":"m 1447 905 l 1516 905 l 1516 836 l 1447 833 l 1447 905 m 1378 625 l 1447 625 l 1447 555 l 1378 555 l 1378 625 m 1240 486 l 1309 486 l 1309 417 l 1240 417 l 1240 486 m -278 1181 l -209 1181 l -209 1112 l -278 1112 l -278 1181 m 964 69 l 1033 69 l 1033 0 l 964 -2 l 964 69 m 895 0 l 972 0 l 964 -71 l 895 -71 l 895 0 m -2 69 l 67 69 l 67 0 l -2 -2 l -2 69 m 1102 279 l 1171 276 l 1171 207 l 1102 207 l 1102 279 m 1171 276 l 1240 279 l 1240 207 l 1171 207 l 1171 276 m 1033 138 l 1102 138 l 1102 69 l 1033 69 l 1033 138 m 964 0 l 1033 -2 l 1033 -71 l 972 -71 l 964 0 m 1033 69 l 1102 69 l 1102 0 l 1033 -2 l 1033 69 m 1102 138 l 1171 138 l 1171 69 l 1102 69 l 1102 138 m 1516 905 l 1585 905 l 1585 836 l 1516 833 l 1516 905 m 1240 348 l 1309 348 l 1309 276 l 1240 279 l 1240 348 m 1102 207 l 1171 207 l 1171 138 l 1102 138 l 1102 207 m 1171 207 l 1240 207 l 1240 138 l 1171 138 l 1171 207 m 1171 348 l 1240 348 l 1240 276 l 1171 279 l 1171 348 m 67 0 l 136 -2 l 136 -71 l 69 -71 l 67 0 m 1516 974 l 1585 974 l 1585 905 l 1516 905 l 1516 974 m 136 -71 l 205 -71 l 205 -140 l 138 -140 l 136 -71 m 205 -71 l 274 -71 l 274 -140 l 205 -140 l 205 -71 m 619 -71 l 688 -71 l 688 -140 l 619 -140 l 619 -71 m 688 -71 l 757 -71 l 757 -140 l 688 -140 l 688 -71 m 757 0 l 826 -2 l 826 -71 l 757 -71 l 757 0 m 826 0 l 895 -2 l 895 -71 l 833 -71 l 826 0 m 757 -71 l 826 -71 l 833 -140 l 757 -140 l 757 -71 m 826 -71 l 895 -71 l 895 -140 l 833 -140 l 826 -71 m 895 69 l 964 69 l 972 0 l 895 -2 l 895 69 m 964 138 l 1033 138 l 1033 69 l 972 69 l 964 138 m 1033 276 l 1102 279 l 1102 207 l 1033 207 l 1033 276 m 1033 207 l 1102 207 l 1102 138 l 1033 138 l 1033 207 m 1171 417 l 1240 417 l 1240 348 l 1171 348 l 1171 417 m 1240 417 l 1309 417 l 1309 348 l 1240 348 l 1240 417 m 1309 486 l 1378 486 l 1378 417 l 1309 417 l 1309 486 m 1309 625 l 1378 625 l 1378 555 l 1309 555 l 1309 625 m 1447 695 l 1516 694 l 1516 625 l 1447 625 l 1447 695 m 1447 764 l 1516 764 l 1516 695 l 1447 694 l 1447 764 m 1447 836 l 1516 833 l 1516 764 l 1447 764 l 1447 836 m 1378 764 l 1447 764 l 1447 695 l 1378 694 l 1378 764 m 1378 695 l 1447 694 l 1447 625 l 1378 625 l 1378 695 m 688 0 l 757 -2 l 757 -71 l 688 -71 l 688 0 m 826 69 l 895 69 l 895 0 l 833 -2 l 826 69 m 895 138 l 964 138 l 972 69 l 895 69 l 895 138 m 964 207 l 1033 207 l 1033 138 l 972 138 l 964 207 m 619 555 l 688 555 l 688 486 l 619 486 l 619 555 m 688 555 l 757 555 l 757 486 l 688 486 l 688 555 m 757 555 l 826 555 l 833 486 l 757 486 l 757 555 m -209 905 l -140 905 l -140 836 l -208 833 l -209 905 m 412 555 l 481 555 l 481 486 l 412 486 l 412 555 m 550 555 l 619 555 l 619 486 l 550 486 l 550 555 m 1102 625 l 1171 625 l 1171 555 l 1102 555 l 1102 625 m 1171 695 l 1240 694 l 1240 625 l 1171 625 l 1171 695 m 964 555 l 1033 555 l 1033 486 l 972 486 l 964 555 m 1033 625 l 1102 625 l 1102 555 l 1033 555 l 1033 625 m 895 555 l 964 555 l 972 486 l 895 486 l 895 555 m -278 1112 l -209 1112 l -208 1043 l -278 1043 l -278 1112 m 481 555 l 550 555 l 550 486 l 481 486 l 481 555 m 412 1805 l 481 1805 l 481 1736 l 412 1736 l 412 1805 m 619 1805 l 688 1805 l 688 1736 l 619 1736 l 619 1805 m 688 1805 l 757 1805 l 757 1736 l 688 1736 l 688 1805 m 757 1736 l 826 1736 l 833 1667 l 757 1667 l 757 1736 m 550 1805 l 619 1805 l 619 1736 l 550 1736 l 550 1805 m 895 1736 l 964 1736 l 972 1667 l 895 1667 l 895 1736 m -209 1459 l -140 1459 l -138 1390 l -208 1390 l -209 1459 m 274 1736 l 343 1736 l 343 1667 l 277 1667 l 274 1736 m 343 1805 l 412 1805 l 412 1736 l 343 1736 l 343 1805 m -140 1528 l -71 1529 l -71 1459 l -138 1459 l -140 1528 m 481 1805 l 550 1805 l 550 1736 l 481 1736 l 481 1805 m 964 1667 l 1033 1667 l 1033 1598 l 972 1598 l 964 1667 m 826 1736 l 895 1736 l 895 1667 l 833 1667 l 826 1736 m 826 555 l 895 555 l 895 486 l 833 486 l 826 555 m 274 625 l 343 625 l 343 555 l 277 555 l 274 625 m 343 625 l 412 625 l 412 555 l 343 555 l 343 625 m 205 764 l 274 764 l 277 695 l 205 694 l 205 764 m -71 1598 l -2 1598 l -2 1529 l -71 1528 l -71 1598 m 67 1667 l 136 1667 l 138 1598 l 69 1598 l 67 1667 m 205 1736 l 274 1736 l 277 1667 l 205 1667 l 205 1736 m 1516 1043 l 1585 1043 l 1585 974 l 1516 974 l 1516 1043 m 1861 1529 l 1930 1528 l 1930 1459 l 1861 1459 l 1861 1529 m 1930 1529 l 1999 1528 l 1999 1459 l 1930 1459 l 1930 1529 m 1999 1459 l 2068 1459 l 2068 1390 l 2014 1390 l 1999 1459 m 1654 1250 l 1723 1250 l 1723 1181 l 1654 1180 l 1654 1250 m 1585 1181 l 1654 1180 l 1654 1112 l 1585 1112 l 1585 1181 m 1585 1112 l 1654 1112 l 1654 1043 l 1585 1043 l 1585 1112 m 1033 1667 l 1102 1667 l 1102 1598 l 1033 1598 l 1033 1667 m 1102 1598 l 1171 1598 l 1171 1529 l 1102 1528 l 1102 1598 m 1240 625 l 1309 625 l 1309 555 l 1240 555 l 1240 625 m 1309 555 l 1378 555 l 1378 486 l 1309 486 l 1309 555 m 1378 555 l 1447 555 l 1447 486 l 1378 486 l 1378 555 m 1309 417 l 1378 417 l 1378 348 l 1309 348 l 1309 417 m 1240 276 l 1309 279 l 1309 207 l 1240 207 l 1240 276 m 1654 1319 l 1723 1321 l 1723 1250 l 1654 1250 l 1654 1319 m 1723 1390 l 1792 1390 l 1792 1321 l 1723 1319 l 1723 1390 m 1792 1459 l 1861 1459 l 1861 1390 l 1792 1390 l 1792 1459 m 1999 1321 l 2068 1319 l 2068 1250 l 2014 1250 l 1999 1321 m 1930 1250 l 1999 1250 l 2014 1181 l 1930 1180 l 1930 1250 m 1930 1181 l 1999 1180 l 2014 1112 l 1930 1112 l 1930 1181 m 1861 1112 l 1930 1112 l 1930 1043 l 1861 1043 l 1861 1112 m 1792 1043 l 1861 1043 l 1861 974 l 1805 974 l 1792 1043 m 1723 974 l 1792 974 l 1805 905 l 1723 905 l 1723 974 m 1654 905 l 1723 905 l 1723 836 l 1654 833 l 1654 905 m 1585 836 l 1654 833 l 1654 764 l 1585 764 l 1585 836 m -209 1390 l -138 1390 l -140 1321 l -209 1319 l -209 1390 m -278 1321 l -209 1319 l -208 1250 l -278 1250 l -278 1321 m -278 1250 l -209 1250 l -208 1181 l -278 1180 l -278 1250 m -2 1667 l 67 1667 l 69 1598 l -2 1598 l -2 1667 m 1240 695 l 1309 694 l 1309 625 l 1240 625 l 1240 695 m 1309 764 l 1378 764 l 1378 695 l 1309 694 l 1309 764 m -71 276 l -2 279 l -2 207 l -71 207 l -71 276 m -71 207 l -2 207 l -2 138 l -71 138 l -71 207 m -2 138 l 67 138 l 69 69 l -2 69 l -2 138 m 412 -140 l 481 -140 l 481 -209 l 412 -209 l 412 -140 m 481 -140 l 550 -140 l 550 -209 l 481 -209 l 481 -140 m 550 -140 l 619 -140 l 619 -209 l 550 -209 l 550 -140 m 619 -140 l 688 -140 l 688 -209 l 619 -209 l 619 -140 m 343 -140 l 412 -140 l 412 -209 l 343 -209 l 343 -140 m 274 -140 l 343 -140 l 343 -209 l 277 -209 l 274 -140 m 550 -71 l 619 -71 l 619 -140 l 550 -140 l 550 -71 m -2 486 l 67 486 l 69 417 l -2 417 l -2 486 m -2 555 l 67 555 l 69 486 l -2 486 l -2 555 m 67 625 l 136 625 l 138 555 l 69 555 l 67 625 m -71 348 l -2 348 l -2 276 l -71 279 l -71 348 m 1999 1390 l 2068 1390 l 2068 1321 l 2014 1319 l 1999 1390 m 1516 836 l 1585 833 l 1585 764 l 1516 764 l 1516 836 m 412 836 l 481 833 l 481 764 l 412 764 l 412 836 m 481 836 l 550 833 l 550 764 l 481 764 l 481 836 m 550 836 l 619 833 l 619 764 l 550 764 l 550 836 m -71 417 l -2 417 l -2 348 l -71 348 l -71 417 m 343 836 l 412 833 l 412 764 l 343 764 l 343 836 m 619 836 l 688 833 l 688 764 l 619 764 l 619 836 m 688 836 l 757 833 l 757 764 l 688 764 l 688 836 m 757 836 l 826 833 l 833 764 l 757 764 l 757 836 m 895 764 l 964 764 l 972 695 l 895 694 l 895 764 m 1102 348 l 1171 348 l 1171 276 l 1102 276 l 1102 348 m 826 -487 l 895 -487 l 895 -556 l 833 -556 l 826 -487 m 895 -487 l 964 -487 l 972 -556 l 895 -556 l 895 -487 m 688 -556 l 757 -556 l 757 -625 l 688 -625 l 688 -556 m 757 -556 l 826 -556 l 833 -625 l 757 -625 l 757 -556 m 619 -556 l 688 -556 l 688 -625 l 619 -625 l 619 -556 m -347 -487 l -278 -487 l -278 -556 l -347 -556 l -347 -487 m -486 -418 l -416 -418 l -416 -487 l -486 -487 l -486 -418 m -416 -487 l -347 -487 l -347 -556 l -416 -556 l -416 -487 m -625 -278 l -556 -280 l -556 -349 l -625 -349 l -625 -278 m -556 -349 l -486 -349 l -486 -418 l -556 -418 l -556 -349 m -625 -209 l -556 -209 l -556 -280 l -625 -280 l -625 -209 m -71 -556 l -2 -556 l -2 -625 l -71 -625 l -71 -556 m 1240 -140 l 1309 -140 l 1309 -209 l 1240 -209 l 1240 -140 m -140 -556 l -71 -556 l -71 -625 l -138 -625 l -140 -556 m -278 -487 l -209 -487 l -208 -556 l -278 -556 l -278 -487 m -209 -556 l -140 -556 l -138 -625 l -208 -625 l -209 -556 m 136 -625 l 205 -625 l 205 -694 l 138 -694 l 136 -625 m 205 -625 l 274 -625 l 277 -694 l 205 -694 l 205 -625 m -2 -625 l 67 -625 l 69 -694 l -2 -694 l -2 -625 m 67 -625 l 136 -625 l 138 -694 l 69 -694 l 67 -625 m 343 -625 l 412 -625 l 412 -694 l 343 -694 l 343 -625 m 412 -625 l 481 -625 l 481 -694 l 412 -694 l 412 -625 m 274 -625 l 343 -625 l 343 -694 l 277 -694 l 274 -625 m 1309 -71 l 1378 -71 l 1378 -140 l 1309 -140 l 1309 -71 m 1378 207 l 1447 207 l 1447 138 l 1378 138 l 1378 207 m 826 836 l 895 833 l 895 764 l 833 764 l 826 836 m 1240 -209 l 1309 -209 l 1309 -280 l 1240 -278 l 1240 -209 m 1033 764 l 1102 764 l 1102 695 l 1033 694 l 1033 764 m 964 764 l 1033 764 l 1033 695 l 972 694 l 964 764 m 1378 138 l 1447 138 l 1447 69 l 1378 69 l 1378 138 m 1033 -418 l 1102 -418 l 1102 -487 l 1033 -487 l 1033 -418 m 964 -418 l 1033 -418 l 1033 -487 l 972 -487 l 964 -418 m 1102 -349 l 1171 -349 l 1171 -418 l 1102 -418 l 1102 -349 m 688 -140 l 757 -140 l 757 -209 l 688 -209 l 688 -140 m 1378 276 l 1447 279 l 1447 207 l 1378 207 l 1378 276 m 136 695 l 205 694 l 205 625 l 138 625 l 136 695 m 274 764 l 343 764 l 343 695 l 277 694 l 274 764 m -140 836 l -71 833 l -71 764 l -138 764 l -140 836 m -71 764 l -2 764 l -2 695 l -71 694 l -71 764 m 67 695 l 136 694 l 138 625 l 69 625 l 67 695 m -2 695 l 67 694 l 69 625 l -2 625 l -2 695 m 205 625 l 274 625 l 277 555 l 205 555 l 205 625 m 136 1736 l 205 1736 l 205 1667 l 138 1667 l 136 1736 m -278 1043 l -209 1043 l -208 974 l -278 974 l -278 1043 m -209 974 l -140 974 l -138 905 l -208 905 l -209 974 m 1102 695 l 1171 694 l 1171 625 l 1102 625 l 1102 695 m 481 -625 l 550 -625 l 550 -694 l 481 -694 l 481 -625 m 1378 69 l 1447 69 l 1447 0 l 1378 -2 l 1378 69 m 550 -625 l 619 -625 l 619 -694 l 550 -694 l 550 -625 m 1309 0 l 1378 -2 l 1378 -71 l 1309 -71 l 1309 0 m 1378 486 l 1447 486 l 1447 417 l 1378 417 l 1378 486 m 1378 348 l 1447 348 l 1447 276 l 1378 279 l 1378 348 m 1171 -280 l 1240 -278 l 1240 -349 l 1171 -349 l 1171 -280 "},"¦":{"x_min":-208.34375,"x_max":1794,"ha":1597,"o":"m 1104 903 l 1173 903 l 1173 834 l 1104 833 l 1104 903 m 1035 625 l 1104 624 l 1104 555 l 1035 555 l 1035 625 m 966 555 l 1041 555 l 1035 486 l 966 486 l 966 555 m 1035 555 l 1104 555 l 1104 486 l 1041 486 l 1035 555 m 897 486 l 972 486 l 966 417 l 897 417 l 897 486 m 966 486 l 1035 486 l 1041 417 l 972 417 l 966 486 m 621 0 l 690 0 l 690 -69 l 621 -71 l 621 0 m 552 -71 l 625 -69 l 621 -140 l 552 -140 l 552 -71 m -208 0 l -138 0 l -138 -71 l -208 -69 l -208 0 m 759 209 l 828 207 l 828 138 l 759 138 l 759 209 m 828 207 l 897 209 l 897 138 l 828 138 l 828 207 m 690 69 l 759 69 l 759 0 l 690 0 l 690 69 m 621 -71 l 690 -69 l 690 -140 l 625 -140 l 621 -71 m 690 0 l 759 0 l 759 -71 l 690 -69 l 690 0 m 759 69 l 828 69 l 828 0 l 759 0 l 759 69 m 1173 903 l 1242 903 l 1242 834 l 1173 833 l 1173 903 m 897 278 l 966 278 l 972 207 l 897 209 l 897 278 m 759 138 l 828 138 l 828 69 l 759 69 l 759 138 m 828 138 l 897 138 l 897 69 l 828 69 l 828 138 m 759 278 l 828 278 l 828 207 l 759 207 l 759 278 m 828 278 l 897 278 l 897 207 l 828 209 l 828 278 m -138 -71 l -69 -69 l -69 -140 l -138 -140 l -138 -71 m 1173 972 l 1242 973 l 1242 903 l 1173 903 l 1173 972 m -69 -140 l 0 -140 l 0 -209 l -69 -209 l -69 -140 m 0 -140 l 69 -140 l 69 -209 l 0 -209 l 0 -140 m 138 -140 l 207 -140 l 207 -209 l 138 -209 l 138 -140 m 207 -140 l 276 -140 l 276 -209 l 207 -209 l 207 -140 m 276 -140 l 345 -140 l 345 -209 l 276 -209 l 276 -140 m 345 -140 l 414 -140 l 414 -209 l 345 -209 l 345 -140 m 414 -71 l 483 -69 l 483 -140 l 414 -140 l 414 -71 m 483 -71 l 552 -69 l 552 -140 l 486 -140 l 483 -71 m 414 -140 l 483 -140 l 486 -209 l 414 -209 l 414 -140 m 552 0 l 621 0 l 625 -71 l 552 -69 l 552 0 m 621 69 l 690 69 l 690 0 l 625 0 l 621 69 m 690 207 l 759 209 l 759 138 l 690 138 l 690 207 m 690 138 l 759 138 l 759 69 l 690 69 l 690 138 m 1035 486 l 1104 486 l 1104 417 l 1041 417 l 1035 486 m 966 624 l 1035 625 l 1041 555 l 972 555 l 966 624 m 1104 695 l 1173 694 l 1173 624 l 1104 625 l 1104 695 m 1104 764 l 1173 764 l 1173 695 l 1104 694 l 1104 764 m 1104 834 l 1173 833 l 1173 764 l 1104 764 l 1104 834 m 1035 764 l 1104 764 l 1104 695 l 1041 694 l 1035 764 m 1035 695 l 1104 694 l 1104 624 l 1041 625 l 1035 695 m 276 -71 l 345 -69 l 345 -140 l 276 -140 l 276 -71 m 345 -71 l 414 -69 l 414 -140 l 345 -140 l 345 -71 m 414 0 l 483 0 l 486 -71 l 414 -69 l 414 0 m 483 0 l 552 0 l 552 -71 l 486 -69 l 483 0 m 552 69 l 621 69 l 625 0 l 552 0 l 552 69 m 621 138 l 690 138 l 690 69 l 625 69 l 621 138 m 138 1181 l 207 1181 l 207 1112 l 138 1112 l 138 1181 m 1173 1667 l 1242 1667 l 1242 1598 l 1173 1598 l 1173 1667 m 1242 1667 l 1311 1667 l 1311 1598 l 1242 1598 l 1242 1667 m 1311 1667 l 1380 1667 l 1380 1598 l 1311 1598 l 1311 1667 m 345 1390 l 414 1390 l 414 1321 l 345 1319 l 345 1390 m 276 1321 l 345 1321 l 345 1250 l 276 1250 l 276 1321 m 207 1250 l 276 1250 l 276 1181 l 207 1181 l 207 1250 m 1242 1042 l 1311 1043 l 1311 973 l 1242 972 l 1242 1042 m 1380 1112 l 1449 1112 l 1458 1043 l 1389 1042 l 1380 1112 m 1311 1112 l 1380 1112 l 1389 1043 l 1311 1042 l 1311 1112 m 897 417 l 966 417 l 972 348 l 897 348 l 897 417 m 966 417 l 1035 417 l 1041 348 l 972 348 l 966 417 m 828 417 l 897 417 l 897 348 l 828 348 l 828 417 m 897 348 l 966 348 l 972 278 l 897 278 l 897 348 m 966 348 l 1035 348 l 1041 278 l 972 278 l 966 348 m 828 348 l 897 348 l 897 278 l 828 278 l 828 348 m 1518 1529 l 1587 1528 l 1587 1459 l 1518 1459 l 1518 1529 m 1656 1459 l 1725 1459 l 1736 1390 l 1656 1390 l 1656 1459 m 1656 1390 l 1725 1390 l 1725 1321 l 1656 1319 l 1656 1390 m 1587 1529 l 1656 1528 l 1656 1459 l 1587 1459 l 1587 1529 m 1380 1598 l 1449 1598 l 1449 1529 l 1389 1528 l 1380 1598 m 1449 1598 l 1518 1598 l 1527 1528 l 1458 1529 l 1449 1598 m 759 1598 l 828 1598 l 828 1529 l 759 1528 l 759 1598 m 828 1667 l 897 1667 l 897 1598 l 828 1598 l 828 1667 m 0 973 l 69 972 l 69 903 l 0 903 l 0 973 m 69 1112 l 138 1112 l 138 1043 l 69 1042 l 69 1112 m 69 1043 l 138 1042 l 138 973 l 69 972 l 69 1043 m 0 903 l 69 903 l 69 834 l 0 833 l 0 903 m -69 486 l 0 486 l 0 417 l -69 417 l -69 486 m -69 278 l 0 278 l 0 207 l -69 209 l -69 278 m 1035 1667 l 1104 1667 l 1104 1598 l 1041 1598 l 1035 1667 m 1104 1667 l 1173 1667 l 1173 1598 l 1104 1598 l 1104 1667 m 690 1598 l 759 1598 l 759 1529 l 690 1528 l 690 1598 m -69 417 l 0 417 l 0 348 l -69 348 l -69 417 m 1173 -417 l 1242 -417 l 1242 -486 l 1173 -486 l 1173 -417 m 1242 -417 l 1311 -416 l 1311 -486 l 1242 -486 l 1242 -417 m -69 624 l 0 625 l 0 555 l -69 555 l -69 624 m -69 555 l 0 555 l 0 486 l -69 486 l -69 555 m 621 1598 l 690 1598 l 690 1529 l 625 1528 l 621 1598 m 552 1529 l 621 1528 l 625 1459 l 552 1459 l 552 1529 m 414 1459 l 483 1459 l 486 1390 l 414 1390 l 414 1459 m -69 695 l 0 694 l 0 624 l -69 625 l -69 695 m 1035 -417 l 1104 -416 l 1104 -486 l 1041 -486 l 1035 -417 m 1104 -417 l 1173 -416 l 1173 -486 l 1104 -486 l 1104 -417 m 69 69 l 138 69 l 138 0 l 69 0 l 69 69 m 483 -140 l 552 -140 l 552 -209 l 486 -209 l 483 -140 m 0 207 l 69 209 l 69 138 l 0 138 l 0 207 m 0 138 l 69 138 l 69 69 l 0 69 l 0 138 m 1725 1321 l 1794 1319 l 1794 1250 l 1736 1250 l 1725 1321 m 1725 1043 l 1794 1042 l 1794 973 l 1736 972 l 1725 1043 m 897 624 l 966 625 l 972 555 l 897 555 l 897 624 m 1311 695 l 1380 694 l 1389 624 l 1311 625 l 1311 695 m 1380 695 l 1449 694 l 1458 624 l 1389 625 l 1380 695 m 1449 764 l 1518 764 l 1527 695 l 1458 694 l 1449 764 m 1518 764 l 1587 764 l 1587 695 l 1527 694 l 1518 764 m 1587 834 l 1656 833 l 1656 764 l 1587 764 l 1587 834 m 1656 973 l 1725 972 l 1736 903 l 1656 903 l 1656 973 m 1725 1250 l 1794 1250 l 1794 1181 l 1736 1181 l 1725 1250 m 1104 624 l 1173 625 l 1173 555 l 1104 555 l 1104 624 m 828 624 l 897 625 l 897 555 l 828 555 l 828 624 m 1656 903 l 1725 903 l 1736 834 l 1656 833 l 1656 903 m 1449 -347 l 1518 -347 l 1527 -417 l 1458 -416 l 1449 -347 m 1380 -347 l 1449 -347 l 1458 -417 l 1389 -416 l 1380 -347 m 483 1529 l 552 1528 l 552 1459 l 486 1459 l 483 1529 m 1587 -278 l 1656 -278 l 1656 -347 l 1587 -347 l 1587 -278 m 1518 -278 l 1587 -278 l 1587 -347 l 1527 -347 l 1518 -278 m 966 -417 l 1035 -416 l 1041 -486 l 972 -486 l 966 -417 m 207 -71 l 276 -69 l 276 -140 l 207 -140 l 207 -71 m 897 -417 l 966 -416 l 972 -486 l 897 -486 l 897 -417 m 828 -417 l 897 -416 l 897 -486 l 828 -486 l 828 -417 m 69 -140 l 138 -140 l 138 -209 l 69 -209 l 69 -140 m 966 1667 l 1035 1667 l 1041 1598 l 972 1598 l 966 1667 m 897 1667 l 966 1667 l 972 1598 l 897 1598 l 897 1667 m 69 0 l 138 0 l 138 -71 l 69 -69 l 69 0 m 1656 -209 l 1725 -209 l 1736 -278 l 1656 -278 l 1656 -209 m 1242 624 l 1311 625 l 1311 555 l 1242 555 l 1242 624 m 1173 624 l 1242 625 l 1242 555 l 1173 555 l 1173 624 m -69 348 l 0 348 l 0 278 l -69 278 l -69 348 m 1311 -347 l 1380 -347 l 1389 -417 l 1311 -417 l 1311 -347 m 759 -417 l 828 -416 l 828 -486 l 759 -486 l 759 -417 m 690 -347 l 759 -347 l 759 -417 l 690 -416 l 690 -347 m 621 -347 l 690 -347 l 690 -417 l 625 -416 l 621 -347 m 552 -347 l 621 -347 l 625 -417 l 552 -416 l 552 -347 m 483 -278 l 552 -278 l 552 -347 l 486 -347 l 483 -278 m 414 -278 l 483 -278 l 486 -347 l 414 -347 l 414 -278 m 138 -71 l 207 -69 l 207 -140 l 138 -140 l 138 -71 m 345 -278 l 414 -278 l 414 -347 l 345 -347 l 345 -278 m 276 -209 l 345 -209 l 345 -278 l 276 -278 l 276 -209 m 0 764 l 69 764 l 69 695 l 0 694 l 0 764 m 1725 1112 l 1794 1112 l 1794 1043 l 1736 1042 l 1725 1112 m 0 834 l 69 833 l 69 764 l 0 764 l 0 834 m 1725 1181 l 1794 1181 l 1794 1112 l 1736 1112 l 1725 1181 "},"/":{"x_min":-208,"x_max":1666.796875,"ha":1458,"o":"m 965 1251 l 1034 1251 l 1034 1182 l 965 1180 l 965 1251 m 1172 417 l 1241 417 l 1250 348 l 1172 348 l 1172 417 m 137 0 l 206 -1 l 208 -70 l 137 -70 l 137 0 m 1034 278 l 1103 278 l 1103 209 l 1034 207 l 1034 278 m 137 -70 l 206 -70 l 206 -139 l 137 -139 l 137 -70 m 1310 766 l 1379 764 l 1379 695 l 1310 695 l 1310 766 m 482 -139 l 551 -139 l 551 -208 l 482 -208 l 482 -139 m 965 207 l 1034 209 l 1034 138 l 972 138 l 965 207 m 1103 348 l 1172 348 l 1172 278 l 1103 278 l 1103 348 m 1241 557 l 1310 555 l 1310 486 l 1241 486 l 1241 557 m 1310 695 l 1379 695 l 1379 626 l 1310 626 l 1310 695 m 1241 626 l 1310 626 l 1310 557 l 1250 555 l 1241 626 m 551 -70 l 620 -70 l 620 -139 l 551 -139 l 551 -70 m 620 -70 l 689 -70 l 689 -139 l 625 -139 l 620 -70 m 689 0 l 758 -1 l 758 -70 l 689 -70 l 689 0 m 758 0 l 827 -1 l 827 -70 l 763 -70 l 758 0 m 137 138 l 206 138 l 208 69 l 137 69 l 137 138 m 1172 486 l 1241 486 l 1250 417 l 1172 417 l 1172 486 m 827 1182 l 896 1180 l 896 1111 l 827 1111 l 827 1182 m 137 207 l 206 209 l 208 138 l 137 138 l 137 207 m 206 417 l 275 417 l 277 348 l 208 348 l 206 417 m 1103 -487 l 1172 -487 l 1172 -556 l 1103 -556 l 1103 -487 m 1034 -487 l 1103 -487 l 1103 -556 l 1034 -556 l 1034 -487 m 551 -487 l 620 -487 l 625 -556 l 551 -556 l 551 -487 m 965 -556 l 1034 -556 l 1034 -625 l 972 -625 l 965 -556 m 620 -556 l 689 -556 l 689 -625 l 625 -625 l 620 -556 m 1310 1182 l 1379 1180 l 1379 1111 l 1310 1111 l 1310 1182 m 551 973 l 620 973 l 625 904 l 551 904 l 551 973 m 1172 1320 l 1241 1320 l 1250 1251 l 1172 1251 l 1172 1320 m 344 695 l 413 695 l 416 626 l 344 626 l 344 695 m 413 835 l 482 835 l 482 766 l 413 764 l 413 835 m 482 904 l 551 904 l 551 835 l 482 835 l 482 904 m 620 1042 l 689 1042 l 689 973 l 625 973 l 620 1042 m 689 1111 l 758 1111 l 763 1042 l 689 1042 l 689 1111 m 758 1182 l 827 1180 l 827 1111 l 763 1111 l 758 1182 m 275 626 l 344 626 l 344 557 l 277 555 l 275 626 m 344 766 l 413 764 l 416 695 l 344 695 l 344 766 m 896 1251 l 965 1251 l 972 1182 l 896 1180 l 896 1251 m 1034 1320 l 1103 1320 l 1103 1251 l 1034 1251 l 1034 1320 m 482 -487 l 551 -487 l 551 -556 l 482 -556 l 482 -487 m 344 -418 l 413 -418 l 416 -487 l 344 -487 l 344 -418 m 413 -487 l 482 -487 l 482 -556 l 416 -556 l 413 -487 m 275 -347 l 344 -349 l 344 -418 l 277 -418 l 275 -347 m 137 69 l 206 69 l 208 0 l 137 -1 l 137 69 m 1379 904 l 1448 904 l 1448 835 l 1379 835 l 1379 904 m 1379 973 l 1448 973 l 1458 904 l 1379 904 l 1379 973 m 1310 -418 l 1379 -418 l 1379 -487 l 1310 -487 l 1310 -418 m 1241 -418 l 1310 -418 l 1310 -487 l 1250 -487 l 1241 -418 m 1172 -487 l 1241 -487 l 1250 -556 l 1172 -556 l 1172 -487 m 1379 -349 l 1448 -347 l 1458 -418 l 1379 -418 l 1379 -349 m 896 138 l 965 138 l 972 69 l 896 69 l 896 138 m 275 557 l 344 555 l 344 486 l 275 486 l 275 557 m 827 69 l 896 69 l 896 0 l 827 -1 l 827 69 m 206 486 l 275 486 l 277 417 l 208 417 l 206 486 m 689 1528 l 758 1528 l 763 1459 l 689 1458 l 689 1528 m 206 1182 l 275 1180 l 277 1111 l 208 1111 l 206 1182 m 620 1459 l 689 1459 l 689 1389 l 625 1389 l 620 1459 m 551 1459 l 620 1458 l 625 1389 l 551 1389 l 551 1459 m 827 1597 l 896 1597 l 896 1528 l 827 1528 l 827 1597 m -208 417 l -139 417 l -139 348 l -208 348 l -208 417 m 896 1597 l 965 1597 l 972 1528 l 896 1528 l 896 1597 m 275 1251 l 344 1251 l 344 1182 l 277 1180 l 275 1251 m 482 1389 l 551 1389 l 551 1320 l 482 1320 l 482 1389 m 413 1389 l 482 1389 l 482 1320 l 416 1320 l 413 1389 m 137 1111 l 206 1111 l 208 1042 l 137 1042 l 137 1111 m -208 486 l -139 486 l -139 417 l -208 417 l -208 486 m -70 766 l -1 764 l -1 695 l -70 695 l -70 766 m -1 904 l 68 904 l 68 835 l -1 835 l -1 904 m 68 1042 l 137 1042 l 137 973 l 68 973 l 68 1042 m 758 1528 l 827 1528 l 827 1459 l 763 1458 l 758 1528 m -208 557 l -139 555 l -139 486 l -208 486 l -208 557 m -70 835 l -1 835 l -1 766 l -70 764 l -70 835 m -1 973 l 68 973 l 68 904 l -1 904 l -1 973 m -139 626 l -70 626 l -70 557 l -139 555 l -139 626 m -139 695 l -70 695 l -70 626 l -139 626 l -139 695 m 965 1597 l 1034 1597 l 1034 1528 l 972 1528 l 965 1597 m 1034 1597 l 1103 1597 l 1103 1528 l 1034 1528 l 1034 1597 m 344 1320 l 413 1320 l 416 1251 l 344 1251 l 344 1320 m 413 -139 l 482 -139 l 482 -208 l 416 -208 l 413 -139 m 206 -139 l 275 -139 l 277 -208 l 208 -208 l 206 -139 m -70 0 l -1 -1 l -1 -70 l -70 -70 l -70 0 m -139 69 l -70 69 l -70 0 l -139 -1 l -139 69 m -208 278 l -139 278 l -139 207 l -208 209 l -208 278 m -208 348 l -139 348 l -139 278 l -208 278 l -208 348 m -139 138 l -70 138 l -70 69 l -139 69 l -139 138 m 137 -139 l 206 -139 l 208 -208 l 137 -208 l 137 -139 m 1379 1042 l 1448 1042 l 1458 973 l 1379 973 l 1379 1042 m 1379 1111 l 1448 1111 l 1458 1042 l 1379 1042 l 1379 1111 m 1241 1320 l 1310 1320 l 1310 1251 l 1250 1251 l 1241 1320 m 275 -139 l 344 -139 l 344 -208 l 277 -208 l 275 -139 m 344 -139 l 413 -139 l 416 -208 l 344 -208 l 344 -139 m 206 -278 l 275 -278 l 277 -349 l 208 -347 l 206 -278 m 689 -556 l 758 -556 l 763 -625 l 689 -625 l 689 -556 m 758 -556 l 827 -556 l 827 -625 l 763 -625 l 758 -556 m 827 -556 l 896 -556 l 896 -625 l 827 -625 l 827 -556 m 896 -556 l 965 -556 l 972 -625 l 896 -625 l 896 -556 m 1448 -278 l 1517 -278 l 1517 -349 l 1458 -347 l 1448 -278 m 1103 1320 l 1172 1320 l 1172 1251 l 1103 1251 l 1103 1320 m 206 348 l 275 348 l 277 278 l 208 278 l 206 348 m -208 207 l -139 209 l -139 138 l -208 138 l -208 207 m 689 1459 l 758 1458 l 763 1389 l 689 1389 l 689 1459 m 206 1111 l 275 1111 l 277 1042 l 208 1042 l 206 1111 m 620 1389 l 689 1389 l 689 1320 l 625 1320 l 620 1389 m 551 1389 l 620 1389 l 625 1320 l 551 1320 l 551 1389 m 827 1528 l 896 1528 l 896 1459 l 827 1458 l 827 1528 m 896 1528 l 965 1528 l 972 1459 l 896 1458 l 896 1528 m 275 1182 l 344 1180 l 344 1111 l 277 1111 l 275 1182 m 482 1320 l 551 1320 l 551 1251 l 482 1251 l 482 1320 m 413 1320 l 482 1320 l 482 1251 l 416 1251 l 413 1320 m 137 1042 l 206 1042 l 208 973 l 137 973 l 137 1042 m -70 695 l -1 695 l -1 626 l -70 626 l -70 695 m -1 835 l 68 835 l 68 766 l -1 764 l -1 835 m 68 973 l 137 973 l 137 904 l 68 904 l 68 973 m 758 1459 l 827 1458 l 827 1389 l 763 1389 l 758 1459 m -139 557 l -70 555 l -70 486 l -139 486 l -139 557 m 1103 1597 l 1172 1597 l 1172 1528 l 1103 1528 l 1103 1597 m 344 1251 l 413 1251 l 416 1182 l 344 1180 l 344 1251 m 1172 1528 l 1241 1528 l 1250 1459 l 1172 1458 l 1172 1528 m 1241 1528 l 1310 1528 l 1310 1459 l 1250 1458 l 1241 1528 m 1310 1251 l 1379 1251 l 1379 1182 l 1310 1180 l 1310 1251 m 137 278 l 206 278 l 208 207 l 137 209 l 137 278 m -139 417 l -70 417 l -70 348 l -139 348 l -139 417 m -139 486 l -70 486 l -70 417 l -139 417 l -139 486 m -139 278 l -70 278 l -70 207 l -139 209 l -139 278 m -139 348 l -70 348 l -70 278 l -139 278 l -139 348 m -139 207 l -70 209 l -70 138 l -139 138 l -139 207 m -70 557 l -1 555 l -1 486 l -70 486 l -70 557 m -70 626 l -1 626 l -1 557 l -70 555 l -70 626 m -70 486 l -1 486 l -1 417 l -70 417 l -70 486 m -1 695 l 68 695 l 68 626 l -1 626 l -1 695 m -1 766 l 68 764 l 68 695 l -1 695 l -1 766 m 68 904 l 137 904 l 137 835 l 68 835 l 68 904 m 68 835 l 137 835 l 137 766 l 68 764 l 68 835 m 137 973 l 206 973 l 208 904 l 137 904 l 137 973 m 206 1042 l 275 1042 l 277 973 l 208 973 l 206 1042 m 275 1111 l 344 1111 l 344 1042 l 277 1042 l 275 1111 m 344 1182 l 413 1180 l 416 1111 l 344 1111 l 344 1182 m 413 1251 l 482 1251 l 482 1182 l 416 1180 l 413 1251 m 620 1528 l 689 1528 l 689 1459 l 625 1458 l 620 1528 m 482 1459 l 551 1458 l 551 1389 l 482 1389 l 482 1459 m 344 1389 l 413 1389 l 416 1320 l 344 1320 l 344 1389 m 275 1320 l 344 1320 l 344 1251 l 277 1251 l 275 1320 m 206 1251 l 275 1251 l 277 1182 l 208 1180 l 206 1251 m 137 1182 l 206 1180 l 208 1111 l 137 1111 l 137 1182 m 68 1111 l 137 1111 l 137 1042 l 68 1042 l 68 1111 m -1 1042 l 68 1042 l 68 973 l -1 973 l -1 1042 m -70 904 l -1 904 l -1 835 l -70 835 l -70 904 m -139 766 l -70 764 l -70 695 l -139 695 l -139 766 m 206 -208 l 275 -208 l 277 -278 l 208 -278 l 206 -208 m 68 -139 l 137 -139 l 137 -208 l 68 -208 l 68 -139 m -1 -70 l 68 -70 l 68 -139 l -1 -139 l -1 -70 m 1597 695 l 1666 695 l 1666 626 l 1597 626 l 1597 695 m 758 766 l 827 764 l 827 695 l 763 695 l 758 766 m 827 835 l 896 835 l 896 766 l 827 764 l 827 835 m 896 835 l 965 835 l 972 766 l 896 764 l 896 835 m 1379 835 l 1458 835 l 1448 766 l 1379 764 l 1379 835 m 1241 904 l 1310 904 l 1310 835 l 1250 835 l 1241 904 m 1517 766 l 1586 764 l 1586 695 l 1517 695 l 1517 766 m 1172 904 l 1241 904 l 1250 835 l 1172 835 l 1172 904 m 1034 904 l 1103 904 l 1103 835 l 1034 835 l 1034 904 m 1103 904 l 1172 904 l 1172 835 l 1103 835 l 1103 904 m 1448 835 l 1517 835 l 1517 766 l 1458 764 l 1448 835 m 965 904 l 1034 904 l 1034 835 l 972 835 l 965 904 m 1310 835 l 1379 835 l 1379 766 l 1310 764 l 1310 835 "},"y":{"x_min":-69,"x_max":694.5,"ha":695,"o":"m 138 279 l 207 278 l 207 209 l 138 209 l 138 279 m 207 348 l 276 348 l 276 279 l 207 278 l 207 348 m 138 417 l 207 417 l 207 348 l 138 348 l 138 417 m 69 140 l 138 138 l 138 69 l 69 69 l 69 140 m 276 140 l 345 138 l 345 69 l 276 69 l 276 140 m 138 69 l 207 69 l 207 0 l 138 -1 l 138 69 m 207 69 l 276 69 l 276 0 l 207 -1 l 207 69 m 414 279 l 483 278 l 483 209 l 414 209 l 414 279 m 414 348 l 483 348 l 483 279 l 414 278 l 414 348 m 483 417 l 552 417 l 552 348 l 483 348 l 483 417 m 345 209 l 414 209 l 414 140 l 345 138 l 345 209 m 345 140 l 414 138 l 414 69 l 345 69 l 345 140 m 0 279 l 69 278 l 69 209 l 0 209 l 0 279 m 69 209 l 138 209 l 138 140 l 69 138 l 69 209 m 69 348 l 138 348 l 138 279 l 69 278 l 69 348 m 207 417 l 276 417 l 276 348 l 207 348 l 207 417 m 552 140 l 621 138 l 621 69 l 552 69 l 552 140 m 625 209 l 694 209 l 694 140 l 625 138 l 625 209 m 414 0 l 483 -1 l 483 -70 l 414 -70 l 414 0 m 276 -70 l 345 -70 l 345 -139 l 276 -139 l 276 -70 m 138 -278 l 207 -278 l 207 -347 l 138 -347 l 138 -278 m -69 -209 l 0 -208 l 0 -278 l -69 -278 l -69 -209 m 138 -70 l 207 -70 l 207 -139 l 138 -139 l 138 -70 m 69 -347 l 138 -347 l 138 -416 l 69 -416 l 69 -347 m -69 -278 l 0 -278 l 0 -347 l -69 -347 l -69 -278 m 69 -139 l 138 -139 l 138 -209 l 69 -209 l 69 -139 m 207 -70 l 276 -70 l 276 -139 l 207 -139 l 207 -70 m 0 -347 l 69 -347 l 69 -416 l 0 -416 l 0 -347 m 0 -139 l 69 -139 l 69 -209 l 0 -209 l 0 -139 m 345 -70 l 414 -70 l 414 -139 l 345 -139 l 345 -70 m 483 69 l 552 69 l 552 0 l 483 -1 l 483 69 m 207 -209 l 276 -208 l 276 -278 l 207 -278 l 207 -209 m 207 -139 l 276 -139 l 276 -209 l 207 -208 l 207 -139 m 276 0 l 345 -1 l 345 -70 l 276 -70 l 276 0 m 345 69 l 414 69 l 414 0 l 345 -1 l 345 69 "},"Ž":{"x_min":-208,"x_max":1655.453125,"ha":1667,"o":"m 1241 695 l 1310 695 l 1310 626 l 1241 626 l 1241 695 m 1103 557 l 1172 557 l 1172 488 l 1103 486 l 1103 557 m 206 1250 l 275 1250 l 275 1181 l 206 1180 l 206 1250 m 137 1181 l 208 1181 l 206 1111 l 137 1111 l 137 1181 m 896 279 l 965 277 l 965 208 l 896 208 l 896 279 m 965 348 l 1034 348 l 1034 277 l 965 279 l 965 348 m 1034 348 l 1103 348 l 1103 277 l 1041 279 l 1034 348 m 1448 1460 l 1517 1458 l 1517 1389 l 1448 1389 l 1448 1460 m 1103 417 l 1172 417 l 1172 348 l 1103 348 l 1103 417 m 965 417 l 1034 417 l 1041 348 l 965 348 l 965 417 m 1034 417 l 1103 417 l 1103 348 l 1041 348 l 1034 417 m -1 1042 l 68 1042 l 68 973 l -1 972 l -1 1042 m 1448 1529 l 1517 1529 l 1527 1460 l 1448 1458 l 1448 1529 m 275 277 l 344 279 l 344 208 l 275 208 l 275 277 m 344 139 l 413 138 l 413 69 l 344 69 l 344 139 m 413 138 l 482 139 l 482 69 l 413 69 l 413 138 m 482 138 l 551 139 l 551 69 l 482 69 l 482 138 m 551 138 l 620 139 l 620 69 l 551 69 l 551 138 m 689 208 l 758 208 l 758 138 l 689 139 l 689 208 m 758 208 l 827 208 l 827 138 l 758 139 l 758 208 m 827 277 l 896 279 l 902 208 l 827 208 l 827 277 m 896 348 l 965 348 l 965 277 l 902 277 l 896 348 m 1034 488 l 1103 486 l 1103 417 l 1041 417 l 1034 488 m 1103 488 l 1172 486 l 1172 417 l 1103 417 l 1103 488 m 1172 557 l 1241 557 l 1241 488 l 1172 486 l 1172 557 m 1310 764 l 1379 764 l 1379 695 l 1310 695 l 1310 764 m 1310 833 l 1379 834 l 1389 764 l 1310 764 l 1310 833 m 620 208 l 689 208 l 694 138 l 620 139 l 620 208 m 689 277 l 758 279 l 758 208 l 694 208 l 689 277 m 758 277 l 827 279 l 827 208 l 758 208 l 758 277 m -139 695 l -70 695 l -70 626 l -139 626 l -139 695 m 68 1111 l 137 1111 l 137 1042 l 68 1042 l 68 1111 m 758 1598 l 827 1598 l 827 1529 l 758 1529 l 758 1598 m 965 1667 l 1034 1667 l 1041 1598 l 965 1598 l 965 1667 m 896 1667 l 965 1667 l 965 1598 l 902 1598 l 896 1667 m 275 1319 l 344 1320 l 344 1250 l 275 1250 l 275 1319 m 620 1598 l 689 1598 l 694 1529 l 620 1529 l 620 1598 m 689 1598 l 758 1598 l 758 1529 l 694 1529 l 689 1598 m 344 1389 l 413 1389 l 413 1320 l 344 1319 l 344 1389 m 827 1667 l 896 1667 l 902 1598 l 827 1598 l 827 1667 m -1 -139 l 68 -140 l 68 -209 l -1 -209 l -1 -139 m 68 -209 l 137 -209 l 137 -278 l 68 -278 l 68 -209 m -70 -69 l -1 -70 l -1 -140 l -70 -139 l -70 -69 m 551 1529 l 620 1529 l 620 1460 l 551 1458 l 551 1529 m 1172 626 l 1241 626 l 1241 557 l 1172 557 l 1172 626 m 1241 626 l 1310 626 l 1310 557 l 1241 557 l 1241 626 m 1172 488 l 1241 486 l 1241 417 l 1172 417 l 1172 488 m 1103 348 l 1172 348 l 1172 277 l 1103 279 l 1103 348 m 1379 1598 l 1448 1598 l 1448 1529 l 1389 1529 l 1379 1598 m 1310 1598 l 1379 1598 l 1389 1529 l 1310 1529 l 1310 1598 m 1517 1389 l 1586 1389 l 1586 1320 l 1527 1319 l 1517 1389 m 1517 1320 l 1586 1319 l 1586 1250 l 1527 1250 l 1517 1320 m -208 488 l -139 486 l -139 417 l -208 417 l -208 488 m -208 557 l -139 557 l -139 488 l -208 486 l -208 557 m -208 417 l -139 417 l -139 348 l -208 348 l -208 417 m -208 277 l -139 279 l -139 208 l -208 208 l -208 277 m -208 348 l -139 348 l -139 277 l -208 279 l -208 348 m -208 208 l -139 208 l -139 138 l -208 139 l -208 208 m -139 69 l -70 69 l -70 0 l -139 0 l -139 69 m -139 138 l -70 139 l -70 69 l -139 69 l -139 138 m -70 0 l -1 0 l -1 -70 l -70 -69 l -70 0 m -139 626 l -70 626 l -70 557 l -139 557 l -139 626 m 1379 973 l 1448 972 l 1448 903 l 1389 903 l 1379 973 m 1448 973 l 1517 972 l 1527 903 l 1448 903 l 1448 973 m 1517 973 l 1586 972 l 1586 903 l 1527 903 l 1517 973 m -139 764 l -70 764 l -70 695 l -139 695 l -139 764 m -70 834 l -1 833 l -1 764 l -70 764 l -70 834 m 1517 1111 l 1586 1111 l 1586 1042 l 1527 1042 l 1517 1111 m -70 903 l -1 903 l -1 834 l -70 833 l -70 903 m 1517 1181 l 1586 1180 l 1586 1111 l 1527 1111 l 1517 1181 m -1 973 l 68 972 l 68 903 l -1 903 l -1 973 m 1517 1250 l 1586 1250 l 1586 1181 l 1527 1180 l 1517 1250 m 482 1529 l 551 1529 l 551 1460 l 482 1458 l 482 1529 m 413 1460 l 482 1458 l 482 1389 l 413 1389 l 413 1460 m 1517 1042 l 1586 1042 l 1586 973 l 1527 972 l 1517 1042 m 1034 1667 l 1103 1667 l 1103 1598 l 1041 1598 l 1034 1667 m 1448 1042 l 1517 1042 l 1527 973 l 1448 972 l 1448 1042 m 1448 834 l 1517 833 l 1527 764 l 1448 764 l 1448 834 m 1448 903 l 1517 903 l 1527 834 l 1448 833 l 1448 903 m 1379 764 l 1448 764 l 1448 695 l 1389 695 l 1379 764 m 1379 834 l 1448 833 l 1448 764 l 1389 764 l 1379 834 m 1379 903 l 1448 903 l 1448 834 l 1389 833 l 1379 903 m 1310 695 l 1379 695 l 1389 626 l 1310 626 l 1310 695 m 1379 695 l 1448 695 l 1448 626 l 1389 626 l 1379 695 m 1310 626 l 1379 626 l 1389 557 l 1310 557 l 1310 626 m 1241 557 l 1310 557 l 1310 488 l 1241 486 l 1241 557 m 1310 557 l 1379 557 l 1389 488 l 1310 486 l 1310 557 m 1241 488 l 1310 486 l 1310 417 l 1241 417 l 1241 488 m 1172 417 l 1241 417 l 1241 348 l 1172 348 l 1172 417 m 1448 1111 l 1517 1111 l 1527 1042 l 1448 1042 l 1448 1111 m 344 348 l 413 348 l 413 277 l 344 279 l 344 348 m 413 348 l 482 348 l 482 277 l 413 279 l 413 348 m 275 208 l 344 208 l 344 138 l 275 139 l 275 208 m 482 348 l 551 348 l 551 277 l 482 279 l 482 348 m 551 348 l 620 348 l 620 277 l 551 279 l 551 348 m 896 69 l 965 69 l 965 0 l 902 0 l 896 69 m 827 138 l 896 139 l 902 69 l 827 69 l 827 138 m 1103 1667 l 1172 1667 l 1172 1598 l 1103 1598 l 1103 1667 m 1241 1667 l 1310 1667 l 1310 1598 l 1241 1598 l 1241 1667 m 1172 1667 l 1241 1667 l 1241 1598 l 1172 1598 l 1172 1667 m 413 -625 l 482 -625 l 482 -694 l 413 -695 l 413 -625 m 344 -695 l 413 -694 l 413 -764 l 344 -764 l 344 -695 m 551 -556 l 620 -556 l 620 -625 l 551 -625 l 551 -556 m 620 -487 l 689 -487 l 694 -556 l 620 -556 l 620 -487 m -208 -695 l -139 -694 l -139 -764 l -208 -764 l -208 -695 m -139 -764 l -70 -764 l -70 -833 l -139 -833 l -139 -764 m -70 -764 l -1 -764 l -1 -833 l -70 -833 l -70 -764 m -1 -764 l 68 -764 l 68 -833 l -1 -833 l -1 -764 m 68 -764 l 137 -764 l 137 -833 l 68 -833 l 68 -764 m 137 -764 l 206 -764 l 208 -833 l 137 -833 l 137 -764 m 275 -695 l 344 -694 l 344 -764 l 275 -764 l 275 -695 m 206 -764 l 275 -764 l 275 -833 l 208 -833 l 206 -764 m 689 -418 l 758 -416 l 758 -487 l 694 -487 l 689 -418 m 827 -278 l 896 -278 l 902 -347 l 827 -347 l 827 -278 m 896 0 l 965 0 l 965 -70 l 902 -69 l 896 0 m 896 -70 l 965 -69 l 965 -140 l 902 -139 l 896 -70 m 827 -209 l 896 -209 l 902 -278 l 827 -278 l 827 -209 m 1034 0 l 1103 0 l 1103 -70 l 1041 -69 l 1034 0 m 482 -625 l 551 -625 l 551 -695 l 482 -694 l 482 -625 m -208 -625 l -139 -625 l -139 -695 l -208 -694 l -208 -625 m -208 -556 l -139 -556 l -139 -625 l -208 -625 l -208 -556 m -139 -487 l -70 -487 l -70 -556 l -139 -556 l -139 -487 m 137 -278 l 206 -278 l 208 -347 l 137 -347 l 137 -278 m 206 -278 l 275 -278 l 275 -347 l 208 -347 l 206 -278 m 275 -209 l 344 -209 l 344 -278 l 275 -278 l 275 -209 m 344 -209 l 413 -209 l 413 -278 l 344 -278 l 344 -209 m 413 -140 l 482 -139 l 482 -209 l 413 -209 l 413 -140 m 482 -140 l 551 -139 l 551 -209 l 482 -209 l 482 -140 m 551 -140 l 620 -139 l 620 -209 l 551 -209 l 551 -140 m 758 -70 l 827 -69 l 827 -140 l 758 -139 l 758 -70 m 689 -70 l 758 -69 l 758 -140 l 694 -139 l 689 -70 m 827 0 l 896 0 l 902 -70 l 827 -69 l 827 0 m -70 -418 l -1 -416 l -1 -487 l -70 -487 l -70 -418 m 896 -140 l 965 -139 l 965 -209 l 902 -209 l 896 -140 m 68 -347 l 137 -347 l 137 -418 l 68 -416 l 68 -347 m -1 -347 l 68 -347 l 68 -418 l -1 -416 l -1 -347 m 620 -70 l 689 -69 l 694 -140 l 620 -139 l 620 -70 m 1172 69 l 1241 69 l 1241 0 l 1172 0 l 1172 69 m 1310 138 l 1379 139 l 1389 69 l 1310 69 l 1310 138 m 1379 138 l 1448 139 l 1448 69 l 1389 69 l 1379 138 m 1448 208 l 1517 208 l 1527 138 l 1448 139 l 1448 208 m 1517 208 l 1586 208 l 1586 138 l 1527 139 l 1517 208 m 1103 69 l 1172 69 l 1172 0 l 1103 0 l 1103 69 m 758 -347 l 827 -347 l 827 -418 l 758 -418 l 758 -347 m 551 -487 l 620 -487 l 620 -556 l 551 -556 l 551 -487 m 965 0 l 1034 0 l 1041 -70 l 965 -69 l 965 0 m 1241 69 l 1310 69 l 1310 0 l 1241 0 l 1241 69 m 965 277 l 1034 279 l 1041 208 l 965 208 l 965 277 m 275 -347 l 344 -347 l 344 -418 l 275 -416 l 275 -347 m 344 -347 l 413 -347 l 413 -418 l 344 -416 l 344 -347 m 413 -418 l 482 -416 l 482 -487 l 413 -487 l 413 -418 m 482 -418 l 551 -416 l 551 -487 l 482 -487 l 482 -418 m 689 -487 l 758 -487 l 758 -556 l 694 -556 l 689 -487 m 758 -487 l 827 -487 l 827 -556 l 758 -556 l 758 -487 m 896 -487 l 965 -487 l 965 -556 l 902 -556 l 896 -487 m 965 -487 l 1034 -487 l 1041 -556 l 965 -556 l 965 -487 m 1034 -487 l 1103 -487 l 1103 -556 l 1041 -556 l 1034 -487 m 1103 -418 l 1172 -416 l 1172 -487 l 1103 -487 l 1103 -418 m 1172 -418 l 1241 -416 l 1241 -487 l 1172 -487 l 1172 -418 m 1241 -418 l 1310 -416 l 1310 -487 l 1241 -487 l 1241 -418 m 1310 -347 l 1379 -347 l 1389 -418 l 1310 -416 l 1310 -347 m 1379 -347 l 1448 -347 l 1448 -418 l 1389 -416 l 1379 -347 m 827 -487 l 896 -487 l 902 -556 l 827 -556 l 827 -487 m 620 348 l 689 348 l 694 277 l 620 279 l 620 348 m 1586 277 l 1655 279 l 1655 208 l 1586 208 l 1586 277 m 1041 1875 l 1110 1875 l 1110 1806 l 1041 1806 l 1041 1875 m 1110 1806 l 1180 1806 l 1180 1737 l 1110 1737 l 1110 1806 m 1180 1875 l 1249 1875 l 1249 1806 l 1180 1806 l 1180 1875 "},"Á":{"x_min":-416,"x_max":2482.453125,"ha":1806,"o":"m 1171 1320 l 1240 1319 l 1240 1250 l 1171 1250 l 1171 1320 m 1309 486 l 1378 486 l 1378 417 l 1309 417 l 1309 486 m 757 973 l 826 973 l 826 904 l 757 904 l 757 973 m 343 695 l 274 695 l 274 766 l 343 764 l 343 695 m 412 0 l 481 -1 l 481 -70 l 412 -70 l 412 0 m 1240 348 l 1309 347 l 1309 278 l 1240 276 l 1240 348 m 481 -70 l 550 -70 l 550 -139 l 486 -139 l 481 -70 m 550 -70 l 619 -70 l 619 -139 l 550 -139 l 550 -70 m 1033 1250 l 1102 1250 l 1102 1181 l 1033 1181 l 1033 1250 m 1516 835 l 1585 835 l 1585 766 l 1516 764 l 1516 835 m 1516 904 l 1585 904 l 1585 835 l 1516 835 l 1516 904 m 619 -70 l 688 -70 l 688 -139 l 619 -139 l 619 -70 m 688 -70 l 757 -70 l 757 -139 l 688 -139 l 688 -70 m 1171 276 l 1240 278 l 1240 207 l 1180 207 l 1171 276 m 1309 417 l 1378 417 l 1378 348 l 1309 348 l 1309 417 m 1378 625 l 1447 625 l 1447 556 l 1378 555 l 1378 625 m 1447 766 l 1516 764 l 1516 695 l 1447 694 l 1447 766 m 1447 695 l 1516 694 l 1516 625 l 1447 625 l 1447 695 m 757 0 l 826 -1 l 826 -70 l 757 -70 l 757 0 m 826 0 l 895 -1 l 895 -70 l 826 -70 l 826 0 m 895 69 l 964 69 l 964 0 l 895 -1 l 895 69 m 964 69 l 1033 69 l 1033 0 l 972 -1 l 964 69 m 1654 973 l 1723 973 l 1736 904 l 1654 904 l 1654 973 m 1585 973 l 1654 973 l 1654 904 l 1585 904 l 1585 973 m 343 138 l 412 138 l 412 69 l 343 69 l 343 138 m -2 695 l -71 694 l -71 766 l -2 764 l -2 695 m -71 695 l -140 694 l -140 766 l -71 764 l -71 695 m 1378 555 l 1447 556 l 1447 486 l 1378 486 l 1378 555 m 2206 1320 l 2275 1319 l 2275 1250 l 2206 1250 l 2206 1320 m 1585 1459 l 1654 1458 l 1654 1389 l 1585 1389 l 1585 1459 m 1033 1181 l 1102 1181 l 1102 1112 l 1033 1112 l 1033 1181 m 1309 1389 l 1378 1389 l 1378 1320 l 1309 1319 l 1309 1389 m 2344 1250 l 2413 1250 l 2413 1181 l 2344 1181 l 2344 1250 m 2413 1250 l 2482 1250 l 2482 1181 l 2413 1181 l 2413 1250 m 2275 1320 l 2344 1319 l 2344 1250 l 2275 1250 l 2275 1320 m 343 207 l 412 207 l 412 138 l 343 138 l 343 207 m 412 348 l 481 348 l 486 276 l 412 278 l 412 348 m 1240 207 l 1309 207 l 1309 138 l 1240 138 l 1240 207 m 1240 276 l 1309 278 l 1309 207 l 1240 207 l 1240 276 m 1309 -139 l 1378 -139 l 1378 -211 l 1309 -211 l 1309 -139 m 2068 -487 l 2137 -487 l 2137 -556 l 2068 -556 l 2068 -487 m 1309 -211 l 1378 -211 l 1378 -280 l 1309 -280 l 1309 -211 m 1999 -556 l 2083 -556 l 2068 -625 l 1999 -625 l 1999 -556 m 1723 -556 l 1792 -556 l 1792 -625 l 1736 -625 l 1723 -556 m 1930 -556 l 1999 -556 l 1999 -625 l 1930 -625 l 1930 -556 m 1792 -556 l 1861 -556 l 1861 -625 l 1792 -625 l 1792 -556 m 1861 -556 l 1930 -556 l 1930 -625 l 1861 -625 l 1861 -556 m 2137 1389 l 2206 1389 l 2206 1320 l 2137 1319 l 2137 1389 m 2068 1389 l 2137 1389 l 2137 1320 l 2083 1319 l 2068 1389 m 1792 1459 l 1861 1458 l 1861 1389 l 1792 1389 l 1792 1459 m 1930 1389 l 1999 1389 l 1999 1320 l 1930 1319 l 1930 1389 m 1654 1459 l 1723 1458 l 1723 1389 l 1654 1389 l 1654 1459 m 1723 1459 l 1792 1458 l 1792 1389 l 1736 1389 l 1723 1459 m -140 695 l -209 694 l -209 766 l -140 764 l -140 695 m -208 766 l -278 764 l -278 835 l -209 835 l -208 766 m -277 835 l -347 835 l -347 904 l -278 904 l -277 835 m 757 904 l 826 904 l 826 835 l 757 835 l 757 904 m 1447 1389 l 1516 1389 l 1516 1320 l 1447 1319 l 1447 1389 m 1378 1389 l 1447 1389 l 1447 1320 l 1378 1319 l 1378 1389 m 481 348 l 550 348 l 550 276 l 486 278 l 481 348 m 412 276 l 481 278 l 486 207 l 412 207 l 412 276 m 757 835 l 826 835 l 826 766 l 757 764 l 757 835 m 550 555 l 619 556 l 619 486 l 550 486 l 550 555 m 550 625 l 619 625 l 619 555 l 550 556 l 550 625 m 619 766 l 688 764 l 688 695 l 619 694 l 619 766 m 688 835 l 757 835 l 757 766 l 688 764 l 688 835 m 619 555 l 688 556 l 688 486 l 619 486 l 619 555 m 619 625 l 688 625 l 688 555 l 619 556 l 619 625 m 688 766 l 757 764 l 757 695 l 688 694 l 688 766 m 619 695 l 688 694 l 688 625 l 619 625 l 619 695 m 757 766 l 826 764 l 826 695 l 757 694 l 757 766 m 688 695 l 757 694 l 757 625 l 688 625 l 688 695 m 826 1042 l 895 1043 l 895 973 l 826 973 l 826 1042 m 826 973 l 895 973 l 895 904 l 826 904 l 826 973 m 826 904 l 895 904 l 895 835 l 826 835 l 826 904 m 895 1043 l 964 1042 l 972 973 l 895 973 l 895 1043 m 895 973 l 964 973 l 972 904 l 895 904 l 895 973 m 895 904 l 964 904 l 972 835 l 895 835 l 895 904 m 895 1112 l 964 1112 l 972 1043 l 895 1042 l 895 1112 m 688 904 l 757 904 l 757 835 l 688 835 l 688 904 m 343 276 l 412 278 l 412 207 l 343 207 l 343 276 m 481 555 l 550 556 l 550 486 l 486 486 l 481 555 m 550 695 l 619 694 l 619 625 l 550 625 l 550 695 m 619 835 l 688 835 l 688 766 l 619 764 l 619 835 m 826 835 l 895 835 l 895 766 l 826 764 l 826 835 m 1102 1250 l 1171 1250 l 1180 1181 l 1102 1181 l 1102 1250 m 1171 1250 l 1240 1250 l 1240 1181 l 1180 1181 l 1171 1250 m 1240 1320 l 1309 1319 l 1309 1250 l 1240 1250 l 1240 1320 m 1309 1320 l 1378 1319 l 1378 1250 l 1309 1250 l 1309 1320 m 1033 1112 l 1102 1112 l 1102 1043 l 1033 1042 l 1033 1112 m 1102 1181 l 1171 1181 l 1180 1112 l 1102 1112 l 1102 1181 m 1240 1250 l 1309 1250 l 1309 1181 l 1240 1181 l 1240 1250 m 1378 1320 l 1447 1319 l 1447 1250 l 1378 1250 l 1378 1320 m 343 348 l 412 348 l 412 276 l 343 278 l 343 348 m 481 625 l 550 625 l 550 555 l 486 556 l 481 625 m 550 766 l 619 764 l 619 695 l 550 694 l 550 766 m 1585 -487 l 1654 -487 l 1654 -556 l 1585 -556 l 1585 -487 m 1654 -487 l 1723 -487 l 1736 -556 l 1654 -556 l 1654 -487 m 1447 -418 l 1516 -418 l 1516 -487 l 1447 -487 l 1447 -418 m 1516 -418 l 1585 -418 l 1585 -487 l 1516 -487 l 1516 -418 m 1378 -280 l 1447 -280 l 1447 -349 l 1378 -349 l 1378 -280 m 1378 -349 l 1447 -349 l 1447 -418 l 1378 -418 l 1378 -349 m 1240 69 l 1309 69 l 1309 0 l 1240 -1 l 1240 69 m 1240 138 l 1309 138 l 1309 69 l 1240 69 l 1240 138 m 412 207 l 481 207 l 486 138 l 412 138 l 412 207 m 412 138 l 481 138 l 486 69 l 412 69 l 412 138 m 412 69 l 481 69 l 486 0 l 412 -1 l 412 69 m 1999 1389 l 2068 1389 l 2083 1320 l 1999 1319 l 1999 1389 m -209 1389 l -278 1389 l -277 1459 l -208 1458 l -209 1389 m 1861 1459 l 1930 1458 l 1930 1389 l 1861 1389 l 1861 1459 m -278 904 l -347 904 l -347 973 l -277 973 l -278 904 m 412 695 l 343 694 l 343 766 l 412 764 l 412 695 m 481 695 l 412 694 l 412 764 l 486 766 l 481 695 m 550 766 l 481 764 l 486 835 l 550 835 l 550 766 m -140 1459 l -209 1458 l -208 1529 l -140 1528 l -140 1459 m 274 625 l 205 625 l 205 695 l 274 694 l 274 625 m 205 625 l 136 625 l 136 695 l 205 694 l 205 625 m 136 625 l 67 625 l 67 695 l 136 694 l 136 625 m 67 625 l -2 625 l -2 695 l 69 694 l 67 625 m -71 1459 l -140 1458 l -140 1528 l -71 1529 l -71 1459 m -2 1529 l -71 1528 l -71 1598 l -2 1598 l -2 1529 m 136 1598 l 67 1598 l 69 1667 l 136 1667 l 136 1598 m 826 1529 l 757 1528 l 757 1598 l 826 1598 l 826 1529 m 895 1529 l 826 1528 l 826 1598 l 895 1598 l 895 1529 m 205 1598 l 136 1598 l 136 1667 l 205 1667 l 205 1598 m 688 1598 l 619 1598 l 619 1667 l 688 1667 l 688 1598 m 757 1598 l 688 1598 l 688 1667 l 757 1667 l 757 1598 m 67 1529 l -2 1528 l -2 1598 l 69 1598 l 67 1529 m 964 1459 l 895 1458 l 895 1529 l 972 1528 l 964 1459 m 619 1598 l 550 1598 l 550 1667 l 619 1667 l 619 1598 m 274 1598 l 205 1598 l 205 1667 l 274 1667 l 274 1598 m -347 1043 l -416 1042 l -416 1112 l -347 1112 l -347 1043 m -347 973 l -416 973 l -416 1043 l -347 1042 l -347 973 m 619 766 l 550 764 l 550 835 l 619 835 l 619 766 m 1585 904 l 1654 904 l 1654 835 l 1585 835 l 1585 904 m 1516 973 l 1585 973 l 1585 904 l 1516 904 l 1516 973 m 2275 -349 l 2344 -349 l 2344 -418 l 2275 -418 l 2275 -349 m 2206 -418 l 2275 -418 l 2275 -487 l 2206 -487 l 2206 -418 m 1240 0 l 1309 -1 l 1309 -70 l 1240 -70 l 1240 0 m 1240 -70 l 1309 -70 l 1309 -139 l 1240 -139 l 1240 -70 m 412 1598 l 343 1598 l 343 1667 l 412 1667 l 412 1598 m 481 1598 l 412 1598 l 412 1667 l 486 1667 l 481 1598 m 343 1598 l 274 1598 l 274 1667 l 343 1667 l 343 1598 m 550 1598 l 481 1598 l 486 1667 l 550 1667 l 550 1598 m -347 1181 l -416 1181 l -416 1250 l -347 1250 l -347 1181 m -278 1320 l -347 1319 l -347 1389 l -277 1389 l -278 1320 m -278 1250 l -347 1250 l -347 1320 l -277 1319 l -278 1250 m -347 1112 l -416 1112 l -416 1181 l -347 1181 l -347 1112 m 2137 -487 l 2206 -487 l 2206 -556 l 2137 -556 l 2137 -487 m 2344 -280 l 2413 -280 l 2413 -349 l 2344 -349 l 2344 -280 m 2344 -211 l 2413 -211 l 2413 -280 l 2344 -280 l 2344 -211 m 1033 1459 l 964 1459 l 972 1529 l 1033 1528 l 1033 1459 m 1102 1320 l 1033 1320 l 1033 1389 l 1102 1389 l 1102 1320 m 1240 1112 l 1171 1112 l 1180 1181 l 1240 1181 l 1240 1112 m 1240 1043 l 1171 1042 l 1180 1112 l 1240 1112 l 1240 1043 m 1102 1389 l 1033 1389 l 1033 1459 l 1102 1458 l 1102 1389 m 1240 973 l 1171 973 l 1180 1043 l 1240 1042 l 1240 973 m 1240 904 l 1171 904 l 1180 973 l 1240 973 l 1240 904 m 1171 835 l 1102 835 l 1102 904 l 1180 904 l 1171 835 m 1171 766 l 1102 764 l 1102 835 l 1180 835 l 1171 766 m 1102 695 l 1033 694 l 1033 766 l 1102 764 l 1102 695 m 1102 207 l 1171 207 l 1180 138 l 1102 138 l 1102 207 m 550 486 l 619 486 l 619 417 l 550 417 l 550 486 m 481 486 l 550 486 l 550 417 l 486 417 l 481 486 m 1033 138 l 1102 138 l 1102 69 l 1033 69 l 1033 138 m 481 417 l 550 417 l 550 348 l 486 348 l 481 417 m 412 417 l 481 417 l 486 348 l 412 348 l 412 417 m 412 486 l 481 486 l 486 417 l 412 417 l 412 486 m 964 1043 l 1033 1042 l 1033 973 l 972 973 l 964 1043 m 964 1112 l 1033 1112 l 1033 1043 l 972 1042 l 964 1112 m 1171 1250 l 1102 1250 l 1102 1320 l 1180 1319 l 1171 1250 m 964 1181 l 1033 1181 l 1033 1112 l 972 1112 l 964 1181 m 964 973 l 1033 973 l 1033 904 l 972 904 l 964 973 m 1033 1043 l 1102 1042 l 1102 973 l 1033 973 l 1033 1043 m 1102 1112 l 1171 1112 l 1180 1043 l 1102 1042 l 1102 1112 m 1516 1389 l 1585 1389 l 1585 1320 l 1516 1319 l 1516 1389 m 1527 1597 l 1596 1597 l 1596 1528 l 1527 1528 l 1527 1597 m 1596 1666 l 1666 1666 l 1666 1597 l 1596 1597 l 1596 1666 m 1666 1666 l 1735 1666 l 1735 1597 l 1666 1597 l 1666 1666 "},"g":{"x_min":-139,"x_max":694.5,"ha":695,"o":"m 344 279 l 413 278 l 413 209 l 344 209 l 344 279 m 555 140 l 625 140 l 625 69 l 555 69 l 555 140 m -1 209 l 68 209 l 68 140 l -1 140 l -1 209 m -1 140 l 68 140 l 68 69 l -1 69 l -1 140 m 68 69 l 137 69 l 137 0 l 68 -1 l 68 69 m 137 348 l 206 348 l 206 279 l 137 278 l 137 348 m 206 140 l 275 140 l 275 69 l 206 69 l 206 140 m 344 348 l 413 348 l 413 279 l 344 278 l 344 348 m 625 209 l 694 209 l 694 140 l 625 140 l 625 209 m 275 417 l 344 417 l 344 348 l 275 348 l 275 417 m 68 279 l 137 278 l 137 209 l 68 209 l 68 279 m 275 209 l 344 209 l 344 140 l 275 140 l 275 209 m 206 417 l 275 417 l 275 348 l 206 348 l 206 417 m 137 69 l 206 69 l 206 0 l 137 -1 l 137 69 m 413 417 l 482 417 l 482 348 l 413 348 l 413 417 m 344 0 l 413 -1 l 413 -70 l 344 -70 l 344 0 m 206 0 l 275 -1 l 275 -70 l 206 -70 l 206 0 m 206 69 l 275 69 l 275 0 l 206 -1 l 206 69 m 206 -70 l 275 -70 l 275 -139 l 206 -139 l 206 -70 m 68 -278 l 137 -278 l 137 -347 l 68 -347 l 68 -278 m -139 -209 l -70 -208 l -70 -278 l -139 -278 l -139 -209 m 68 -70 l 137 -70 l 137 -139 l 68 -139 l 68 -70 m -1 -347 l 68 -347 l 68 -416 l -1 -416 l -1 -347 m -139 -278 l -70 -278 l -70 -347 l -139 -347 l -139 -278 m -1 -139 l 68 -139 l 68 -209 l -1 -209 l -1 -139 m 137 -70 l 206 -70 l 206 -139 l 137 -139 l 137 -70 m 275 140 l 344 140 l 344 69 l 275 69 l 275 140 m -70 -347 l -1 -347 l -1 -416 l -70 -416 l -70 -347 m -70 -139 l -1 -139 l -1 -209 l -70 -209 l -70 -139 m 275 -70 l 344 -70 l 344 -139 l 275 -139 l 275 -70 m 482 69 l 551 69 l 551 0 l 482 -1 l 482 69 m 413 0 l 482 -1 l 482 -70 l 413 -70 l 413 0 m 137 -209 l 206 -208 l 206 -278 l 137 -278 l 137 -209 m 137 -139 l 206 -139 l 206 -209 l 137 -208 l 137 -139 "},"²":{"x_min":-1389,"x_max":1389,"ha":0,"o":"m -347 -416 l -277 -418 l -277 -487 l -347 -487 l -347 -416 m -277 -418 l -208 -416 l -208 -487 l -277 -487 l -277 -418 m -208 -418 l -138 -416 l -138 -487 l -208 -487 l -208 -418 m 763 -487 l 833 -487 l 833 -556 l 763 -556 l 763 -487 m 833 -487 l 902 -487 l 902 -556 l 833 -556 l 833 -487 m 902 -487 l 972 -487 l 972 -556 l 902 -556 l 902 -487 m 1041 -418 l 1111 -416 l 1111 -487 l 1041 -487 l 1041 -418 m 1111 -418 l 1180 -416 l 1180 -487 l 1111 -487 l 1111 -418 m 208 -418 l 277 -416 l 277 -487 l 208 -487 l 208 -418 m 277 -418 l 347 -416 l 347 -487 l 277 -487 l 277 -418 m 138 -418 l 208 -416 l 208 -487 l 138 -487 l 138 -418 m 347 -487 l 416 -487 l 416 -556 l 347 -556 l 347 -487 m -1111 -487 l -1180 -487 l -1180 -418 l -1111 -416 l -1111 -487 m -1180 -487 l -1250 -487 l -1250 -418 l -1180 -416 l -1180 -487 m -1041 -487 l -1111 -487 l -1111 -418 l -1041 -416 l -1041 -487 m -138 -418 l -69 -416 l -69 -487 l -138 -487 l -138 -418 m -69 -418 l 0 -416 l 0 -487 l -69 -487 l -69 -418 m 694 -487 l 763 -487 l 763 -556 l 694 -556 l 694 -487 m 972 -487 l 1041 -487 l 1041 -556 l 972 -556 l 972 -487 m 1180 -418 l 1250 -416 l 1250 -487 l 1180 -487 l 1180 -418 m 1250 -347 l 1319 -347 l 1319 -418 l 1250 -416 l 1250 -347 m 416 -487 l 486 -487 l 486 -556 l 416 -556 l 416 -487 m 69 -418 l 138 -416 l 138 -487 l 69 -487 l 69 -418 m -972 -347 l -902 -347 l -902 -418 l -972 -416 l -972 -347 m -972 -418 l -1041 -416 l -1041 -347 l -972 -347 l -972 -418 m -694 -347 l -625 -347 l -625 -418 l -694 -416 l -694 -347 m -694 -418 l -763 -416 l -763 -347 l -694 -347 l -694 -418 m -833 -418 l -902 -416 l -902 -347 l -833 -347 l -833 -418 m -763 -418 l -833 -416 l -833 -347 l -763 -347 l -763 -418 m -416 -418 l -486 -416 l -486 -347 l -416 -347 l -416 -418 m -555 -418 l -625 -416 l -625 -347 l -555 -347 l -555 -418 m -486 -418 l -555 -416 l -555 -347 l -486 -347 l -486 -418 m 555 -487 l 625 -487 l 625 -556 l 555 -556 l 555 -487 m 625 -487 l 694 -487 l 694 -556 l 625 -556 l 625 -487 m 486 -487 l 555 -487 l 555 -556 l 486 -556 l 486 -487 m -1319 -625 l -1389 -625 l -1389 -556 l -1319 -556 l -1319 -625 m -416 -347 l -347 -347 l -347 -418 l -416 -416 l -416 -347 m 0 -418 l 69 -416 l 69 -487 l 0 -487 l 0 -418 m -1250 -556 l -1319 -556 l -1319 -487 l -1250 -487 l -1250 -556 m 1319 -278 l 1389 -278 l 1389 -347 l 1319 -347 l 1319 -278 "},"–":{"x_min":0,"x_max":694.5,"ha":625,"o":"m 69 278 l 138 278 l 138 208 l 69 208 l 69 278 m 416 139 l 485 139 l 485 70 l 416 70 l 416 139 m 347 208 l 416 208 l 416 139 l 347 138 l 347 208 m 139 347 l 209 347 l 209 278 l 139 278 l 139 347 m 625 278 l 694 278 l 694 208 l 625 208 l 625 278 m 0 208 l 69 208 l 69 139 l 0 138 l 0 208 m 209 347 l 278 347 l 278 278 l 209 278 l 209 347 m 485 139 l 554 138 l 554 70 l 485 70 l 485 139 m 278 278 l 347 278 l 347 208 l 277 208 l 278 278 m 555 208 l 625 208 l 625 139 l 555 138 l 555 208 m 209 278 l 278 278 l 277 208 l 209 208 l 209 278 m 278 208 l 347 208 l 347 139 l 277 138 l 278 208 m 347 278 l 416 278 l 416 208 l 347 208 l 347 278 m 416 208 l 485 208 l 485 139 l 416 138 l 416 208 "},"ë":{"x_min":0,"x_max":625.046875,"ha":625,"o":"m 276 279 l 345 276 l 345 207 l 276 207 l 276 279 m 486 207 l 555 207 l 555 138 l 486 138 l 486 207 m 0 207 l 69 207 l 69 138 l 0 138 l 0 207 m 0 138 l 69 138 l 69 69 l 0 69 l 0 138 m 69 69 l 138 69 l 138 0 l 69 0 l 69 69 m 138 348 l 207 348 l 207 279 l 138 276 l 138 348 m 207 69 l 276 69 l 276 0 l 207 0 l 207 69 m 345 348 l 414 348 l 414 279 l 345 276 l 345 348 m 555 207 l 625 207 l 625 138 l 555 138 l 555 207 m 414 138 l 483 138 l 483 69 l 414 69 l 414 138 m 69 279 l 138 276 l 138 207 l 69 207 l 69 279 m 276 69 l 345 69 l 345 0 l 276 0 l 276 69 m 207 417 l 276 417 l 276 348 l 207 348 l 207 417 m 138 69 l 207 69 l 207 0 l 138 0 l 138 69 m 138 207 l 207 207 l 207 138 l 138 138 l 138 207 m 345 138 l 414 138 l 414 69 l 345 69 l 345 138 m 276 417 l 345 417 l 345 348 l 276 348 l 276 417 m 207 207 l 276 207 l 276 138 l 207 138 l 207 207 m 69 625 l 138 625 l 138 556 l 69 556 l 69 625 m 138 694 l 207 694 l 207 625 l 138 625 l 138 694 m 69 694 l 138 694 l 138 625 l 69 625 l 69 694 m 278 625 l 347 625 l 347 556 l 278 556 l 278 625 m 347 694 l 416 694 l 416 625 l 347 625 l 347 694 m 278 694 l 347 694 l 347 625 l 278 625 l 278 694 "},"ƒ":{"x_min":0.546875,"x_max":763.953125,"ha":764,"o":"m 139 279 l 208 277 l 208 208 l 139 208 l 139 279 m 208 417 l 277 417 l 277 348 l 208 348 l 208 417 m 139 208 l 208 208 l 208 139 l 139 138 l 139 208 m 70 348 l 139 348 l 139 277 l 70 279 l 70 348 m 70 138 l 139 139 l 139 69 l 70 69 l 70 138 m 0 277 l 70 279 l 70 208 l 0 208 l 0 277 m 139 348 l 208 348 l 208 277 l 139 279 l 139 348 m 346 208 l 415 208 l 416 138 l 346 139 l 346 208 m 553 348 l 622 348 l 622 277 l 553 279 l 553 348 m 622 138 l 691 139 l 691 69 l 622 69 l 622 138 m 484 417 l 553 417 l 553 348 l 484 348 l 484 417 m 484 764 l 553 764 l 553 695 l 486 695 l 484 764 m 553 834 l 622 833 l 622 764 l 553 763 l 553 834 m 553 903 l 622 903 l 622 834 l 553 833 l 553 903 m 553 972 l 622 972 l 622 903 l 553 903 l 553 972 m 346 764 l 415 763 l 416 695 l 346 695 l 346 764 m 415 834 l 484 833 l 486 763 l 416 764 l 415 834 m 415 903 l 484 903 l 486 834 l 416 833 l 415 903 m 484 695 l 553 695 l 553 626 l 486 625 l 484 695 m 346 695 l 415 695 l 416 626 l 346 625 l 346 695 m 415 626 l 484 626 l 486 556 l 416 556 l 415 626 m 277 556 l 346 555 l 346 486 l 277 486 l 277 556 m 277 626 l 346 625 l 346 556 l 277 555 l 277 626 m 346 556 l 415 555 l 416 486 l 346 486 l 346 556 m 208 486 l 277 486 l 277 417 l 208 417 l 208 486 m 415 417 l 484 417 l 486 348 l 415 348 l 415 417 m 346 348 l 415 348 l 416 277 l 346 279 l 346 348 m 484 69 l 553 69 l 553 0 l 486 0 l 484 69 m 553 69 l 622 69 l 622 0 l 553 0 l 553 69 m 694 208 l 763 208 l 763 138 l 694 139 l 694 208 m 70 69 l 139 69 l 139 0 l 70 0 l 70 69 m 484 972 l 553 972 l 553 903 l 486 903 l 484 972 m 139 417 l 208 417 l 208 348 l 139 348 l 139 417 m 415 69 l 484 69 l 486 0 l 416 0 l 415 69 m 277 277 l 346 279 l 346 208 l 277 208 l 277 277 m 346 138 l 415 139 l 416 69 l 346 69 l 346 138 m 208 208 l 277 208 l 277 138 l 208 139 l 208 208 "},"Î":{"x_min":-555,"x_max":1874.796875,"ha":1806,"o":"m 1655 1044 l 1724 1044 l 1724 975 l 1655 972 l 1655 1044 m 1448 557 l 1517 555 l 1517 486 l 1448 486 l 1448 557 m 1517 555 l 1586 557 l 1586 486 l 1517 486 l 1517 555 m 1379 486 l 1458 486 l 1448 417 l 1379 417 l 1379 486 m 1448 486 l 1517 486 l 1517 417 l 1458 417 l 1448 486 m 1241 1320 l 1310 1320 l 1310 1251 l 1241 1251 l 1241 1320 m 1241 1251 l 1310 1251 l 1310 1182 l 1241 1182 l 1241 1251 m 1172 69 l 1241 69 l 1241 0 l 1172 -2 l 1172 69 m 1103 0 l 1180 0 l 1172 -71 l 1103 -71 l 1103 0 m -70 0 l -1 -2 l -1 -71 l -70 -71 l -70 0 m -139 138 l -70 138 l -70 69 l -139 69 l -139 138 m 1310 279 l 1379 276 l 1379 207 l 1310 207 l 1310 279 m 1379 276 l 1448 279 l 1458 207 l 1379 207 l 1379 276 m 1241 138 l 1310 138 l 1310 69 l 1241 69 l 1241 138 m 1172 0 l 1241 -2 l 1241 -71 l 1180 -71 l 1172 0 m 1241 69 l 1310 69 l 1310 0 l 1241 -2 l 1241 69 m 1310 138 l 1379 138 l 1379 69 l 1310 69 l 1310 138 m 1724 1044 l 1793 1044 l 1805 975 l 1724 972 l 1724 1044 m 1448 348 l 1517 348 l 1517 276 l 1458 279 l 1448 348 m 1310 207 l 1379 207 l 1379 138 l 1310 138 l 1310 207 m 1379 207 l 1448 207 l 1458 138 l 1379 138 l 1379 207 m 1310 348 l 1379 348 l 1379 276 l 1310 276 l 1310 348 m 1379 348 l 1448 348 l 1458 276 l 1379 279 l 1379 348 m -1 -71 l 68 -71 l 68 -140 l 0 -140 l -1 -71 m 1724 1113 l 1793 1113 l 1805 1044 l 1724 1044 l 1724 1113 m 68 -71 l 137 -71 l 137 -140 l 68 -140 l 68 -71 m 137 -71 l 206 -71 l 206 -140 l 137 -140 l 137 -71 m 827 -71 l 896 -71 l 896 -140 l 827 -140 l 827 -71 m 896 -71 l 965 -71 l 965 -140 l 896 -140 l 896 -71 m 965 0 l 1034 -2 l 1034 -71 l 965 -71 l 965 0 m 1034 0 l 1103 -2 l 1103 -71 l 1041 -71 l 1034 0 m 965 -71 l 1034 -71 l 1041 -140 l 965 -140 l 965 -71 m 1034 -71 l 1103 -71 l 1103 -140 l 1041 -140 l 1034 -71 m 1103 69 l 1172 69 l 1180 0 l 1103 -2 l 1103 69 m 1172 138 l 1241 138 l 1241 69 l 1180 69 l 1172 138 m 1241 276 l 1310 279 l 1310 207 l 1241 207 l 1241 276 m 1241 207 l 1310 207 l 1310 138 l 1241 138 l 1241 207 m 1379 417 l 1448 417 l 1458 348 l 1379 348 l 1379 417 m 1448 417 l 1517 417 l 1517 348 l 1458 348 l 1448 417 m 1517 486 l 1586 486 l 1586 417 l 1517 417 l 1517 486 m 1655 834 l 1724 833 l 1724 764 l 1655 764 l 1655 834 m 1655 903 l 1724 903 l 1724 834 l 1655 833 l 1655 903 m 1586 834 l 1655 833 l 1655 764 l 1586 764 l 1586 834 m 896 0 l 965 -2 l 965 -71 l 896 -71 l 896 0 m 1034 69 l 1103 69 l 1103 0 l 1041 -2 l 1034 69 m 1103 138 l 1172 138 l 1180 69 l 1103 69 l 1103 138 m 1172 207 l 1241 207 l 1241 138 l 1180 138 l 1172 207 m 1793 1251 l 1862 1251 l 1862 1182 l 1793 1182 l 1793 1251 m -208 207 l -139 207 l -139 138 l -208 138 l -208 207 m 827 695 l 896 695 l 896 626 l 827 626 l 827 695 m 413 764 l 482 764 l 482 695 l 413 694 l 413 764 m 1517 1598 l 1586 1597 l 1586 1528 l 1517 1528 l 1517 1598 m -70 555 l -1 557 l 0 486 l -70 486 l -70 555 m -1 626 l 68 626 l 68 555 l 0 557 l -1 626 m 1034 626 l 1103 626 l 1103 555 l 1041 557 l 1034 626 m 1517 0 l 1586 -2 l 1586 -71 l 1517 -71 l 1517 0 m 1517 -71 l 1586 -71 l 1586 -140 l 1517 -140 l 1517 -71 m 1517 69 l 1586 69 l 1586 0 l 1517 -2 l 1517 69 m 1448 -140 l 1517 -140 l 1517 -209 l 1458 -209 l 1448 -140 m 1379 -278 l 1448 -280 l 1458 -349 l 1379 -349 l 1379 -278 m 1241 -418 l 1310 -418 l 1310 -487 l 1241 -487 l 1241 -418 m 1310 -349 l 1379 -349 l 1379 -418 l 1310 -418 l 1310 -349 m 1103 -487 l 1172 -487 l 1180 -556 l 1103 -556 l 1103 -487 m 1172 -418 l 1241 -418 l 1241 -487 l 1180 -487 l 1172 -418 m -277 -349 l -208 -349 l -208 -418 l -277 -418 l -277 -349 m -416 -280 l -347 -278 l -347 -349 l -416 -349 l -416 -280 m -347 -349 l -277 -349 l -277 -418 l -347 -418 l -347 -349 m -555 -140 l -486 -140 l -486 -209 l -555 -209 l -555 -140 m -486 -209 l -416 -209 l -416 -280 l -486 -278 l -486 -209 m -555 -71 l -486 -71 l -486 -140 l -555 -140 l -555 -71 m -70 -487 l -1 -487 l 0 -556 l -70 -556 l -70 -487 m -208 -418 l -139 -418 l -139 -487 l -208 -487 l -208 -418 m -139 -418 l -70 -418 l -70 -487 l -139 -487 l -139 -418 m 1586 1598 l 1655 1598 l 1655 1528 l 1586 1528 l 1586 1598 m 1172 1182 l 1241 1182 l 1241 1113 l 1180 1113 l 1172 1182 m 1172 1113 l 1241 1113 l 1241 1044 l 1180 1044 l 1172 1113 m 1655 1667 l 1724 1667 l 1724 1598 l 1655 1598 l 1655 1667 m 1793 1528 l 1862 1528 l 1862 1459 l 1805 1459 l 1793 1528 m 551 764 l 620 764 l 620 695 l 551 694 l 551 764 m 620 764 l 689 764 l 689 695 l 620 694 l 620 764 m 689 764 l 758 764 l 758 695 l 689 694 l 689 764 m 620 -140 l 689 -140 l 689 -209 l 620 -209 l 620 -140 m 689 -140 l 758 -140 l 758 -209 l 689 -209 l 689 -140 m 758 -140 l 827 -140 l 827 -209 l 758 -209 l 758 -140 m 758 -71 l 827 -71 l 827 -140 l 758 -140 l 758 -71 m 827 -140 l 896 -140 l 896 -209 l 827 -209 l 827 -140 m 482 764 l 551 764 l 551 695 l 482 694 l 482 764 m 206 -556 l 275 -556 l 275 -625 l 208 -625 l 206 -556 m 275 -556 l 344 -556 l 344 -625 l 275 -625 l 275 -556 m 137 -487 l 206 -487 l 208 -556 l 137 -556 l 137 -487 m -1 -487 l 68 -487 l 68 -556 l 0 -556 l -1 -487 m 68 -487 l 137 -487 l 137 -556 l 68 -556 l 68 -487 m 344 -556 l 413 -556 l 413 -625 l 344 -625 l 344 -556 m 1517 626 l 1586 626 l 1586 555 l 1517 557 l 1517 626 m 1448 626 l 1517 626 l 1517 555 l 1458 555 l 1448 626 m 1586 626 l 1655 626 l 1655 555 l 1586 557 l 1586 626 m 1586 903 l 1655 903 l 1655 834 l 1586 833 l 1586 903 m 1793 1320 l 1862 1320 l 1862 1251 l 1805 1251 l 1793 1320 m 1724 1182 l 1793 1182 l 1805 1113 l 1724 1113 l 1724 1182 m 1517 695 l 1586 694 l 1586 626 l 1517 626 l 1517 695 m 1586 695 l 1655 694 l 1655 626 l 1586 626 l 1586 695 m 1517 764 l 1586 764 l 1586 695 l 1517 694 l 1517 764 m 1586 764 l 1655 764 l 1655 695 l 1586 694 l 1586 764 m 1655 975 l 1724 972 l 1724 903 l 1655 903 l 1655 975 m 1724 975 l 1793 972 l 1805 903 l 1724 903 l 1724 975 m 1103 903 l 1172 903 l 1180 834 l 1103 833 l 1103 903 m 1034 417 l 1103 417 l 1103 348 l 1041 348 l 1034 417 m -208 276 l -139 279 l -139 207 l -208 207 l -208 276 m -208 348 l -139 348 l -139 276 l -208 279 l -208 348 m -139 417 l -70 417 l -70 348 l -139 348 l -139 417 m -139 486 l -70 486 l -70 417 l -139 417 l -139 486 m 482 -140 l 551 -140 l 551 -209 l 482 -209 l 482 -140 m 551 -140 l 620 -140 l 620 -209 l 551 -209 l 551 -140 m 206 695 l 275 694 l 275 626 l 208 626 l 206 695 m 137 695 l 206 694 l 208 626 l 137 626 l 137 695 m 1034 348 l 1103 348 l 1103 276 l 1041 279 l 1034 348 m 1103 1044 l 1172 1044 l 1180 975 l 1103 972 l 1103 1044 m 1034 834 l 1103 833 l 1103 764 l 1041 764 l 1034 834 m 1034 555 l 1103 557 l 1103 486 l 1041 486 l 1034 555 m 1034 486 l 1103 486 l 1103 417 l 1041 417 l 1034 486 m 1103 276 l 1172 279 l 1180 207 l 1103 207 l 1103 276 m 1448 1528 l 1517 1528 l 1517 1459 l 1458 1459 l 1448 1528 m 1103 975 l 1172 972 l 1180 903 l 1103 903 l 1103 975 m 1310 486 l 1379 486 l 1379 417 l 1310 417 l 1310 486 m 1310 417 l 1379 417 l 1379 348 l 1310 348 l 1310 417 m 1172 626 l 1241 626 l 1241 555 l 1180 557 l 1172 626 m 896 695 l 965 694 l 965 626 l 896 626 l 896 695 m 1034 695 l 1103 694 l 1103 626 l 1041 626 l 1034 695 m 68 626 l 137 626 l 137 555 l 68 557 l 68 626 m 1241 555 l 1310 557 l 1310 486 l 1241 486 l 1241 555 m 1517 138 l 1586 138 l 1586 69 l 1517 69 l 1517 138 m 1448 -209 l 1517 -209 l 1517 -280 l 1458 -278 l 1448 -209 m 1034 -487 l 1103 -487 l 1103 -556 l 1041 -556 l 1034 -487 m 1517 207 l 1586 207 l 1586 138 l 1517 138 l 1517 207 m 1172 -71 l 1241 -71 l 1241 -140 l 1180 -140 l 1172 -71 m 1241 -140 l 1310 -140 l 1310 -209 l 1241 -209 l 1241 -140 m 620 -556 l 689 -556 l 689 -625 l 620 -625 l 620 -556 m 413 -556 l 482 -556 l 482 -625 l 413 -625 l 413 -556 m 482 -556 l 551 -556 l 551 -625 l 482 -625 l 482 -556 m 551 -556 l 620 -556 l 620 -625 l 551 -625 l 551 -556 m 1310 1389 l 1379 1390 l 1379 1320 l 1310 1320 l 1310 1389 m 1793 1390 l 1862 1389 l 1862 1320 l 1805 1320 l 1793 1390 m 1379 1459 l 1448 1459 l 1458 1390 l 1379 1389 l 1379 1459 m 1793 1459 l 1862 1459 l 1862 1390 l 1805 1389 l 1793 1459 m 1448 276 l 1517 279 l 1517 207 l 1458 207 l 1448 276 m 1034 764 l 1103 764 l 1103 695 l 1041 694 l 1034 764 m 1103 207 l 1172 207 l 1180 138 l 1103 138 l 1103 207 m -139 69 l -70 69 l -70 0 l -139 -2 l -139 69 m 275 -140 l 344 -140 l 344 -209 l 275 -209 l 275 -140 m 206 -140 l 275 -140 l 275 -209 l 208 -209 l 206 -140 m 1793 1598 l 1862 1598 l 1862 1528 l 1805 1528 l 1793 1598 m 1724 1667 l 1793 1667 l 1805 1598 l 1724 1598 l 1724 1667 m 896 -140 l 965 -140 l 965 -209 l 896 -209 l 896 -140 m 1448 -349 l 1517 -349 l 1517 -418 l 1458 -418 l 1448 -349 m 1310 -209 l 1379 -209 l 1379 -280 l 1310 -278 l 1310 -209 m 1517 -349 l 1586 -349 l 1586 -418 l 1517 -418 l 1517 -349 m 1586 -418 l 1655 -418 l 1655 -487 l 1586 -487 l 1586 -418 m 1655 -418 l 1724 -418 l 1724 -487 l 1655 -487 l 1655 -418 m 344 764 l 413 764 l 413 695 l 344 694 l 344 764 m 413 -140 l 482 -140 l 482 -209 l 413 -209 l 413 -140 m 275 764 l 344 764 l 344 695 l 275 694 l 275 764 m 344 -140 l 413 -140 l 413 -209 l 344 -209 l 344 -140 m 1103 626 l 1172 626 l 1180 555 l 1103 557 l 1103 626 m 965 695 l 1034 694 l 1041 626 l 965 626 l 965 695 m 965 -487 l 1034 -487 l 1041 -556 l 965 -556 l 965 -487 m 896 -556 l 965 -556 l 965 -625 l 896 -625 l 896 -556 m 689 -556 l 758 -556 l 758 -625 l 689 -625 l 689 -556 m 758 -556 l 827 -556 l 827 -625 l 758 -625 l 758 -556 m 827 -556 l 896 -556 l 896 -625 l 827 -625 l 827 -556 m 758 764 l 827 764 l 827 694 l 758 695 l 758 764 m 1874 1806 l 1805 1806 l 1805 1875 l 1874 1875 l 1874 1806 m 1805 1875 l 1735 1875 l 1735 1945 l 1805 1945 l 1805 1875 m 1735 1806 l 1666 1806 l 1666 1875 l 1735 1875 l 1735 1806 "},"e":{"x_min":0,"x_max":625.046875,"ha":625,"o":"m 276 279 l 345 276 l 345 207 l 276 207 l 276 279 m 486 207 l 555 207 l 555 138 l 486 138 l 486 207 m 0 207 l 69 207 l 69 138 l 0 138 l 0 207 m 0 138 l 69 138 l 69 69 l 0 69 l 0 138 m 69 69 l 138 69 l 138 0 l 69 0 l 69 69 m 138 348 l 207 348 l 207 279 l 138 276 l 138 348 m 207 69 l 276 69 l 276 0 l 207 0 l 207 69 m 345 348 l 414 348 l 414 279 l 345 276 l 345 348 m 555 207 l 625 207 l 625 138 l 555 138 l 555 207 m 414 138 l 483 138 l 483 69 l 414 69 l 414 138 m 69 279 l 138 276 l 138 207 l 69 207 l 69 279 m 276 69 l 345 69 l 345 0 l 276 0 l 276 69 m 207 417 l 276 417 l 276 348 l 207 348 l 207 417 m 138 69 l 207 69 l 207 0 l 138 0 l 138 69 m 138 207 l 207 207 l 207 138 l 138 138 l 138 207 m 345 138 l 414 138 l 414 69 l 345 69 l 345 138 m 276 417 l 345 417 l 345 348 l 276 348 l 276 417 m 207 207 l 276 207 l 276 138 l 207 138 l 207 207 "},"Ã":{"x_min":-416,"x_max":2482.453125,"ha":1806,"o":"m 1171 1320 l 1240 1319 l 1240 1250 l 1171 1250 l 1171 1320 m 1309 486 l 1378 486 l 1378 417 l 1309 417 l 1309 486 m 757 973 l 826 973 l 826 904 l 757 904 l 757 973 m 343 695 l 274 695 l 274 766 l 343 764 l 343 695 m 412 0 l 481 -1 l 481 -70 l 412 -70 l 412 0 m 1240 348 l 1309 347 l 1309 278 l 1240 276 l 1240 348 m 481 -70 l 550 -70 l 550 -139 l 486 -139 l 481 -70 m 550 -70 l 619 -70 l 619 -139 l 550 -139 l 550 -70 m 1033 1250 l 1102 1250 l 1102 1181 l 1033 1181 l 1033 1250 m 1516 835 l 1585 835 l 1585 766 l 1516 764 l 1516 835 m 1516 904 l 1585 904 l 1585 835 l 1516 835 l 1516 904 m 619 -70 l 688 -70 l 688 -139 l 619 -139 l 619 -70 m 688 -70 l 757 -70 l 757 -139 l 688 -139 l 688 -70 m 1171 276 l 1240 278 l 1240 207 l 1180 207 l 1171 276 m 1309 417 l 1378 417 l 1378 348 l 1309 348 l 1309 417 m 1378 625 l 1447 625 l 1447 556 l 1378 555 l 1378 625 m 1447 766 l 1516 764 l 1516 695 l 1447 694 l 1447 766 m 1447 695 l 1516 694 l 1516 625 l 1447 625 l 1447 695 m 757 0 l 826 -1 l 826 -70 l 757 -70 l 757 0 m 826 0 l 895 -1 l 895 -70 l 826 -70 l 826 0 m 895 69 l 964 69 l 964 0 l 895 -1 l 895 69 m 964 69 l 1033 69 l 1033 0 l 972 -1 l 964 69 m 1654 973 l 1723 973 l 1736 904 l 1654 904 l 1654 973 m 1585 973 l 1654 973 l 1654 904 l 1585 904 l 1585 973 m 343 138 l 412 138 l 412 69 l 343 69 l 343 138 m -2 695 l -71 694 l -71 766 l -2 764 l -2 695 m -71 695 l -140 694 l -140 766 l -71 764 l -71 695 m 1378 555 l 1447 556 l 1447 486 l 1378 486 l 1378 555 m 2206 1320 l 2275 1319 l 2275 1250 l 2206 1250 l 2206 1320 m 1585 1459 l 1654 1458 l 1654 1389 l 1585 1389 l 1585 1459 m 1033 1181 l 1102 1181 l 1102 1112 l 1033 1112 l 1033 1181 m 1309 1389 l 1378 1389 l 1378 1320 l 1309 1319 l 1309 1389 m 2344 1250 l 2413 1250 l 2413 1181 l 2344 1181 l 2344 1250 m 2413 1250 l 2482 1250 l 2482 1181 l 2413 1181 l 2413 1250 m 2275 1320 l 2344 1319 l 2344 1250 l 2275 1250 l 2275 1320 m 343 207 l 412 207 l 412 138 l 343 138 l 343 207 m 412 348 l 481 348 l 486 276 l 412 278 l 412 348 m 1240 207 l 1309 207 l 1309 138 l 1240 138 l 1240 207 m 1240 276 l 1309 278 l 1309 207 l 1240 207 l 1240 276 m 1309 -139 l 1378 -139 l 1378 -211 l 1309 -211 l 1309 -139 m 2068 -487 l 2137 -487 l 2137 -556 l 2068 -556 l 2068 -487 m 1309 -211 l 1378 -211 l 1378 -280 l 1309 -280 l 1309 -211 m 1999 -556 l 2083 -556 l 2068 -625 l 1999 -625 l 1999 -556 m 1723 -556 l 1792 -556 l 1792 -625 l 1736 -625 l 1723 -556 m 1930 -556 l 1999 -556 l 1999 -625 l 1930 -625 l 1930 -556 m 1792 -556 l 1861 -556 l 1861 -625 l 1792 -625 l 1792 -556 m 1861 -556 l 1930 -556 l 1930 -625 l 1861 -625 l 1861 -556 m 2137 1389 l 2206 1389 l 2206 1320 l 2137 1319 l 2137 1389 m 2068 1389 l 2137 1389 l 2137 1320 l 2083 1319 l 2068 1389 m 1792 1459 l 1861 1458 l 1861 1389 l 1792 1389 l 1792 1459 m 1930 1389 l 1999 1389 l 1999 1320 l 1930 1319 l 1930 1389 m 1654 1459 l 1723 1458 l 1723 1389 l 1654 1389 l 1654 1459 m 1723 1459 l 1792 1458 l 1792 1389 l 1736 1389 l 1723 1459 m -140 695 l -209 694 l -209 766 l -140 764 l -140 695 m -208 766 l -278 764 l -278 835 l -209 835 l -208 766 m -277 835 l -347 835 l -347 904 l -278 904 l -277 835 m 757 904 l 826 904 l 826 835 l 757 835 l 757 904 m 1447 1389 l 1516 1389 l 1516 1320 l 1447 1319 l 1447 1389 m 1378 1389 l 1447 1389 l 1447 1320 l 1378 1319 l 1378 1389 m 481 348 l 550 348 l 550 276 l 486 278 l 481 348 m 412 276 l 481 278 l 486 207 l 412 207 l 412 276 m 757 835 l 826 835 l 826 766 l 757 764 l 757 835 m 550 555 l 619 556 l 619 486 l 550 486 l 550 555 m 550 625 l 619 625 l 619 555 l 550 556 l 550 625 m 619 766 l 688 764 l 688 695 l 619 694 l 619 766 m 688 835 l 757 835 l 757 766 l 688 764 l 688 835 m 619 555 l 688 556 l 688 486 l 619 486 l 619 555 m 619 625 l 688 625 l 688 555 l 619 556 l 619 625 m 688 766 l 757 764 l 757 695 l 688 694 l 688 766 m 619 695 l 688 694 l 688 625 l 619 625 l 619 695 m 757 766 l 826 764 l 826 695 l 757 694 l 757 766 m 688 695 l 757 694 l 757 625 l 688 625 l 688 695 m 826 1042 l 895 1043 l 895 973 l 826 973 l 826 1042 m 826 973 l 895 973 l 895 904 l 826 904 l 826 973 m 826 904 l 895 904 l 895 835 l 826 835 l 826 904 m 895 1043 l 964 1042 l 972 973 l 895 973 l 895 1043 m 895 973 l 964 973 l 972 904 l 895 904 l 895 973 m 895 904 l 964 904 l 972 835 l 895 835 l 895 904 m 895 1112 l 964 1112 l 972 1043 l 895 1042 l 895 1112 m 688 904 l 757 904 l 757 835 l 688 835 l 688 904 m 343 276 l 412 278 l 412 207 l 343 207 l 343 276 m 481 555 l 550 556 l 550 486 l 486 486 l 481 555 m 550 695 l 619 694 l 619 625 l 550 625 l 550 695 m 619 835 l 688 835 l 688 766 l 619 764 l 619 835 m 826 835 l 895 835 l 895 766 l 826 764 l 826 835 m 1102 1250 l 1171 1250 l 1180 1181 l 1102 1181 l 1102 1250 m 1171 1250 l 1240 1250 l 1240 1181 l 1180 1181 l 1171 1250 m 1240 1320 l 1309 1319 l 1309 1250 l 1240 1250 l 1240 1320 m 1309 1320 l 1378 1319 l 1378 1250 l 1309 1250 l 1309 1320 m 1033 1112 l 1102 1112 l 1102 1043 l 1033 1042 l 1033 1112 m 1102 1181 l 1171 1181 l 1180 1112 l 1102 1112 l 1102 1181 m 1240 1250 l 1309 1250 l 1309 1181 l 1240 1181 l 1240 1250 m 1378 1320 l 1447 1319 l 1447 1250 l 1378 1250 l 1378 1320 m 343 348 l 412 348 l 412 276 l 343 278 l 343 348 m 481 625 l 550 625 l 550 555 l 486 556 l 481 625 m 550 766 l 619 764 l 619 695 l 550 694 l 550 766 m 1585 -487 l 1654 -487 l 1654 -556 l 1585 -556 l 1585 -487 m 1654 -487 l 1723 -487 l 1736 -556 l 1654 -556 l 1654 -487 m 1447 -418 l 1516 -418 l 1516 -487 l 1447 -487 l 1447 -418 m 1516 -418 l 1585 -418 l 1585 -487 l 1516 -487 l 1516 -418 m 1378 -280 l 1447 -280 l 1447 -349 l 1378 -349 l 1378 -280 m 1378 -349 l 1447 -349 l 1447 -418 l 1378 -418 l 1378 -349 m 1240 69 l 1309 69 l 1309 0 l 1240 -1 l 1240 69 m 1240 138 l 1309 138 l 1309 69 l 1240 69 l 1240 138 m 412 207 l 481 207 l 486 138 l 412 138 l 412 207 m 412 138 l 481 138 l 486 69 l 412 69 l 412 138 m 412 69 l 481 69 l 486 0 l 412 -1 l 412 69 m 1999 1389 l 2068 1389 l 2083 1320 l 1999 1319 l 1999 1389 m -209 1389 l -278 1389 l -277 1459 l -208 1458 l -209 1389 m 1861 1459 l 1930 1458 l 1930 1389 l 1861 1389 l 1861 1459 m -278 904 l -347 904 l -347 973 l -277 973 l -278 904 m 412 695 l 343 694 l 343 766 l 412 764 l 412 695 m 481 695 l 412 694 l 412 764 l 486 766 l 481 695 m 550 766 l 481 764 l 486 835 l 550 835 l 550 766 m -140 1459 l -209 1458 l -208 1529 l -140 1528 l -140 1459 m 274 625 l 205 625 l 205 695 l 274 694 l 274 625 m 205 625 l 136 625 l 136 695 l 205 694 l 205 625 m 136 625 l 67 625 l 67 695 l 136 694 l 136 625 m 67 625 l -2 625 l -2 695 l 69 694 l 67 625 m -71 1459 l -140 1458 l -140 1528 l -71 1529 l -71 1459 m -2 1529 l -71 1528 l -71 1598 l -2 1598 l -2 1529 m 136 1598 l 67 1598 l 69 1667 l 136 1667 l 136 1598 m 826 1529 l 757 1528 l 757 1598 l 826 1598 l 826 1529 m 895 1529 l 826 1528 l 826 1598 l 895 1598 l 895 1529 m 205 1598 l 136 1598 l 136 1667 l 205 1667 l 205 1598 m 688 1598 l 619 1598 l 619 1667 l 688 1667 l 688 1598 m 757 1598 l 688 1598 l 688 1667 l 757 1667 l 757 1598 m 67 1529 l -2 1528 l -2 1598 l 69 1598 l 67 1529 m 964 1459 l 895 1458 l 895 1529 l 972 1528 l 964 1459 m 619 1598 l 550 1598 l 550 1667 l 619 1667 l 619 1598 m 274 1598 l 205 1598 l 205 1667 l 274 1667 l 274 1598 m -347 1043 l -416 1042 l -416 1112 l -347 1112 l -347 1043 m -347 973 l -416 973 l -416 1043 l -347 1042 l -347 973 m 619 766 l 550 764 l 550 835 l 619 835 l 619 766 m 1585 904 l 1654 904 l 1654 835 l 1585 835 l 1585 904 m 1516 973 l 1585 973 l 1585 904 l 1516 904 l 1516 973 m 2275 -349 l 2344 -349 l 2344 -418 l 2275 -418 l 2275 -349 m 2206 -418 l 2275 -418 l 2275 -487 l 2206 -487 l 2206 -418 m 1240 0 l 1309 -1 l 1309 -70 l 1240 -70 l 1240 0 m 1240 -70 l 1309 -70 l 1309 -139 l 1240 -139 l 1240 -70 m 412 1598 l 343 1598 l 343 1667 l 412 1667 l 412 1598 m 481 1598 l 412 1598 l 412 1667 l 486 1667 l 481 1598 m 343 1598 l 274 1598 l 274 1667 l 343 1667 l 343 1598 m 550 1598 l 481 1598 l 486 1667 l 550 1667 l 550 1598 m -347 1181 l -416 1181 l -416 1250 l -347 1250 l -347 1181 m -278 1320 l -347 1319 l -347 1389 l -277 1389 l -278 1320 m -278 1250 l -347 1250 l -347 1320 l -277 1319 l -278 1250 m -347 1112 l -416 1112 l -416 1181 l -347 1181 l -347 1112 m 2137 -487 l 2206 -487 l 2206 -556 l 2137 -556 l 2137 -487 m 2344 -280 l 2413 -280 l 2413 -349 l 2344 -349 l 2344 -280 m 2344 -211 l 2413 -211 l 2413 -280 l 2344 -280 l 2344 -211 m 1033 1459 l 964 1459 l 972 1529 l 1033 1528 l 1033 1459 m 1102 1320 l 1033 1320 l 1033 1389 l 1102 1389 l 1102 1320 m 1240 1112 l 1171 1112 l 1180 1181 l 1240 1181 l 1240 1112 m 1240 1043 l 1171 1042 l 1180 1112 l 1240 1112 l 1240 1043 m 1102 1389 l 1033 1389 l 1033 1459 l 1102 1458 l 1102 1389 m 1240 973 l 1171 973 l 1180 1043 l 1240 1042 l 1240 973 m 1240 904 l 1171 904 l 1180 973 l 1240 973 l 1240 904 m 1171 835 l 1102 835 l 1102 904 l 1180 904 l 1171 835 m 1171 766 l 1102 764 l 1102 835 l 1180 835 l 1171 766 m 1102 695 l 1033 694 l 1033 766 l 1102 764 l 1102 695 m 1102 207 l 1171 207 l 1180 138 l 1102 138 l 1102 207 m 550 486 l 619 486 l 619 417 l 550 417 l 550 486 m 481 486 l 550 486 l 550 417 l 486 417 l 481 486 m 1033 138 l 1102 138 l 1102 69 l 1033 69 l 1033 138 m 481 417 l 550 417 l 550 348 l 486 348 l 481 417 m 412 417 l 481 417 l 486 348 l 412 348 l 412 417 m 412 486 l 481 486 l 486 417 l 412 417 l 412 486 m 964 1043 l 1033 1042 l 1033 973 l 972 973 l 964 1043 m 964 1112 l 1033 1112 l 1033 1043 l 972 1042 l 964 1112 m 1171 1250 l 1102 1250 l 1102 1320 l 1180 1319 l 1171 1250 m 964 1181 l 1033 1181 l 1033 1112 l 972 1112 l 964 1181 m 964 973 l 1033 973 l 1033 904 l 972 904 l 964 973 m 1033 1043 l 1102 1042 l 1102 973 l 1033 973 l 1033 1043 m 1102 1112 l 1171 1112 l 1180 1043 l 1102 1042 l 1102 1112 m 1516 1389 l 1585 1389 l 1585 1320 l 1516 1319 l 1516 1389 m 1667 1528 l 1597 1528 l 1597 1597 l 1667 1597 l 1667 1528 m 1528 1597 l 1458 1597 l 1458 1666 l 1528 1666 l 1528 1597 m 1458 1528 l 1389 1528 l 1389 1597 l 1458 1597 l 1458 1528 m 1736 1597 l 1667 1597 l 1667 1666 l 1736 1666 l 1736 1597 m 1597 1528 l 1528 1528 l 1528 1597 l 1597 1597 l 1597 1528 "},"J":{"x_min":-347,"x_max":1875.15625,"ha":1528,"o":"m 1171 625 l 1240 625 l 1240 556 l 1171 555 l 1171 625 m -2 904 l 67 904 l 67 835 l -2 833 l -2 904 m 1378 1598 l 1447 1597 l 1447 1528 l 1378 1528 l 1378 1598 m -71 764 l -2 764 l -2 695 l -71 694 l -71 764 m 1378 1667 l 1447 1667 l 1458 1598 l 1378 1598 l 1378 1667 m 1171 486 l 1240 486 l 1240 417 l 1171 417 l 1171 486 m 1240 625 l 1309 625 l 1319 556 l 1240 555 l 1240 625 m 1240 764 l 1309 764 l 1309 695 l 1240 694 l 1240 764 m 1240 835 l 1309 833 l 1319 764 l 1240 764 l 1240 835 m -71 625 l -2 625 l -2 556 l -71 555 l -71 625 m -2 835 l 67 833 l 67 764 l -2 764 l -2 835 m 1102 1736 l 1171 1736 l 1171 1667 l 1102 1667 l 1102 1736 m 1033 1736 l 1102 1736 l 1102 1667 l 1033 1667 l 1033 1736 m 67 973 l 136 973 l 136 904 l 67 904 l 67 973 m 757 1598 l 826 1598 l 826 1528 l 757 1528 l 757 1598 m 895 1667 l 964 1667 l 964 1598 l 895 1598 l 895 1667 m 67 1042 l 136 1043 l 136 973 l 67 973 l 67 1042 m -71 -139 l -2 -140 l -2 -209 l -71 -209 l -71 -139 m -71 695 l -2 694 l -2 625 l -71 625 l -71 695 m 205 1181 l 274 1181 l 274 1112 l 205 1112 l 205 1181 m 1240 1736 l 1309 1736 l 1319 1667 l 1240 1667 l 1240 1736 m 1171 1736 l 1240 1736 l 1240 1667 l 1171 1667 l 1171 1736 m 1447 1459 l 1516 1458 l 1516 1389 l 1458 1389 l 1447 1459 m 1447 1389 l 1516 1389 l 1516 1320 l 1458 1319 l 1447 1389 m 136 1112 l 205 1112 l 205 1043 l 136 1042 l 136 1112 m -140 417 l -71 417 l -71 348 l -140 348 l -140 417 m -140 486 l -71 486 l -71 417 l -140 417 l -140 486 m -140 279 l -71 276 l -71 207 l -140 207 l -140 279 m -140 348 l -71 348 l -71 276 l -140 279 l -140 348 m -140 207 l -71 207 l -71 138 l -140 138 l -140 207 m -140 138 l -71 138 l -71 69 l -140 69 l -140 138 m -71 0 l -2 -1 l -2 -70 l -71 -70 l -71 0 m -140 69 l -71 69 l -71 0 l -140 -1 l -140 69 m 550 -487 l 619 -487 l 625 -556 l 550 -557 l 550 -487 m 826 -626 l 895 -626 l 902 -695 l 826 -695 l 826 -626 m 895 -626 l 964 -626 l 964 -695 l 902 -695 l 895 -626 m 964 -626 l 1033 -626 l 1041 -695 l 964 -695 l 964 -626 m 1033 -626 l 1102 -626 l 1102 -695 l 1041 -695 l 1033 -626 m 1171 -626 l 1240 -626 l 1240 -695 l 1171 -695 l 1171 -626 m 1240 -556 l 1309 -557 l 1319 -626 l 1240 -626 l 1240 -556 m 1309 -556 l 1378 -557 l 1378 -626 l 1319 -626 l 1309 -556 m 1378 -556 l 1447 -557 l 1458 -626 l 1378 -626 l 1378 -556 m 1309 904 l 1378 904 l 1378 835 l 1319 833 l 1309 904 m 1309 835 l 1378 833 l 1378 764 l 1319 764 l 1309 835 m 1378 973 l 1447 973 l 1458 904 l 1378 904 l 1378 973 m 1378 1043 l 1447 1042 l 1458 973 l 1378 973 l 1378 1043 m 1447 1112 l 1516 1112 l 1516 1043 l 1458 1042 l 1447 1112 m 1447 1181 l 1516 1181 l 1516 1112 l 1458 1112 l 1447 1181 m 1378 1112 l 1447 1112 l 1458 1043 l 1378 1042 l 1378 1112 m 1447 1250 l 1516 1250 l 1516 1181 l 1458 1181 l 1447 1250 m 1447 1320 l 1516 1319 l 1516 1250 l 1458 1250 l 1447 1320 m 550 -209 l 619 -209 l 625 -278 l 550 -280 l 550 -209 m 274 -626 l 343 -626 l 343 -695 l 274 -695 l 274 -626 m 205 -695 l 274 -695 l 274 -764 l 205 -764 l 205 -695 m 412 -418 l 481 -418 l 481 -487 l 412 -487 l 412 -418 m 481 -418 l 550 -418 l 550 -487 l 481 -487 l 481 -418 m 343 -556 l 412 -557 l 412 -626 l 343 -626 l 343 -556 m 412 -556 l 481 -557 l 481 -626 l 412 -626 l 412 -556 m 550 -349 l 619 -349 l 619 -418 l 550 -418 l 550 -349 m 412 -487 l 481 -487 l 481 -556 l 412 -557 l 412 -487 m 481 -487 l 550 -487 l 550 -556 l 481 -557 l 481 -487 m 412 -349 l 481 -349 l 481 -418 l 412 -418 l 412 -349 m 481 -349 l 550 -349 l 550 -418 l 481 -418 l 481 -349 m -347 -695 l -278 -695 l -278 -764 l -347 -764 l -347 -695 m -278 -764 l -209 -764 l -209 -833 l -277 -833 l -278 -764 m -209 -764 l -140 -764 l -140 -833 l -209 -833 l -209 -764 m -140 -764 l -71 -764 l -71 -833 l -140 -833 l -140 -764 m -71 -764 l -2 -764 l -2 -833 l -71 -833 l -71 -764 m -2 -764 l 67 -764 l 67 -833 l -2 -833 l -2 -764 m 67 -695 l 136 -695 l 136 -764 l 67 -764 l 67 -695 m 136 -695 l 205 -695 l 205 -764 l 136 -764 l 136 -695 m 67 -764 l 136 -764 l 136 -833 l 67 -833 l 67 -764 m 205 -626 l 274 -626 l 274 -695 l 205 -695 l 205 -626 m 274 -556 l 343 -557 l 343 -626 l 274 -626 l 274 -556 m 343 -418 l 412 -418 l 412 -487 l 343 -487 l 343 -418 m 343 -487 l 412 -487 l 412 -556 l 343 -557 l 343 -487 m 481 -280 l 550 -278 l 550 -349 l 481 -349 l 481 -280 m 550 -280 l 619 -278 l 625 -349 l 550 -349 l 550 -280 m 619 -209 l 688 -209 l 688 -280 l 625 -278 l 619 -209 m -71 -695 l -2 -695 l -2 -764 l -71 -764 l -71 -695 m -2 -695 l 67 -695 l 67 -764 l -2 -764 l -2 -695 m 67 -626 l 136 -626 l 136 -695 l 67 -695 l 67 -626 m 136 -626 l 205 -626 l 205 -695 l 136 -695 l 136 -626 m 205 -556 l 274 -557 l 274 -626 l 205 -626 l 205 -556 m 274 -487 l 343 -487 l 343 -556 l 274 -557 l 274 -487 m 619 -280 l 688 -278 l 688 -349 l 625 -349 l 619 -280 m 550 -418 l 619 -418 l 625 -487 l 550 -487 l 550 -418 m 688 -209 l 757 -209 l 757 -280 l 688 -278 l 688 -209 m 688 -280 l 757 -278 l 757 -349 l 688 -349 l 688 -280 m 619 -349 l 688 -349 l 688 -418 l 619 -418 l 619 -349 m 1171 556 l 1240 555 l 1240 486 l 1171 486 l 1171 556 m 1102 417 l 1171 417 l 1171 348 l 1102 348 l 1102 417 m 1102 486 l 1171 486 l 1171 417 l 1102 417 l 1102 486 m 964 207 l 1033 207 l 1041 138 l 964 138 l 964 207 m 757 -70 l 826 -69 l 826 -140 l 757 -139 l 757 -70 m 688 -70 l 757 -69 l 757 -140 l 688 -139 l 688 -70 m 826 0 l 895 -1 l 902 -70 l 826 -69 l 826 0 m 895 69 l 964 69 l 964 0 l 902 -1 l 895 69 m 757 0 l 826 -1 l 826 -70 l 757 -69 l 757 0 m 826 69 l 895 69 l 902 0 l 826 -1 l 826 69 m 688 -140 l 757 -139 l 757 -209 l 688 -209 l 688 -140 m 619 -140 l 688 -139 l 688 -209 l 625 -209 l 619 -140 m 757 -140 l 826 -139 l 826 -209 l 757 -209 l 757 -140 m 826 -70 l 895 -69 l 902 -140 l 826 -139 l 826 -70 m 895 138 l 964 138 l 964 69 l 902 69 l 895 138 m 757 -209 l 826 -209 l 826 -280 l 757 -278 l 757 -209 m 1240 695 l 1309 694 l 1319 625 l 1240 625 l 1240 695 m 1309 764 l 1378 764 l 1378 695 l 1309 694 l 1309 764 m 964 138 l 1033 138 l 1041 69 l 964 69 l 964 138 m 895 0 l 964 -1 l 964 -70 l 902 -69 l 895 0 m -2 -209 l 67 -209 l 67 -280 l -2 -278 l -2 -209 m 343 -626 l 412 -626 l 412 -695 l 343 -695 l 343 -626 m 274 1250 l 343 1250 l 343 1181 l 274 1181 l 274 1250 m 343 1320 l 412 1319 l 412 1250 l 343 1250 l 343 1320 m 412 1389 l 481 1389 l 481 1320 l 412 1319 l 412 1389 m 481 1459 l 550 1458 l 550 1389 l 481 1389 l 481 1459 m 550 1528 l 619 1528 l 625 1459 l 550 1458 l 550 1528 m 826 1667 l 895 1667 l 902 1598 l 826 1598 l 826 1667 m 688 1598 l 757 1598 l 757 1528 l 688 1528 l 688 1598 m 619 1528 l 688 1528 l 688 1459 l 625 1458 l 619 1528 m 1309 1736 l 1378 1736 l 1378 1667 l 1319 1667 l 1309 1736 m 1447 1528 l 1516 1528 l 1516 1459 l 1458 1458 l 1447 1528 m -347 -626 l -278 -626 l -277 -695 l -347 -695 l -347 -626 m -347 -556 l -278 -557 l -277 -626 l -347 -626 l -347 -556 m -278 -487 l -209 -487 l -209 -556 l -277 -557 l -278 -487 m -71 -70 l -2 -69 l -2 -140 l -71 -139 l -71 -70 m -2 -280 l 67 -278 l 67 -349 l -2 -349 l -2 -280 m 67 -280 l 136 -278 l 136 -349 l 67 -349 l 67 -280 m 136 -209 l 205 -209 l 205 -280 l 136 -278 l 136 -209 m 205 -209 l 274 -209 l 274 -280 l 205 -278 l 205 -209 m 274 -140 l 343 -139 l 343 -209 l 274 -209 l 274 -140 m 343 -140 l 412 -139 l 412 -209 l 343 -209 l 343 -140 m 412 -70 l 481 -69 l 481 -140 l 412 -139 l 412 -70 m 619 0 l 688 -1 l 688 -70 l 625 -69 l 619 0 m 550 -70 l 619 -69 l 625 -140 l 550 -139 l 550 -70 m 688 0 l 757 -1 l 757 -70 l 688 -69 l 688 0 m -209 -418 l -140 -418 l -140 -487 l -209 -487 l -209 -418 m 1033 276 l 1102 279 l 1102 207 l 1041 207 l 1033 276 m 1102 348 l 1171 348 l 1171 276 l 1102 279 l 1102 348 m 1033 348 l 1102 348 l 1102 276 l 1041 279 l 1033 348 m 1033 207 l 1102 207 l 1102 138 l 1041 138 l 1033 207 m 964 69 l 1033 69 l 1041 0 l 964 -1 l 964 69 m 826 -140 l 895 -139 l 902 -209 l 826 -209 l 826 -140 m 964 276 l 1033 279 l 1041 207 l 964 207 l 964 276 m 205 -349 l 274 -349 l 274 -418 l 205 -418 l 205 -349 m 205 -487 l 274 -487 l 274 -556 l 205 -557 l 205 -487 m 136 -349 l 205 -349 l 205 -418 l 136 -418 l 136 -349 m -71 -349 l -2 -349 l -2 -418 l -71 -418 l -71 -349 m -140 -349 l -71 -349 l -71 -418 l -140 -418 l -140 -349 m 481 -70 l 550 -69 l 550 -140 l 481 -139 l 481 -70 m 688 -556 l 757 -557 l 757 -626 l 688 -626 l 688 -556 m 1033 69 l 1102 69 l 1102 0 l 1041 -1 l 1033 69 m 1171 138 l 1240 138 l 1240 69 l 1171 69 l 1171 138 m 1240 207 l 1309 207 l 1319 138 l 1240 138 l 1240 207 m 1309 207 l 1378 207 l 1378 138 l 1319 138 l 1309 207 m -140 556 l -71 555 l -71 486 l -140 486 l -140 556 m 1309 973 l 1378 973 l 1378 904 l 1319 904 l 1309 973 m 1447 -487 l 1516 -487 l 1516 -556 l 1458 -557 l 1447 -487 m 1516 -487 l 1585 -487 l 1585 -556 l 1516 -557 l 1516 -487 m 1597 -418 l 1666 -418 l 1666 -487 l 1597 -487 l 1597 -418 m 1666 -349 l 1736 -349 l 1736 -418 l 1666 -418 l 1666 -349 m 1736 -280 l 1805 -278 l 1805 -349 l 1736 -349 l 1736 -280 m 274 -418 l 343 -418 l 343 -487 l 274 -487 l 274 -418 m 1102 -626 l 1171 -626 l 1171 -695 l 1102 -695 l 1102 -626 m 619 -556 l 688 -557 l 688 -626 l 625 -626 l 619 -556 m 1805 -209 l 1875 -209 l 1875 -280 l 1805 -278 l 1805 -209 m 964 1736 l 1033 1736 l 1041 1667 l 964 1667 l 964 1736 m 757 -626 l 826 -626 l 826 -695 l 757 -695 l 757 -626 m 1102 138 l 1171 138 l 1171 69 l 1102 69 l 1102 138 m 1378 276 l 1447 279 l 1458 207 l 1378 207 l 1378 276 m 1447 276 l 1516 279 l 1516 207 l 1458 207 l 1447 276 "},"»":{"x_min":0,"x_max":694.5,"ha":695,"o":"m 138 279 l 207 278 l 207 209 l 138 209 l 138 279 m 207 348 l 276 348 l 276 279 l 207 278 l 207 348 m 138 417 l 207 417 l 207 348 l 138 348 l 138 417 m 69 140 l 138 138 l 138 69 l 69 69 l 69 140 m 276 140 l 345 138 l 345 69 l 276 69 l 276 140 m 138 69 l 207 69 l 207 0 l 138 -1 l 138 69 m 207 69 l 276 69 l 276 0 l 207 -1 l 207 69 m 414 279 l 483 278 l 483 209 l 414 209 l 414 279 m 414 348 l 483 348 l 483 279 l 414 278 l 414 348 m 483 417 l 552 417 l 552 348 l 483 348 l 483 417 m 345 209 l 414 209 l 414 140 l 345 138 l 345 209 m 345 140 l 414 138 l 414 69 l 345 69 l 345 140 m 0 279 l 69 278 l 69 209 l 0 209 l 0 279 m 69 209 l 138 209 l 138 140 l 69 138 l 69 209 m 69 348 l 138 348 l 138 279 l 69 278 l 69 348 m 207 417 l 276 417 l 276 348 l 207 348 l 207 417 m 552 140 l 621 138 l 621 69 l 552 69 l 552 140 m 625 209 l 694 209 l 694 140 l 625 138 l 625 209 m 414 0 l 483 -1 l 483 -70 l 414 -70 l 414 0 m 345 -70 l 414 -69 l 414 -139 l 345 -139 l 345 -70 m 483 69 l 552 69 l 552 0 l 483 -1 l 483 69 m 276 0 l 345 -1 l 345 -70 l 276 -69 l 276 0 m 345 69 l 414 69 l 414 0 l 345 -1 l 345 69 m 207 -70 l 276 -69 l 276 -139 l 207 -139 l 207 -70 m 276 -70 l 345 -69 l 345 -139 l 276 -139 l 276 -70 m 207 -139 l 276 -139 l 276 -209 l 207 -209 l 207 -139 m 138 -209 l 207 -209 l 207 -278 l 138 -278 l 138 -209 m 138 -347 l 207 -348 l 207 -417 l 138 -417 l 138 -347 m 69 -417 l 138 -416 l 138 -486 l 69 -486 l 69 -417 m 0 -417 l 69 -416 l 69 -486 l 0 -486 l 0 -417 m 138 -417 l 207 -416 l 207 -486 l 138 -486 l 138 -417 m 69 -348 l 138 -347 l 138 -417 l 69 -416 l 69 -348 m 207 -209 l 276 -209 l 276 -278 l 207 -277 l 207 -209 m 138 -278 l 207 -277 l 207 -348 l 138 -347 l 138 -278 m 207 -278 l 276 -277 l 276 -348 l 207 -347 l 207 -278 "},"©":{"x_min":70,"x_max":622,"ha":764,"o":"m 208 487 l 277 486 l 277 417 l 208 417 l 208 487 m 70 487 l 139 486 l 139 417 l 70 417 l 70 487 m 70 556 l 139 556 l 139 487 l 70 486 l 70 556 m 70 348 l 139 348 l 139 277 l 70 277 l 70 348 m 208 694 l 277 694 l 277 625 l 208 625 l 208 694 m 139 625 l 208 625 l 208 556 l 139 556 l 139 625 m 346 694 l 415 694 l 415 625 l 346 625 l 346 694 m 415 694 l 484 694 l 484 625 l 415 625 l 415 694 m 484 625 l 553 625 l 553 556 l 486 556 l 484 625 m 553 556 l 622 556 l 622 487 l 555 486 l 553 556 m 553 487 l 622 486 l 622 417 l 555 417 l 553 487 m 553 348 l 622 348 l 622 277 l 555 277 l 553 348 m 484 277 l 553 277 l 555 208 l 486 208 l 484 277 m 415 208 l 484 208 l 486 139 l 415 139 l 415 208 m 346 208 l 415 208 l 415 139 l 346 139 l 346 208 m 208 208 l 277 208 l 277 139 l 208 139 l 208 208 m 139 277 l 208 277 l 208 208 l 139 208 l 139 277 m 346 556 l 415 556 l 415 487 l 346 486 l 346 556 m 346 348 l 415 348 l 415 277 l 346 277 l 346 348 m 208 417 l 277 417 l 277 348 l 208 348 l 208 417 m 277 694 l 346 694 l 346 625 l 277 625 l 277 694 m 277 208 l 346 208 l 346 139 l 277 139 l 277 208 m 70 417 l 139 417 l 139 348 l 70 348 l 70 417 m 553 417 l 622 417 l 622 348 l 555 348 l 553 417 m 277 556 l 346 556 l 346 487 l 277 486 l 277 556 m 277 348 l 346 348 l 346 277 l 277 277 l 277 348 "},"˘":{"x_min":69.453125,"x_max":347.25,"ha":417,"o":"m 69 694 l 138 694 l 138 625 l 69 625 l 69 694 m 138 625 l 208 625 l 208 556 l 138 556 l 138 625 m 277 694 l 347 694 l 347 625 l 277 625 l 277 694 m 208 625 l 277 625 l 277 556 l 208 556 l 208 625 "},"ò":{"x_min":0,"x_max":625.046875,"ha":625,"o":"m 414 279 l 483 276 l 483 207 l 414 207 l 414 279 m 0 207 l 69 207 l 69 138 l 0 138 l 0 207 m 0 138 l 69 138 l 69 69 l 0 69 l 0 138 m 138 69 l 207 69 l 207 0 l 138 0 l 138 69 m 138 348 l 207 348 l 207 279 l 138 276 l 138 348 m 276 138 l 345 138 l 345 69 l 276 69 l 276 138 m 414 348 l 483 348 l 483 279 l 414 276 l 414 348 m 555 207 l 625 207 l 625 138 l 555 138 l 555 207 m 345 417 l 414 417 l 414 348 l 345 348 l 345 417 m 483 138 l 552 138 l 552 69 l 483 69 l 483 138 m 69 279 l 138 276 l 138 207 l 69 207 l 69 279 m 345 207 l 414 207 l 414 138 l 345 138 l 345 207 m 207 417 l 276 417 l 277 348 l 207 348 l 207 417 m 207 69 l 276 69 l 277 0 l 207 0 l 207 69 m 276 279 l 345 276 l 345 207 l 277 207 l 276 279 m 69 69 l 138 69 l 138 0 l 69 0 l 69 69 m 276 417 l 345 417 l 345 348 l 277 348 l 276 417 m 276 348 l 345 348 l 345 279 l 277 276 l 276 348 m 414 138 l 483 138 l 483 69 l 414 69 l 414 138 m 416 556 l 347 556 l 347 625 l 416 625 l 416 556 m 347 625 l 277 625 l 277 694 l 347 694 l 347 625 m 277 625 l 208 625 l 208 694 l 277 694 l 277 625 "},"^":{"x_min":-833.40625,"x_max":1805.703125,"ha":1528,"o":"m 1240 625 l 1309 625 l 1309 556 l 1240 555 l 1240 625 m -140 834 l -71 834 l -71 765 l -140 765 l -140 834 m -140 765 l -71 765 l -71 696 l -140 694 l -140 765 m -209 625 l -140 625 l -140 556 l -209 555 l -209 625 m 1240 1598 l 1309 1597 l 1309 1528 l 1240 1528 l 1240 1598 m 1240 486 l 1309 486 l 1309 417 l 1240 417 l 1240 486 m 1309 625 l 1378 625 l 1389 556 l 1309 555 l 1309 625 m 1309 765 l 1378 765 l 1378 696 l 1309 694 l 1309 765 m -209 486 l -140 486 l -140 417 l -209 417 l -209 486 m -209 696 l -140 694 l -140 625 l -209 625 l -209 696 m 1102 1667 l 1171 1667 l 1171 1598 l 1102 1598 l 1102 1667 m -71 903 l -2 903 l -2 834 l -71 834 l -71 903 m 619 1528 l 688 1528 l 688 1459 l 619 1459 l 619 1528 m 1033 1667 l 1102 1667 l 1102 1598 l 1033 1598 l 1033 1667 m -71 972 l -2 974 l -2 903 l -71 903 l -71 972 m -209 556 l -140 555 l -140 486 l -209 486 l -209 556 m 67 1112 l 136 1112 l 136 1043 l 67 1043 l 67 1112 m 1171 1598 l 1240 1598 l 1240 1528 l 1180 1528 l 1171 1598 m 1378 1459 l 1447 1458 l 1458 1389 l 1389 1389 l 1378 1459 m 1378 1389 l 1447 1389 l 1447 1320 l 1389 1319 l 1378 1389 m 1447 1320 l 1516 1319 l 1516 1250 l 1458 1250 l 1447 1320 m -2 1043 l 67 1043 l 67 974 l -2 972 l -2 1043 m -209 348 l -140 348 l -140 278 l -209 278 l -209 348 m 1378 903 l 1447 903 l 1458 834 l 1389 834 l 1378 903 m 1378 834 l 1447 834 l 1458 765 l 1389 765 l 1378 834 m 1447 974 l 1516 972 l 1516 903 l 1458 903 l 1447 974 m 1447 1043 l 1516 1043 l 1516 974 l 1458 972 l 1447 1043 m 1447 1181 l 1516 1181 l 1516 1112 l 1458 1112 l 1447 1181 m 1447 1250 l 1516 1250 l 1516 1181 l 1458 1181 l 1447 1250 m 619 -209 l 688 -209 l 688 -278 l 619 -278 l 619 -209 m 343 -625 l 412 -625 l 412 -694 l 343 -695 l 343 -625 m 274 -695 l 347 -694 l 343 -764 l 274 -764 l 274 -695 m 481 -416 l 550 -418 l 550 -487 l 481 -487 l 481 -416 m 550 -418 l 619 -416 l 619 -487 l 550 -487 l 550 -418 m 412 -556 l 481 -556 l 481 -625 l 412 -625 l 412 -556 m 481 -556 l 550 -556 l 550 -625 l 481 -625 l 481 -556 m 619 -347 l 688 -347 l 688 -418 l 619 -416 l 619 -347 m 481 -487 l 550 -487 l 550 -556 l 481 -556 l 481 -487 m 550 -487 l 619 -487 l 619 -556 l 550 -556 l 550 -487 m 481 -347 l 550 -347 l 550 -418 l 481 -418 l 481 -347 m 550 -347 l 619 -347 l 619 -418 l 550 -416 l 550 -347 m -278 -695 l -209 -694 l -209 -764 l -278 -764 l -278 -695 m -209 -764 l -140 -764 l -140 -833 l -209 -833 l -209 -764 m -140 -764 l -71 -764 l -71 -833 l -140 -833 l -140 -764 m -71 -764 l -2 -764 l -2 -833 l -71 -833 l -71 -764 m -2 -764 l 67 -764 l 67 -833 l -2 -833 l -2 -764 m 67 -764 l 136 -764 l 136 -833 l 67 -833 l 67 -764 m 136 -695 l 205 -694 l 205 -764 l 136 -764 l 136 -695 m 205 -695 l 274 -694 l 274 -764 l 205 -764 l 205 -695 m 136 -764 l 205 -764 l 205 -833 l 136 -833 l 136 -764 m 274 -625 l 343 -625 l 347 -695 l 274 -694 l 274 -625 m 343 -556 l 412 -556 l 412 -625 l 347 -625 l 343 -556 m 412 -418 l 481 -416 l 481 -487 l 412 -487 l 412 -418 m 412 -487 l 481 -487 l 481 -556 l 412 -556 l 412 -487 m 550 -278 l 619 -278 l 619 -347 l 550 -347 l 550 -278 m 619 -278 l 688 -278 l 688 -347 l 619 -347 l 619 -278 m 688 -209 l 757 -208 l 757 -278 l 688 -278 l 688 -209 m -2 -695 l 67 -694 l 67 -764 l -2 -764 l -2 -695 m 67 -695 l 136 -694 l 136 -764 l 67 -764 l 67 -695 m 136 -625 l 205 -625 l 205 -695 l 136 -694 l 136 -625 m 205 -625 l 274 -625 l 274 -695 l 205 -694 l 205 -625 m 274 -556 l 343 -556 l 347 -625 l 274 -625 l 274 -556 m 343 -487 l 412 -487 l 412 -556 l 347 -556 l 343 -487 m 688 -278 l 757 -278 l 757 -347 l 688 -347 l 688 -278 m 619 -418 l 688 -416 l 688 -487 l 619 -487 l 619 -418 m 757 -209 l 826 -208 l 826 -278 l 757 -278 l 757 -209 m 757 -278 l 826 -278 l 826 -347 l 757 -347 l 757 -278 m 688 -347 l 757 -347 l 757 -418 l 688 -416 l 688 -347 m 1240 556 l 1309 555 l 1309 486 l 1240 486 l 1240 556 m 1171 417 l 1240 417 l 1240 348 l 1180 348 l 1171 417 m 1171 486 l 1240 486 l 1240 417 l 1180 417 l 1171 486 m 1033 209 l 1102 207 l 1102 138 l 1033 138 l 1033 209 m 826 -69 l 895 -71 l 895 -140 l 826 -140 l 826 -69 m 757 -71 l 826 -69 l 826 -140 l 757 -140 l 757 -71 m 895 0 l 964 0 l 964 -71 l 895 -69 l 895 0 m 964 69 l 1033 69 l 1033 0 l 964 0 l 964 69 m 826 0 l 895 0 l 895 -71 l 826 -71 l 826 0 m 895 69 l 964 69 l 972 0 l 895 0 l 895 69 m 757 -140 l 826 -140 l 826 -209 l 757 -208 l 757 -140 m 688 -140 l 757 -140 l 757 -209 l 688 -208 l 688 -140 m 826 -140 l 895 -140 l 895 -209 l 826 -208 l 826 -140 m 895 -71 l 964 -69 l 972 -140 l 895 -140 l 895 -71 m 964 138 l 1033 138 l 1033 69 l 972 69 l 964 138 m 826 -209 l 895 -208 l 895 -278 l 826 -278 l 826 -209 m 1309 696 l 1378 694 l 1389 625 l 1309 625 l 1309 696 m 1378 765 l 1458 765 l 1447 696 l 1378 694 l 1378 765 m 1033 138 l 1102 138 l 1102 69 l 1033 69 l 1033 138 m 964 0 l 1033 0 l 1033 -71 l 972 -69 l 964 0 m 412 -625 l 481 -625 l 481 -695 l 412 -694 l 412 -625 m 274 1320 l 343 1319 l 347 1250 l 274 1250 l 274 1320 m 343 1389 l 412 1389 l 412 1320 l 347 1319 l 343 1389 m 550 1528 l 619 1528 l 619 1459 l 550 1458 l 550 1528 m -347 -625 l -278 -625 l -278 -695 l -347 -694 l -347 -625 m -347 -556 l -278 -556 l -278 -625 l -347 -625 l -347 -556 m -347 -487 l -278 -487 l -278 -556 l -347 -556 l -347 -487 m 688 -71 l 757 -69 l 757 -140 l 688 -140 l 688 -71 m -278 -418 l -209 -416 l -209 -487 l -278 -487 l -278 -418 m 1102 278 l 1171 278 l 1180 207 l 1102 209 l 1102 278 m 1171 348 l 1240 348 l 1240 278 l 1180 278 l 1171 348 m 1102 348 l 1171 348 l 1180 278 l 1102 278 l 1102 348 m 1102 207 l 1171 209 l 1180 138 l 1102 138 l 1102 207 m 1033 69 l 1102 69 l 1102 0 l 1033 0 l 1033 69 m 1033 278 l 1102 278 l 1102 207 l 1033 207 l 1033 278 m -209 417 l -140 417 l -140 348 l -209 348 l -209 417 m -140 278 l -71 278 l -71 207 l -140 209 l -140 278 m -71 138 l -2 138 l -2 69 l -71 69 l -71 138 m -140 207 l -71 209 l -71 138 l -140 138 l -140 207 m -2 138 l 67 138 l 67 69 l -2 69 l -2 138 m 67 138 l 136 138 l 136 69 l 67 69 l 67 138 m 343 207 l 412 209 l 412 138 l 347 138 l 343 207 m 619 417 l 688 417 l 688 348 l 619 348 l 619 417 m 688 486 l 757 486 l 757 417 l 688 417 l 688 486 m 757 556 l 826 555 l 826 486 l 757 486 l 757 556 m 757 625 l 826 625 l 826 556 l 757 555 l 757 625 m 826 696 l 895 694 l 895 625 l 826 625 l 826 696 m 826 765 l 895 765 l 895 696 l 826 694 l 826 765 m 205 1250 l 274 1250 l 274 1181 l 205 1181 l 205 1250 m 136 1181 l 205 1181 l 205 1112 l 136 1112 l 136 1181 m 274 138 l 343 138 l 347 69 l 274 69 l 274 138 m 136 138 l 205 138 l 205 69 l 136 69 l 136 138 m 481 1667 l 550 1667 l 550 1598 l 481 1598 l 481 1667 m 964 1667 l 1033 1667 l 1033 1598 l 972 1598 l 964 1667 m 895 834 l 964 834 l 972 765 l 895 765 l 895 834 m 895 903 l 964 903 l 972 834 l 895 834 l 895 903 m 895 974 l 964 972 l 972 903 l 895 903 l 895 974 m 964 1043 l 1033 1043 l 1033 974 l 972 972 l 964 1043 m 964 1112 l 1033 1112 l 1033 1043 l 972 1043 l 964 1112 m 964 1181 l 1033 1181 l 1033 1112 l 972 1112 l 964 1181 m 964 1250 l 1033 1250 l 1033 1181 l 972 1181 l 964 1250 m 895 1389 l 964 1389 l 972 1320 l 895 1319 l 895 1389 m 412 1459 l 481 1458 l 481 1389 l 412 1389 l 412 1459 m 412 1667 l 481 1667 l 481 1598 l 412 1598 l 412 1667 m 481 1459 l 550 1458 l 550 1389 l 481 1389 l 481 1459 m 757 1598 l 826 1598 l 826 1528 l 757 1528 l 757 1598 m 688 1598 l 757 1598 l 757 1528 l 688 1528 l 688 1598 m 895 1667 l 964 1667 l 972 1598 l 895 1598 l 895 1667 m 826 1667 l 895 1667 l 895 1598 l 826 1598 l 826 1667 m 205 138 l 274 138 l 274 69 l 205 69 l 205 138 m 412 207 l 481 209 l 481 138 l 412 138 l 412 207 m 481 278 l 550 278 l 550 207 l 481 209 l 481 278 m 550 348 l 619 348 l 619 278 l 550 278 l 550 348 m 619 1667 l 688 1667 l 688 1598 l 619 1598 l 619 1667 m 550 1667 l 619 1667 l 619 1598 l 550 1598 l 550 1667 m 895 1459 l 964 1458 l 972 1389 l 895 1389 l 895 1459 m 826 1528 l 895 1528 l 895 1459 l 826 1458 l 826 1528 m 964 1320 l 1033 1319 l 1033 1250 l 972 1250 l 964 1320 m 343 1667 l 412 1667 l 412 1598 l 347 1598 l 343 1667 m 274 1667 l 343 1667 l 347 1598 l 274 1598 l 274 1667 m 205 1598 l 274 1598 l 274 1528 l 205 1528 l 205 1598 m 136 1598 l 205 1598 l 205 1528 l 136 1528 l 136 1598 m 1309 1528 l 1378 1528 l 1389 1459 l 1309 1458 l 1309 1528 m -625 1320 l -555 1319 l -555 1250 l -625 1250 l -625 1320 m -694 1320 l -625 1319 l -625 1250 l -694 1250 l -694 1320 m -763 1389 l -694 1389 l -694 1320 l -763 1319 l -763 1389 m -833 1459 l -763 1458 l -763 1389 l -833 1389 l -833 1459 m -416 1320 l -347 1319 l -347 1250 l -416 1250 l -416 1320 m -486 1320 l -416 1319 l -416 1250 l -486 1250 l -486 1320 m -555 1320 l -486 1319 l -486 1250 l -555 1250 l -555 1320 m -278 1389 l -209 1389 l -209 1320 l -278 1319 l -278 1389 m -347 1389 l -278 1389 l -278 1320 l -347 1319 l -347 1389 m -140 1459 l -71 1458 l -71 1389 l -140 1389 l -140 1459 m -209 1459 l -140 1458 l -140 1389 l -209 1389 l -209 1459 m -2 1528 l 67 1528 l 67 1459 l -2 1458 l -2 1528 m -71 1528 l -2 1528 l -2 1459 l -71 1458 l -71 1528 m 67 1598 l 136 1598 l 136 1528 l 67 1528 l 67 1598 m 1447 1112 l 1516 1112 l 1516 1043 l 1458 1043 l 1447 1112 m 1447 -209 l 1516 -208 l 1516 -278 l 1458 -278 l 1447 -209 m 1171 -140 l 1240 -140 l 1240 -209 l 1180 -208 l 1171 -140 m 1240 -140 l 1309 -140 l 1309 -209 l 1240 -208 l 1240 -140 m 1309 -140 l 1378 -140 l 1389 -209 l 1309 -208 l 1309 -140 m 1378 -209 l 1447 -208 l 1458 -278 l 1389 -278 l 1378 -209 m 1516 -209 l 1585 -208 l 1585 -278 l 1516 -278 l 1516 -209 m 1597 -278 l 1666 -278 l 1666 -347 l 1597 -347 l 1597 -278 m 1666 -278 l 1736 -278 l 1736 -347 l 1666 -347 l 1666 -278 m 1736 -347 l 1805 -347 l 1805 -418 l 1736 -416 l 1736 -347 m 619 -71 l 688 -69 l 688 -140 l 619 -140 l 619 -71 m -140 -278 l -71 -278 l -71 -347 l -140 -347 l -140 -278 m -71 -278 l -2 -278 l -2 -347 l -71 -347 l -71 -278 m -2 -209 l 67 -208 l 67 -278 l -2 -278 l -2 -209 m 67 -209 l 136 -208 l 136 -278 l 67 -278 l 67 -209 m 136 -140 l 205 -140 l 205 -209 l 136 -208 l 136 -140 m 205 -140 l 274 -140 l 274 -209 l 205 -208 l 205 -140 m 274 -140 l 343 -140 l 347 -209 l 274 -208 l 274 -140 m 481 -71 l 550 -69 l 550 -140 l 481 -140 l 481 -71 m 412 -71 l 481 -69 l 481 -140 l 412 -140 l 412 -71 m 550 -71 l 619 -69 l 619 -140 l 550 -140 l 550 -71 m 343 -71 l 412 -69 l 412 -140 l 347 -140 l 343 -71 m -209 -347 l -140 -347 l -140 -418 l -209 -416 l -209 -347 m 1033 -71 l 1102 -69 l 1102 -140 l 1033 -140 l 1033 -71 m 1102 -71 l 1171 -69 l 1180 -140 l 1102 -140 l 1102 -71 m 964 -71 l 1033 -69 l 1033 -140 l 972 -140 l 964 -71 m 895 -140 l 964 -140 l 972 -209 l 895 -208 l 895 -140 "},"«":{"x_min":-416.703125,"x_max":694.5,"ha":695,"o":"m 138 279 l 207 278 l 207 209 l 138 209 l 138 279 m 207 348 l 276 348 l 276 279 l 207 278 l 207 348 m 138 417 l 207 417 l 207 348 l 138 348 l 138 417 m 69 140 l 138 138 l 138 69 l 69 69 l 69 140 m 276 140 l 345 138 l 345 69 l 276 69 l 276 140 m 138 69 l 207 69 l 207 0 l 138 -1 l 138 69 m 207 69 l 276 69 l 276 0 l 207 -1 l 207 69 m 414 279 l 483 278 l 483 209 l 414 209 l 414 279 m 414 348 l 483 348 l 483 279 l 414 278 l 414 348 m 483 417 l 552 417 l 552 348 l 483 348 l 483 417 m 345 209 l 414 209 l 414 140 l 345 138 l 345 209 m 345 140 l 414 138 l 414 69 l 345 69 l 345 140 m 0 279 l 69 278 l 69 209 l 0 209 l 0 279 m 69 209 l 138 209 l 138 140 l 69 138 l 69 209 m 69 348 l 138 348 l 138 279 l 69 278 l 69 348 m 207 417 l 276 417 l 276 348 l 207 348 l 207 417 m 552 140 l 621 138 l 621 69 l 552 69 l 552 140 m 625 209 l 694 209 l 694 140 l 625 138 l 625 209 m 414 0 l 483 -1 l 483 -70 l 414 -70 l 414 0 m 345 -70 l 414 -69 l 414 -139 l 345 -139 l 345 -70 m 483 69 l 552 69 l 552 0 l 483 -1 l 483 69 m 276 0 l 345 -1 l 345 -70 l 276 -69 l 276 0 m 345 69 l 414 69 l 414 0 l 345 -1 l 345 69 m 276 -70 l 345 -69 l 345 -139 l 276 -139 l 276 -70 m 138 -278 l 207 -278 l 207 -347 l 138 -348 l 138 -278 m 69 -348 l 138 -347 l 138 -417 l 69 -417 l 69 -348 m -416 -278 l -347 -278 l -347 -348 l -416 -347 l -416 -278 m -347 -348 l -277 -347 l -277 -417 l -347 -417 l -347 -348 m 207 -208 l 276 -208 l 276 -278 l 207 -278 l 207 -208 m 207 -139 l 276 -139 l 276 -208 l 207 -208 l 207 -139 m -277 -417 l -208 -417 l -208 -486 l -277 -486 l -277 -417 m -208 -417 l -138 -417 l -138 -486 l -208 -486 l -208 -417 m -138 -417 l -69 -417 l -69 -486 l -138 -486 l -138 -417 m 0 -348 l 69 -347 l 69 -417 l 0 -417 l 0 -348 m -69 -417 l 0 -417 l 0 -486 l -69 -486 l -69 -417 "},"D":{"x_min":-416,"x_max":2500.203125,"ha":2292,"o":"m 1102 973 l 1171 972 l 1171 903 l 1102 903 l 1102 973 m 964 627 l 1033 627 l 1033 555 l 964 555 l 964 627 m 964 555 l 1033 555 l 1033 486 l 964 486 l 964 555 m -416 1042 l -347 1042 l -347 973 l -416 972 l -416 1042 m 826 348 l 895 345 l 895 276 l 826 276 l 826 348 m 895 417 l 964 417 l 964 348 l 895 348 l 895 417 m -416 903 l -347 903 l -347 834 l -416 834 l -416 903 m 1171 1042 l 1240 1042 l 1240 973 l 1171 972 l 1171 1042 m 274 138 l 343 138 l 343 69 l 274 69 l 274 138 m 274 69 l 343 69 l 343 0 l 274 0 l 274 69 m 412 0 l 481 0 l 481 -69 l 412 -69 l 412 0 m 550 69 l 619 69 l 619 0 l 550 0 l 550 69 m 757 207 l 826 207 l 826 138 l 757 138 l 757 207 m 826 276 l 895 276 l 895 207 l 826 207 l 826 276 m 895 486 l 964 486 l 964 417 l 895 417 l 895 486 m 1033 696 l 1102 696 l 1102 627 l 1033 627 l 1033 696 m 1102 903 l 1171 903 l 1171 834 l 1102 834 l 1102 903 m 1102 834 l 1171 834 l 1171 765 l 1102 765 l 1102 834 m 1033 765 l 1102 765 l 1102 696 l 1033 696 l 1033 765 m 412 555 l 481 555 l 481 486 l 412 486 l 412 555 m -278 696 l -209 696 l -209 627 l -278 627 l -278 696 m 964 903 l 1033 903 l 1033 834 l 964 834 l 964 903 m 895 834 l 964 834 l 964 765 l 895 765 l 895 834 m 757 696 l 826 696 l 826 627 l 757 627 l 757 696 m 826 765 l 895 765 l 895 696 l 826 696 l 826 765 m 619 627 l 688 627 l 688 555 l 619 555 l 619 627 m 688 696 l 757 696 l 757 627 l 688 627 l 688 696 m 550 627 l 619 627 l 619 555 l 555 555 l 550 627 m -416 973 l -347 972 l -347 903 l -416 903 l -416 973 m 67 555 l 136 555 l 136 486 l 67 486 l 67 555 m 136 1597 l 205 1597 l 205 1528 l 136 1528 l 136 1597 m 412 1597 l 481 1597 l 481 1528 l 412 1528 l 412 1597 m 619 1528 l 688 1528 l 688 1459 l 619 1459 l 619 1528 m 757 1528 l 826 1528 l 826 1459 l 757 1458 l 757 1528 m -347 1250 l -278 1250 l -278 1181 l -347 1180 l -347 1250 m -2 1528 l 67 1528 l 67 1459 l -2 1458 l -2 1528 m 67 1528 l 136 1528 l 136 1459 l 67 1458 l 67 1528 m -347 1319 l -278 1320 l -278 1250 l -347 1250 l -347 1319 m 826 1459 l 895 1458 l 895 1389 l 826 1389 l 826 1459 m 688 1528 l 757 1528 l 757 1459 l 688 1458 l 688 1528 m 481 555 l 550 555 l 555 486 l 481 486 l 481 555 m -71 555 l -2 555 l -2 486 l -71 486 l -71 555 m -2 555 l 67 555 l 67 486 l -2 486 l -2 555 m -140 627 l -71 627 l -71 555 l -140 555 l -140 627 m -347 765 l -278 765 l -278 696 l -347 696 l -347 765 m -140 1459 l -71 1458 l -71 1389 l -140 1389 l -140 1459 m -278 1389 l -209 1389 l -208 1320 l -278 1319 l -278 1389 m -209 1459 l -140 1458 l -140 1389 l -208 1389 l -209 1459 m -71 1528 l -2 1528 l -2 1459 l -71 1458 l -71 1528 m 1654 1389 l 1723 1389 l 1723 1320 l 1654 1319 l 1654 1389 m 2068 1597 l 2137 1597 l 2137 1528 l 2068 1528 l 2068 1597 m 1723 138 l 1792 138 l 1792 69 l 1723 69 l 1723 138 m 1585 69 l 1654 69 l 1654 0 l 1585 0 l 1585 69 m 1792 207 l 1861 207 l 1861 138 l 1792 138 l 1792 207 m 1999 417 l 2068 417 l 2068 348 l 1999 348 l 1999 417 m 1516 0 l 1597 0 l 1585 -69 l 1516 -69 l 1516 0 m 1447 0 l 1516 0 l 1516 -69 l 1447 -69 l 1447 0 m 1378 0 l 1447 0 l 1447 -69 l 1378 -69 l 1378 0 m 1309 0 l 1378 0 l 1378 -69 l 1309 -69 l 1309 0 m 1240 69 l 1309 69 l 1309 0 l 1250 0 l 1240 69 m 1171 69 l 1240 69 l 1250 0 l 1171 0 l 1171 69 m 1033 207 l 1102 207 l 1102 138 l 1033 138 l 1033 207 m 2361 -418 l 2430 -418 l 2430 -487 l 2361 -487 l 2361 -418 m 2206 -487 l 2275 -487 l 2275 -556 l 2206 -556 l 2206 -487 m 2275 -418 l 2344 -418 l 2344 -487 l 2275 -487 l 2275 -418 m 2068 -487 l 2137 -487 l 2152 -556 l 2068 -556 l 2068 -487 m 1516 -349 l 1585 -349 l 1597 -418 l 1516 -418 l 1516 -349 m 1447 -279 l 1516 -279 l 1516 -349 l 1447 -349 l 1447 -279 m 1723 -487 l 1792 -487 l 1792 -556 l 1723 -556 l 1723 -487 m 1585 -418 l 1654 -418 l 1654 -487 l 1597 -487 l 1585 -418 m 1654 -418 l 1723 -418 l 1723 -487 l 1654 -487 l 1654 -418 m 2068 627 l 2137 627 l 2152 555 l 2068 555 l 2068 627 m 1930 348 l 2014 348 l 1999 276 l 1930 276 l 1930 348 m 2068 555 l 2137 555 l 2152 486 l 2068 486 l 2068 555 m 1999 486 l 2068 486 l 2068 417 l 2014 417 l 1999 486 m 2206 1181 l 2275 1180 l 2275 1111 l 2206 1111 l 2206 1181 m 2206 1250 l 2275 1250 l 2275 1181 l 2206 1180 l 2206 1250 m 2206 1320 l 2275 1319 l 2275 1250 l 2206 1250 l 2206 1320 m 2206 1389 l 2275 1389 l 2275 1320 l 2206 1319 l 2206 1389 m 1930 1597 l 1999 1597 l 2014 1528 l 1930 1528 l 1930 1597 m 2206 1459 l 2275 1458 l 2275 1389 l 2206 1389 l 2206 1459 m 1999 1597 l 2068 1597 l 2068 1528 l 2014 1528 l 1999 1597 m 1171 1111 l 1240 1111 l 1250 1042 l 1171 1042 l 1171 1111 m 1654 1459 l 1723 1458 l 1723 1389 l 1654 1389 l 1654 1459 m 1930 1528 l 1999 1528 l 2014 1459 l 1930 1458 l 1930 1528 m 1654 69 l 1723 69 l 1723 0 l 1654 0 l 1654 69 m 1861 276 l 1930 276 l 1930 207 l 1861 207 l 1861 276 m 1171 1181 l 1240 1180 l 1250 1111 l 1171 1111 l 1171 1181 m 2137 696 l 2206 696 l 2206 627 l 2152 627 l 2137 696 m 895 1459 l 964 1458 l 964 1389 l 895 1389 l 895 1459 m 964 1389 l 1033 1389 l 1033 1320 l 964 1319 l 964 1389 m 2430 -349 l 2500 -349 l 2500 -418 l 2430 -418 l 2430 -349 m 1999 -487 l 2068 -487 l 2068 -556 l 2014 -556 l 1999 -487 m 1930 -487 l 1999 -487 l 2014 -556 l 1930 -556 l 1930 -487 m 1792 -487 l 1861 -487 l 1875 -556 l 1792 -556 l 1792 -487 m 2137 -487 l 2206 -487 l 2206 -556 l 2152 -556 l 2137 -487 m 1240 276 l 1309 276 l 1309 207 l 1250 207 l 1240 276 m 1240 486 l 1309 486 l 1309 417 l 1250 417 l 1240 486 m 1240 417 l 1309 417 l 1309 348 l 1250 348 l 1240 417 m 1240 348 l 1309 348 l 1309 276 l 1250 276 l 1240 348 m 895 348 l 964 348 l 964 276 l 895 276 l 895 348 m 343 0 l 412 0 l 412 -69 l 343 -69 l 343 0 m 481 0 l 550 0 l 555 -69 l 481 -69 l 481 0 m 343 207 l 412 207 l 412 138 l 343 138 l 343 207 m 412 276 l 481 276 l 481 207 l 412 207 l 412 276 m 550 348 l 619 348 l 619 276 l 555 276 l 550 348 m 688 138 l 757 138 l 757 69 l 688 69 l 688 138 m 619 69 l 688 69 l 688 0 l 619 0 l 619 69 m 481 276 l 550 276 l 555 207 l 481 207 l 481 276 m 619 348 l 688 348 l 688 276 l 619 276 l 619 348 m 688 348 l 757 348 l 757 276 l 688 276 l 688 348 m 757 348 l 826 348 l 826 276 l 757 276 l 757 348 m 964 276 l 1033 276 l 1033 207 l 964 207 l 964 276 m 1102 138 l 1171 138 l 1171 69 l 1102 69 l 1102 138 m 2137 834 l 2206 834 l 2206 765 l 2152 765 l 2137 834 m 2137 765 l 2206 765 l 2206 696 l 2152 696 l 2137 765 m 2206 1042 l 2275 1042 l 2275 973 l 2206 972 l 2206 1042 m 2206 973 l 2275 972 l 2275 903 l 2206 903 l 2206 973 m 2206 903 l 2275 903 l 2275 834 l 2206 834 l 2206 903 m 1516 1181 l 1585 1180 l 1597 1111 l 1516 1111 l 1516 1181 m 1516 1250 l 1585 1250 l 1597 1181 l 1516 1180 l 1516 1250 m 1378 1042 l 1447 1042 l 1447 973 l 1378 972 l 1378 1042 m 1309 903 l 1378 903 l 1378 834 l 1309 834 l 1309 903 m 1378 973 l 1447 972 l 1447 903 l 1378 903 l 1378 973 m 1309 765 l 1378 765 l 1378 696 l 1309 696 l 1309 765 m 1309 834 l 1378 834 l 1378 765 l 1309 765 l 1309 834 m 1309 696 l 1378 696 l 1378 627 l 1309 627 l 1309 696 m 1240 207 l 1309 207 l 1309 138 l 1250 138 l 1240 207 m 1240 555 l 1309 555 l 1309 486 l 1250 486 l 1240 555 m 1792 1528 l 1861 1528 l 1875 1459 l 1792 1458 l 1792 1528 m 1171 486 l 1240 486 l 1250 417 l 1171 417 l 1171 486 m 1240 765 l 1309 765 l 1309 696 l 1250 696 l 1240 765 m 1240 696 l 1309 696 l 1309 627 l 1250 627 l 1240 696 m 1171 555 l 1240 555 l 1250 486 l 1171 486 l 1171 555 m 1309 973 l 1378 972 l 1378 903 l 1309 903 l 1309 973 m 1240 834 l 1309 834 l 1309 765 l 1250 765 l 1240 834 m 1309 1042 l 1378 1042 l 1378 973 l 1309 972 l 1309 1042 m 1447 1181 l 1516 1180 l 1516 1111 l 1447 1111 l 1447 1181 m 1585 1389 l 1654 1389 l 1654 1320 l 1597 1319 l 1585 1389 m 2137 1528 l 2206 1528 l 2206 1459 l 2152 1458 l 2137 1528 m 1723 1459 l 1792 1458 l 1792 1389 l 1723 1389 l 1723 1459 m 1861 1528 l 1930 1528 l 1930 1459 l 1875 1458 l 1861 1528 m 1792 1459 l 1861 1458 l 1875 1389 l 1792 1389 l 1792 1459 m 1723 1389 l 1792 1389 l 1792 1320 l 1723 1319 l 1723 1389 m 1585 1250 l 1654 1250 l 1654 1181 l 1597 1180 l 1585 1250 m 1240 903 l 1309 903 l 1309 834 l 1250 834 l 1240 903 m 1516 1320 l 1585 1319 l 1597 1250 l 1516 1250 l 1516 1320 m 1585 1320 l 1654 1319 l 1654 1250 l 1597 1250 l 1585 1320 m 1654 1320 l 1723 1319 l 1723 1250 l 1654 1250 l 1654 1320 m 1378 903 l 1447 903 l 1447 834 l 1378 834 l 1378 903 m 1378 834 l 1447 834 l 1447 765 l 1378 765 l 1378 834 m 1447 1042 l 1516 1042 l 1516 973 l 1447 972 l 1447 1042 m 1447 973 l 1516 972 l 1516 903 l 1447 903 l 1447 973 m 1240 1250 l 1309 1250 l 1309 1181 l 1250 1180 l 1240 1250 m 1240 1320 l 1309 1319 l 1309 1250 l 1250 1250 l 1240 1320 m 1240 627 l 1309 627 l 1309 555 l 1250 555 l 1240 627 m 1240 138 l 1309 138 l 1309 69 l 1250 69 l 1240 138 m 1171 627 l 1240 627 l 1250 555 l 1171 555 l 1171 627 m 1171 417 l 1240 417 l 1250 348 l 1171 348 l 1171 417 m 1171 696 l 1240 696 l 1250 627 l 1171 627 l 1171 696 m 1309 627 l 1378 627 l 1378 555 l 1309 555 l 1309 627 m 1378 765 l 1447 765 l 1447 696 l 1378 696 l 1378 765 m 1447 1250 l 1516 1250 l 1516 1181 l 1447 1180 l 1447 1250 m 1378 1111 l 1447 1111 l 1447 1042 l 1378 1042 l 1378 1111 m 1447 1111 l 1516 1111 l 1516 1042 l 1447 1042 l 1447 1111 m 1516 1111 l 1585 1111 l 1597 1042 l 1516 1042 l 1516 1111 m 2206 1111 l 2275 1111 l 2275 1042 l 2206 1042 l 2206 1111 m 1378 1181 l 1447 1180 l 1447 1111 l 1378 1111 l 1378 1181 m 1171 765 l 1240 765 l 1250 696 l 1171 696 l 1171 765 m 1171 348 l 1240 348 l 1250 276 l 1171 276 l 1171 348 m 1171 276 l 1240 276 l 1250 207 l 1171 207 l 1171 276 m 1309 555 l 1378 555 l 1378 486 l 1309 486 l 1309 555 m 1309 -69 l 1378 -69 l 1378 -138 l 1309 -138 l 1309 -69 m 1861 -487 l 1930 -487 l 1930 -556 l 1875 -556 l 1861 -487 m 481 1597 l 550 1597 l 555 1528 l 481 1528 l 481 1597 m 550 1597 l 619 1597 l 619 1528 l 555 1528 l 550 1597 m 1033 973 l 1102 972 l 1102 903 l 1033 903 l 1033 973 m 1102 1042 l 1171 1042 l 1171 973 l 1102 972 l 1102 1042 m -416 1181 l -347 1180 l -347 1111 l -416 1111 l -416 1181 m -416 1111 l -347 1111 l -347 1042 l -416 1042 l -416 1111 m 205 555 l 274 555 l 274 486 l 205 486 l 205 555 m 136 555 l 205 555 l 205 486 l 136 486 l 136 555 m 1723 1528 l 1792 1528 l 1792 1459 l 1723 1458 l 1723 1528 m 1861 1597 l 1930 1597 l 1930 1528 l 1875 1528 l 1861 1597 m -347 834 l -278 834 l -278 765 l -347 765 l -347 834 m 205 1597 l 274 1597 l 274 1528 l 205 1528 l 205 1597 m -209 627 l -140 627 l -140 555 l -208 555 l -209 627 m 343 555 l 412 555 l 412 486 l 343 486 l 343 555 m 343 1597 l 412 1597 l 412 1528 l 343 1528 l 343 1597 m 274 555 l 343 555 l 343 486 l 274 486 l 274 555 m 274 1597 l 343 1597 l 343 1528 l 274 1528 l 274 1597 m 1378 -138 l 1447 -138 l 1447 -208 l 1378 -208 l 1378 -138 m 1378 -208 l 1447 -208 l 1447 -277 l 1378 -277 l 1378 -208 "},"ł":{"x_min":0.546875,"x_max":902.84375,"ha":417,"o":"m 208 1111 l 277 1111 l 277 1042 l 208 1042 l 208 1111 m 625 1111 l 694 1111 l 694 1042 l 625 1042 l 625 1111 m 553 1111 l 622 1111 l 622 1042 l 553 1042 l 553 1111 m 484 1180 l 553 1180 l 553 1111 l 484 1111 l 484 1180 m 415 1180 l 484 1180 l 484 1111 l 415 1111 l 415 1180 m 277 1180 l 346 1180 l 346 1111 l 277 1111 l 277 1180 m 346 1180 l 415 1180 l 415 1111 l 347 1111 l 346 1180 m 763 1042 l 833 1042 l 833 973 l 763 973 l 763 1042 m 139 1042 l 208 1042 l 208 973 l 139 973 l 139 1042 m 833 1111 l 902 1111 l 902 1042 l 833 1042 l 833 1111 m 694 1042 l 763 1042 l 763 973 l 694 973 l 694 1042 m 70 276 l 139 276 l 139 207 l 70 207 l 70 276 m 139 417 l 208 417 l 208 347 l 139 347 l 139 417 m 70 207 l 139 207 l 139 138 l 70 138 l 70 207 m 70 138 l 139 138 l 139 69 l 70 69 l 70 138 m 0 276 l 70 276 l 70 207 l 0 207 l 0 276 m 70 345 l 139 345 l 139 276 l 70 276 l 70 345 m 277 138 l 346 138 l 347 69 l 277 69 l 277 138 m 415 764 l 484 764 l 484 695 l 415 695 l 415 764 m 484 835 l 553 833 l 553 764 l 484 763 l 484 835 m 484 904 l 553 904 l 553 835 l 484 833 l 484 904 m 484 973 l 553 973 l 553 904 l 484 904 l 484 973 m 277 764 l 346 763 l 347 695 l 277 695 l 277 764 m 346 835 l 415 833 l 415 763 l 347 764 l 346 835 m 346 904 l 415 904 l 415 835 l 347 833 l 346 904 m 415 695 l 484 695 l 484 626 l 415 624 l 415 695 m 277 695 l 346 695 l 347 624 l 277 626 l 277 695 m 346 624 l 415 626 l 415 555 l 347 555 l 346 624 m 208 555 l 277 555 l 277 486 l 208 486 l 208 555 m 208 624 l 277 626 l 277 555 l 208 555 l 208 624 m 277 555 l 346 555 l 347 486 l 277 486 l 277 555 m 139 486 l 208 486 l 208 417 l 139 417 l 139 486 m 208 69 l 277 69 l 277 0 l 208 0 l 208 69 m 346 207 l 415 207 l 415 138 l 347 138 l 346 207 m 139 69 l 208 69 l 208 0 l 139 0 l 139 69 m 415 973 l 484 973 l 484 904 l 415 904 l 415 973 m 208 486 l 277 486 l 277 417 l 208 417 l 208 486 "},"ÿ":{"x_min":-69,"x_max":694.5,"ha":695,"o":"m 138 279 l 207 278 l 207 209 l 138 209 l 138 279 m 207 348 l 276 348 l 276 279 l 207 278 l 207 348 m 138 417 l 207 417 l 207 348 l 138 348 l 138 417 m 69 140 l 138 138 l 138 69 l 69 69 l 69 140 m 276 140 l 345 138 l 345 69 l 276 69 l 276 140 m 138 69 l 207 69 l 207 0 l 138 -1 l 138 69 m 207 69 l 276 69 l 276 0 l 207 -1 l 207 69 m 414 279 l 483 278 l 483 209 l 414 209 l 414 279 m 414 348 l 483 348 l 483 279 l 414 278 l 414 348 m 483 417 l 552 417 l 552 348 l 483 348 l 483 417 m 345 209 l 414 209 l 414 140 l 345 138 l 345 209 m 345 140 l 414 138 l 414 69 l 345 69 l 345 140 m 0 279 l 69 278 l 69 209 l 0 209 l 0 279 m 69 209 l 138 209 l 138 140 l 69 138 l 69 209 m 69 348 l 138 348 l 138 279 l 69 278 l 69 348 m 207 417 l 276 417 l 276 348 l 207 348 l 207 417 m 552 140 l 621 138 l 621 69 l 552 69 l 552 140 m 625 209 l 694 209 l 694 140 l 625 138 l 625 209 m 414 0 l 483 -1 l 483 -70 l 414 -70 l 414 0 m 276 -70 l 345 -70 l 345 -139 l 276 -139 l 276 -70 m 138 -278 l 207 -278 l 207 -347 l 138 -347 l 138 -278 m -69 -209 l 0 -208 l 0 -278 l -69 -278 l -69 -209 m 138 -70 l 207 -70 l 207 -139 l 138 -139 l 138 -70 m 69 -347 l 138 -347 l 138 -416 l 69 -416 l 69 -347 m -69 -278 l 0 -278 l 0 -347 l -69 -347 l -69 -278 m 69 -139 l 138 -139 l 138 -209 l 69 -209 l 69 -139 m 207 -70 l 276 -70 l 276 -139 l 207 -139 l 207 -70 m 0 -347 l 69 -347 l 69 -416 l 0 -416 l 0 -347 m 0 -139 l 69 -139 l 69 -209 l 0 -209 l 0 -139 m 345 -70 l 414 -70 l 414 -139 l 345 -139 l 345 -70 m 483 69 l 552 69 l 552 0 l 483 -1 l 483 69 m 207 -209 l 276 -208 l 276 -278 l 207 -278 l 207 -209 m 207 -139 l 276 -139 l 276 -209 l 207 -208 l 207 -139 m 276 0 l 345 -1 l 345 -70 l 276 -70 l 276 0 m 345 69 l 414 69 l 414 0 l 345 -1 l 345 69 m 208 625 l 277 625 l 277 556 l 208 556 l 208 625 m 277 694 l 346 694 l 346 625 l 277 625 l 277 694 m 208 694 l 277 694 l 277 625 l 208 625 l 208 694 m 417 625 l 486 625 l 486 556 l 417 556 l 417 625 m 486 694 l 555 694 l 555 625 l 486 625 l 486 694 m 417 694 l 486 694 l 486 625 l 417 625 l 417 694 "},"Ł":{"x_min":-347,"x_max":2083.5,"ha":1528,"o":"m 619 348 l 688 348 l 688 276 l 619 276 l 619 348 m 688 348 l 757 348 l 757 276 l 688 276 l 688 348 m 757 348 l 826 348 l 826 276 l 757 276 l 757 348 m 826 417 l 895 417 l 895 348 l 826 348 l 826 417 m 895 417 l 964 417 l 964 348 l 902 348 l 895 417 m 1240 557 l 1309 555 l 1309 486 l 1240 486 l 1240 557 m 1309 557 l 1378 555 l 1378 486 l 1309 486 l 1309 557 m 1378 557 l 1447 555 l 1447 486 l 1378 486 l 1378 557 m 1447 626 l 1516 626 l 1516 557 l 1447 555 l 1447 626 m 1516 626 l 1585 626 l 1585 557 l 1527 555 l 1516 626 m 1585 626 l 1654 626 l 1666 557 l 1585 555 l 1585 626 m 1378 -487 l 1447 -487 l 1447 -556 l 1378 -556 l 1378 -487 m 1309 -487 l 1378 -487 l 1378 -556 l 1309 -556 l 1309 -487 m 1585 -556 l 1654 -556 l 1666 -625 l 1585 -625 l 1585 -556 m 1516 -556 l 1585 -556 l 1585 -625 l 1527 -625 l 1516 -556 m 1447 -556 l 1516 -556 l 1527 -625 l 1447 -625 l 1447 -556 m 1792 -556 l 1861 -556 l 1861 -625 l 1792 -625 l 1792 -556 m 1723 -556 l 1792 -556 l 1792 -625 l 1723 -625 l 1723 -556 m 1654 -556 l 1723 -556 l 1723 -625 l 1666 -625 l 1654 -556 m 2014 -418 l 2083 -418 l 2083 -487 l 2014 -487 l 2014 -418 m 1944 -487 l 2014 -487 l 2014 -556 l 1944 -556 l 1944 -487 m 1861 -487 l 1930 -487 l 1930 -556 l 1861 -556 l 1861 -487 m 1240 973 l 1309 973 l 1309 904 l 1240 903 l 1240 973 m 1171 695 l 1240 695 l 1240 626 l 1171 626 l 1171 695 m 757 69 l 826 69 l 826 0 l 757 -1 l 757 69 m 688 0 l 757 0 l 757 -70 l 688 -70 l 688 0 m -2 69 l 67 69 l 67 0 l -2 -1 l -2 69 m 895 276 l 964 276 l 964 207 l 902 207 l 895 276 m 964 276 l 1033 276 l 1033 207 l 964 207 l 964 276 m 826 138 l 895 138 l 902 69 l 826 69 l 826 138 m 757 0 l 826 -1 l 826 -70 l 757 -70 l 757 0 m 826 69 l 895 69 l 902 0 l 826 -1 l 826 69 m 895 138 l 964 138 l 964 69 l 902 69 l 895 138 m 1309 973 l 1378 973 l 1378 904 l 1309 903 l 1309 973 m 1033 348 l 1102 348 l 1102 276 l 1033 276 l 1033 348 m 895 207 l 964 207 l 964 138 l 902 138 l 895 207 m 964 207 l 1033 207 l 1033 138 l 964 138 l 964 207 m 895 348 l 964 348 l 964 276 l 902 276 l 895 348 m 964 348 l 1033 348 l 1033 276 l 964 276 l 964 348 m 67 0 l 136 -1 l 136 -70 l 69 -70 l 67 0 m 1309 1042 l 1378 1042 l 1378 973 l 1309 973 l 1309 1042 m 136 0 l 205 -1 l 205 -70 l 136 -70 l 136 0 m 205 -70 l 274 -70 l 274 -139 l 208 -139 l 205 -70 m 274 -70 l 343 -70 l 343 -139 l 274 -139 l 274 -70 m 343 -70 l 412 -70 l 412 -139 l 343 -139 l 343 -70 m 412 -70 l 481 -70 l 481 -139 l 412 -139 l 412 -70 m 481 -70 l 550 -70 l 550 -139 l 481 -139 l 481 -70 m 550 0 l 619 -1 l 619 -70 l 550 -70 l 550 0 m 619 0 l 688 -1 l 688 -70 l 619 -70 l 619 0 m 550 -70 l 619 -70 l 619 -139 l 550 -139 l 550 -70 m 619 -70 l 688 -70 l 688 -139 l 619 -139 l 619 -70 m 688 69 l 757 69 l 757 0 l 688 -1 l 688 69 m 757 138 l 826 138 l 826 69 l 757 69 l 757 138 m 826 276 l 895 276 l 902 207 l 826 207 l 826 276 m 826 207 l 895 207 l 902 138 l 826 138 l 826 207 m 964 417 l 1033 417 l 1033 348 l 964 348 l 964 417 m 1033 417 l 1102 417 l 1111 348 l 1033 348 l 1033 417 m 1102 695 l 1171 695 l 1171 626 l 1111 626 l 1102 695 m 1240 765 l 1309 764 l 1309 695 l 1240 695 l 1240 765 m 1240 834 l 1309 834 l 1309 765 l 1240 764 l 1240 834 m 1240 904 l 1309 903 l 1309 834 l 1240 834 l 1240 904 m 1171 834 l 1240 834 l 1240 765 l 1171 764 l 1171 834 m 1171 765 l 1240 764 l 1240 695 l 1171 695 l 1171 765 m 412 0 l 481 -1 l 481 -70 l 412 -70 l 412 0 m 481 0 l 550 -1 l 550 -70 l 481 -70 l 481 0 m 550 69 l 619 69 l 619 0 l 550 -1 l 550 69 m 619 69 l 688 69 l 688 0 l 619 -1 l 619 69 m 688 138 l 757 138 l 757 69 l 688 69 l 688 138 m 757 207 l 826 207 l 826 138 l 757 138 l 757 207 m 550 557 l 619 555 l 619 486 l 550 486 l 550 557 m 895 695 l 964 695 l 964 626 l 902 626 l 895 695 m 964 695 l 1033 695 l 1033 626 l 964 626 l 964 695 m 757 626 l 826 626 l 826 557 l 757 555 l 757 626 m 826 626 l 895 626 l 902 557 l 826 555 l 826 626 m 688 557 l 757 555 l 757 486 l 688 486 l 688 557 m -2 138 l 67 138 l 69 69 l -2 69 l -2 138 m 550 1597 l 619 1597 l 619 1528 l 550 1528 l 550 1597 m 757 1528 l 826 1528 l 826 1459 l 757 1459 l 757 1528 m 826 1528 l 895 1528 l 902 1459 l 826 1458 l 826 1528 m 688 1597 l 757 1597 l 757 1528 l 688 1528 l 688 1597 m 964 1528 l 1033 1528 l 1033 1459 l 964 1458 l 964 1528 m 619 1597 l 688 1597 l 688 1528 l 619 1528 l 619 1597 m 1033 1459 l 1102 1458 l 1111 1389 l 1033 1389 l 1033 1459 m 895 1528 l 964 1528 l 964 1459 l 902 1458 l 895 1528 m 619 557 l 688 555 l 688 486 l 619 486 l 619 557 m 1102 -418 l 1171 -418 l 1171 -487 l 1111 -487 l 1102 -418 m 1033 -348 l 1102 -348 l 1111 -418 l 1033 -418 l 1033 -348 m 964 -277 l 1033 -277 l 1033 -347 l 964 -347 l 964 -277 m 1171 -418 l 1240 -418 l 1240 -487 l 1171 -487 l 1171 -418 m 1309 1111 l 1378 1111 l 1378 1042 l 1309 1042 l 1309 1111 m 1654 1597 l 1723 1597 l 1723 1528 l 1666 1528 l 1654 1597 m 1723 1597 l 1792 1597 l 1792 1528 l 1723 1528 l 1723 1597 m 1792 1528 l 1861 1528 l 1861 1459 l 1792 1458 l 1792 1528 m 1447 1320 l 1516 1319 l 1527 1250 l 1447 1250 l 1447 1320 m 1378 1250 l 1447 1250 l 1447 1181 l 1378 1180 l 1378 1250 m 1378 1181 l 1447 1180 l 1447 1111 l 1378 1111 l 1378 1181 m 1102 1459 l 1171 1458 l 1171 1389 l 1111 1389 l 1102 1459 m 1171 1389 l 1240 1389 l 1240 1320 l 1171 1319 l 1171 1389 m 1171 557 l 1240 555 l 1240 486 l 1171 486 l 1171 557 m 1102 626 l 1171 626 l 1171 557 l 1111 555 l 1102 626 m 1171 626 l 1240 626 l 1240 557 l 1171 555 l 1171 626 m 1102 417 l 1171 417 l 1171 348 l 1102 348 l 1102 417 m 1033 276 l 1102 276 l 1111 207 l 1033 207 l 1033 276 m 1447 1389 l 1516 1389 l 1527 1320 l 1447 1319 l 1447 1389 m 1516 1459 l 1585 1458 l 1585 1389 l 1527 1389 l 1516 1459 m 1585 1528 l 1654 1528 l 1666 1459 l 1585 1458 l 1585 1528 m 1792 1459 l 1861 1458 l 1861 1389 l 1792 1389 l 1792 1459 m 1723 1389 l 1792 1389 l 1792 1320 l 1723 1319 l 1723 1389 m 1723 1320 l 1792 1319 l 1792 1250 l 1723 1250 l 1723 1320 m 1654 1250 l 1723 1250 l 1723 1181 l 1654 1180 l 1654 1250 m 1585 1181 l 1654 1180 l 1666 1111 l 1585 1111 l 1585 1181 m 1516 1111 l 1585 1111 l 1585 1042 l 1527 1042 l 1516 1111 m 1447 1042 l 1516 1042 l 1527 973 l 1447 973 l 1447 1042 m 1378 973 l 1447 973 l 1447 904 l 1378 903 l 1378 973 m 1033 765 l 1102 764 l 1111 695 l 1033 695 l 1033 765 m 1102 834 l 1171 834 l 1171 765 l 1111 764 l 1102 834 m 1171 904 l 1240 903 l 1240 834 l 1171 834 l 1171 904 m 67 207 l 136 207 l 136 138 l 69 138 l 67 207 m 136 207 l 205 207 l 208 138 l 136 138 l 136 207 m 205 207 l 274 207 l 274 138 l 208 138 l 205 207 m 274 207 l 343 207 l 343 138 l 274 138 l 274 207 m 343 207 l 412 207 l 412 138 l 343 138 l 343 207 m 412 138 l 481 138 l 481 69 l 412 69 l 412 138 m 481 138 l 550 138 l 550 69 l 481 69 l 481 138 m 895 -208 l 964 -208 l 964 -277 l 902 -277 l 895 -208 m 826 -139 l 895 -139 l 902 -208 l 826 -208 l 826 -139 m 757 -70 l 826 -70 l 826 -139 l 757 -139 l 757 -70 m -347 1111 l -278 1111 l -278 1042 l -347 1042 l -347 1111 m -347 1042 l -278 1042 l -278 973 l -347 973 l -347 1042 m -347 904 l -278 903 l -278 834 l -347 834 l -347 904 m 274 486 l 343 486 l 343 417 l 274 417 l 274 486 m -278 765 l -209 764 l -209 695 l -278 695 l -278 765 m 136 486 l 205 486 l 208 417 l 136 417 l 136 486 m -347 973 l -278 973 l -278 904 l -347 903 l -347 973 m 67 557 l 136 555 l 136 486 l 69 486 l 67 557 m 205 1528 l 274 1528 l 274 1459 l 208 1458 l 205 1528 m 343 1597 l 412 1597 l 412 1528 l 343 1528 l 343 1597 m -278 1181 l -208 1180 l -209 1111 l -278 1111 l -278 1181 m 67 1528 l 136 1528 l 136 1459 l 69 1458 l 67 1528 m 136 1528 l 205 1528 l 208 1459 l 136 1458 l 136 1528 m -278 1250 l -209 1250 l -208 1181 l -278 1180 l -278 1250 m 274 1597 l 343 1597 l 343 1528 l 274 1528 l 274 1597 m -140 626 l -71 626 l -71 557 l -140 555 l -140 626 m -2 557 l 67 555 l 69 486 l -2 486 l -2 557 m -209 695 l -140 695 l -140 626 l -208 626 l -209 695 m -278 834 l -209 834 l -208 765 l -278 764 l -278 834 m -71 1459 l -2 1458 l -2 1389 l -69 1389 l -71 1459 m -209 1320 l -140 1319 l -140 1250 l -208 1250 l -209 1320 m -140 1389 l -71 1389 l -69 1320 l -140 1319 l -140 1389 m -2 1459 l 67 1458 l 69 1389 l -2 1389 l -2 1459 m 412 1597 l 481 1597 l 481 1528 l 412 1528 l 412 1597 m 412 486 l 481 486 l 481 417 l 412 417 l 412 486 m -71 557 l -2 555 l -2 486 l -69 486 l -71 557 m 343 486 l 412 486 l 412 417 l 343 417 l 343 486 m 205 486 l 274 486 l 274 417 l 208 417 l 205 486 m 481 486 l 550 486 l 550 417 l 481 417 l 481 486 m 481 1597 l 550 1597 l 550 1528 l 481 1528 l 481 1597 m 1102 557 l 1171 555 l 1171 486 l 1111 486 l 1102 557 m 1033 557 l 1102 555 l 1111 486 l 1033 486 l 1033 557 m 1033 486 l 1102 486 l 1111 417 l 1033 417 l 1033 486 m 1102 486 l 1171 486 l 1171 417 l 1111 417 l 1102 486 m 1240 -487 l 1309 -487 l 1309 -556 l 1240 -556 l 1240 -487 "},"í":{"x_min":0,"x_max":347.25,"ha":347,"o":"m 0 278 l 69 278 l 69 207 l 0 207 l 0 278 m 69 347 l 138 347 l 138 278 l 69 278 l 69 347 m 69 417 l 138 417 l 138 347 l 69 347 l 69 417 m 0 347 l 69 347 l 69 278 l 0 278 l 0 347 m 0 207 l 69 207 l 69 138 l 0 138 l 0 207 m 0 138 l 69 138 l 69 69 l 0 69 l 0 138 m 208 138 l 277 138 l 277 69 l 208 69 l 208 138 m 69 69 l 138 69 l 138 0 l 69 0 l 69 69 m 138 69 l 207 69 l 207 0 l 138 0 l 138 69 m 277 207 l 347 207 l 347 138 l 277 138 l 277 207 m 69 625 l 138 625 l 138 556 l 69 556 l 69 625 m 138 694 l 208 694 l 208 625 l 138 625 l 138 694 m 208 694 l 277 694 l 277 625 l 208 625 l 208 694 "},"ˆ":{"x_min":69.453125,"x_max":277.796875,"ha":347,"o":"m 277 556 l 208 556 l 208 625 l 277 625 l 277 556 m 208 625 l 138 625 l 138 695 l 208 695 l 208 625 m 138 556 l 69 556 l 69 625 l 138 625 l 138 556 "},"w":{"x_min":0,"x_max":972.296875,"ha":972,"o":"m 208 279 l 277 277 l 277 208 l 208 208 l 208 279 m 208 348 l 277 348 l 277 279 l 208 277 l 208 348 m 139 417 l 208 417 l 208 348 l 139 348 l 139 417 m 139 139 l 208 138 l 208 69 l 139 69 l 139 139 m 208 69 l 277 69 l 277 0 l 208 0 l 208 69 m 763 279 l 832 277 l 832 208 l 763 208 l 763 279 m 763 348 l 832 348 l 832 279 l 763 277 l 763 348 m 694 417 l 763 417 l 763 348 l 694 348 l 694 417 m 902 208 l 972 208 l 972 138 l 902 139 l 902 208 m 625 348 l 694 348 l 694 279 l 625 277 l 625 348 m 832 208 l 901 208 l 901 138 l 832 139 l 832 208 m 0 279 l 69 277 l 69 208 l 0 208 l 0 279 m 139 208 l 208 208 l 208 138 l 139 138 l 139 208 m 69 348 l 139 348 l 139 279 l 69 277 l 69 348 m 625 279 l 694 277 l 694 208 l 625 208 l 625 279 m 554 69 l 625 69 l 625 0 l 554 0 l 554 69 m 694 208 l 763 208 l 763 138 l 694 139 l 694 208 m 625 138 l 694 139 l 694 69 l 625 69 l 625 138 m 277 69 l 347 69 l 347 0 l 277 0 l 277 69 m 347 138 l 416 139 l 416 69 l 347 69 l 347 138 m 485 69 l 554 69 l 554 0 l 485 0 l 485 69 m 485 279 l 554 277 l 554 208 l 485 208 l 485 279 m 485 348 l 554 348 l 554 279 l 485 277 l 485 348 m 416 417 l 485 417 l 485 348 l 416 348 l 416 417 m 347 279 l 416 277 l 416 208 l 347 208 l 347 279 m 416 208 l 485 208 l 485 138 l 416 139 l 416 208 m 347 348 l 416 348 l 416 279 l 347 277 l 347 348 m 347 208 l 416 208 l 416 138 l 347 139 l 347 208 m 416 69 l 485 69 l 485 0 l 416 0 l 416 69 "},"$":{"x_min":209,"x_max":761,"ha":625,"o":"m 347 1112 l 416 1111 l 416 1042 l 347 1042 l 347 1112 m 692 1250 l 761 1250 l 761 1181 l 692 1181 l 692 1250 m 485 1319 l 554 1319 l 554 1250 l 485 1250 l 485 1319 m 692 1112 l 761 1111 l 761 1042 l 692 1042 l 692 1112 m 347 1042 l 416 1042 l 416 973 l 347 971 l 347 1042 m 416 1181 l 485 1181 l 485 1112 l 416 1111 l 416 1181 m 416 973 l 485 971 l 485 902 l 416 902 l 416 973 m 692 1181 l 761 1181 l 761 1112 l 692 1111 l 692 1181 m 485 973 l 554 971 l 554 902 l 485 902 l 485 973 m 623 694 l 554 694 l 554 764 l 625 763 l 623 694 m 278 555 l 209 555 l 209 625 l 278 624 l 278 555 m 485 486 l 416 486 l 416 555 l 485 555 l 485 486 m 278 694 l 209 694 l 209 763 l 278 764 l 278 694 m 623 763 l 554 763 l 554 833 l 623 833 l 623 763 m 554 624 l 485 625 l 485 694 l 554 694 l 554 624 m 554 833 l 485 833 l 485 902 l 554 902 l 554 833 m 278 624 l 209 625 l 209 694 l 278 694 l 278 624 m 485 833 l 416 833 l 416 902 l 485 902 l 485 833 m 416 1042 l 485 1042 l 485 973 l 416 971 l 416 1042 m 485 833 l 554 833 l 554 763 l 485 764 l 485 833 m 278 486 l 347 486 l 347 417 l 278 417 l 278 486 m 554 1319 l 623 1319 l 625 1250 l 554 1250 l 554 1319 m 347 555 l 416 555 l 416 486 l 347 486 l 347 555 m 623 1319 l 692 1319 l 692 1250 l 625 1250 l 623 1319 m 416 1112 l 485 1111 l 485 1042 l 416 1042 l 416 1112 m 485 763 l 554 764 l 554 694 l 485 694 l 485 763 m 209 417 l 278 417 l 278 347 l 209 347 l 209 417 m 209 347 l 278 347 l 278 278 l 209 278 l 209 347 m 623 1388 l 692 1388 l 692 1319 l 625 1319 l 623 1388 m 692 1458 l 761 1458 l 761 1389 l 692 1389 l 692 1458 m 416 1250 l 485 1250 l 485 1181 l 416 1181 l 416 1250 m 347 1181 l 416 1181 l 416 1112 l 347 1111 l 347 1181 m 554 555 l 485 555 l 485 624 l 554 625 l 554 555 m 623 624 l 554 625 l 554 694 l 625 694 l 623 624 m 692 1528 l 761 1528 l 761 1458 l 692 1458 l 692 1528 m 278 555 l 347 555 l 347 486 l 278 486 l 278 555 m 485 1042 l 554 1042 l 554 973 l 485 971 l 485 1042 m 416 833 l 485 833 l 485 763 l 416 764 l 416 833 "},"\\":{"x_min":-208,"x_max":1517.453125,"ha":1389,"o":"m 1241 834 l 1310 834 l 1310 765 l 1241 764 l 1241 834 m 1448 695 l 1517 695 l 1517 626 l 1448 626 l 1448 695 m 620 765 l 689 764 l 689 695 l 620 694 l 620 765 m 689 834 l 758 833 l 758 765 l 689 764 l 689 834 m 758 834 l 827 833 l 827 765 l 763 764 l 758 834 m 1103 904 l 1172 903 l 1172 834 l 1103 833 l 1103 904 m 1379 765 l 1448 764 l 1448 694 l 1379 695 l 1379 765 m 1034 904 l 1103 903 l 1103 834 l 1034 833 l 1034 904 m 896 904 l 965 903 l 965 834 l 896 833 l 896 904 m 965 904 l 1034 903 l 1034 834 l 965 833 l 965 904 m 827 904 l 896 903 l 902 834 l 827 833 l 827 904 m 1172 904 l 1241 903 l 1241 833 l 1172 834 l 1172 904 m 896 1321 l 965 1321 l 965 1252 l 902 1250 l 896 1321 m 1172 417 l 1241 417 l 1241 348 l 1172 348 l 1172 417 m 482 1043 l 551 1042 l 551 973 l 482 973 l 482 1043 m 827 1321 l 896 1321 l 902 1252 l 827 1250 l 827 1321 m 68 0 l 137 -1 l 137 -70 l 68 -70 l 68 0 m 1034 278 l 1103 278 l 1103 209 l 1034 207 l 1034 278 m 137 -139 l 206 -139 l 206 -208 l 137 -208 l 137 -139 m 758 1252 l 827 1252 l 827 1181 l 763 1181 l 758 1252 m 1310 765 l 1379 764 l 1379 695 l 1310 694 l 1310 765 m 1310 834 l 1379 833 l 1379 765 l 1310 764 l 1310 834 m 137 -208 l 206 -208 l 206 -277 l 137 -277 l 137 -208 m 482 -139 l 551 -138 l 551 -208 l 482 -208 l 482 -139 m 965 207 l 1034 209 l 1034 138 l 965 138 l 965 207 m 1103 348 l 1172 348 l 1172 278 l 1103 278 l 1103 348 m 1241 557 l 1310 555 l 1310 486 l 1241 486 l 1241 557 m 1310 695 l 1379 694 l 1379 626 l 1310 626 l 1310 695 m 1241 626 l 1310 626 l 1310 557 l 1241 555 l 1241 626 m 551 -70 l 620 -70 l 620 -139 l 551 -138 l 551 -70 m 620 -70 l 689 -70 l 689 -139 l 620 -138 l 620 -70 m 689 0 l 758 -1 l 763 -70 l 689 -70 l 689 0 m 758 0 l 827 -1 l 827 -70 l 763 -70 l 758 0 m 1310 1252 l 1379 1250 l 1379 1181 l 1310 1181 l 1310 1252 m 68 138 l 137 138 l 137 69 l 68 69 l 68 138 m 1172 486 l 1241 486 l 1241 417 l 1172 417 l 1172 486 m 758 1181 l 827 1181 l 827 1112 l 763 1112 l 758 1181 m 1034 1390 l 1103 1390 l 1103 1321 l 1034 1321 l 1034 1390 m 68 207 l 137 209 l 137 138 l 68 138 l 68 207 m 137 417 l 206 417 l 206 348 l 137 348 l 137 417 m 1034 -625 l 1103 -625 l 1103 -694 l 1034 -694 l 1034 -625 m 482 -556 l 551 -556 l 551 -625 l 482 -625 l 482 -556 m 896 -625 l 965 -625 l 965 -694 l 902 -694 l 896 -625 m 551 -556 l 620 -556 l 620 -625 l 551 -625 l 551 -556 m 1310 1181 l 1379 1181 l 1379 1112 l 1310 1112 l 1310 1181 m 482 973 l 551 973 l 551 904 l 482 903 l 482 973 m 1172 1321 l 1241 1321 l 1241 1252 l 1172 1250 l 1172 1321 m 68 417 l 137 417 l 137 348 l 68 348 l 68 417 m 482 904 l 551 903 l 551 834 l 482 833 l 482 904 m 275 626 l 344 626 l 344 557 l 275 555 l 275 626 m 275 695 l 344 694 l 344 626 l 275 626 l 275 695 m 344 834 l 413 833 l 413 765 l 344 764 l 344 834 m 413 904 l 482 903 l 482 834 l 413 833 l 413 904 m 137 626 l 206 626 l 206 557 l 137 555 l 137 626 m 344 695 l 413 694 l 413 626 l 344 626 l 344 695 m 413 834 l 482 833 l 482 765 l 413 764 l 413 834 m 344 765 l 413 764 l 413 695 l 344 694 l 344 765 m 206 765 l 275 764 l 275 695 l 206 694 l 206 765 m 551 1112 l 620 1112 l 620 1043 l 551 1042 l 551 1112 m 551 1043 l 620 1042 l 620 973 l 551 973 l 551 1043 m 551 973 l 620 973 l 620 904 l 551 903 l 551 973 m 620 1112 l 689 1112 l 689 1043 l 620 1042 l 620 1112 m 620 1043 l 689 1042 l 689 973 l 620 973 l 620 1043 m 689 1112 l 758 1112 l 763 1043 l 689 1042 l 689 1112 m 689 1181 l 758 1181 l 763 1112 l 689 1112 l 689 1181 m 620 1181 l 689 1181 l 689 1112 l 620 1112 l 620 1181 m 413 973 l 482 973 l 482 904 l 413 903 l 413 973 m 206 626 l 275 626 l 275 557 l 206 555 l 206 626 m 275 765 l 344 764 l 344 695 l 275 694 l 275 765 m 344 904 l 413 903 l 413 834 l 344 833 l 344 904 m 827 1252 l 896 1250 l 902 1181 l 827 1181 l 827 1252 m 896 1252 l 965 1250 l 965 1181 l 902 1181 l 896 1252 m 965 1321 l 1034 1321 l 1034 1252 l 965 1250 l 965 1321 m 1034 1321 l 1103 1321 l 1103 1252 l 1034 1250 l 1034 1321 m 965 1252 l 1034 1250 l 1034 1181 l 965 1181 l 965 1252 m 206 695 l 275 694 l 275 626 l 206 626 l 206 695 m 275 834 l 344 833 l 344 765 l 275 764 l 275 834 m 344 -487 l 413 -487 l 413 -556 l 344 -556 l 344 -487 m 413 -487 l 482 -487 l 482 -556 l 413 -556 l 413 -487 m 275 -417 l 344 -417 l 344 -487 l 275 -487 l 275 -417 m 206 -347 l 275 -347 l 275 -416 l 206 -416 l 206 -347 m 137 207 l 206 209 l 206 138 l 137 138 l 137 207 m 68 69 l 137 69 l 137 0 l 68 -1 l 68 69 m 1379 904 l 1448 903 l 1448 834 l 1379 833 l 1379 904 m 1379 973 l 1448 973 l 1448 904 l 1379 903 l 1379 973 m 1241 -556 l 1310 -556 l 1310 -625 l 1241 -625 l 1241 -556 m 1172 -556 l 1241 -556 l 1241 -625 l 1172 -625 l 1172 -556 m 1103 -625 l 1172 -625 l 1172 -694 l 1103 -694 l 1103 -625 m 1310 -556 l 1379 -556 l 1379 -625 l 1310 -625 l 1310 -556 m 896 138 l 965 138 l 965 69 l 902 69 l 896 138 m 275 557 l 344 555 l 344 486 l 275 486 l 275 557 m 206 557 l 275 555 l 275 486 l 206 486 l 206 557 m 827 69 l 896 69 l 902 0 l 827 -1 l 827 69 m 206 486 l 275 486 l 275 417 l 206 417 l 206 486 m 137 486 l 206 486 l 206 417 l 137 417 l 137 486 m 137 557 l 206 555 l 206 486 l 137 486 l 137 557 m 551 1528 l 620 1528 l 620 1459 l 551 1459 l 551 1528 m 68 1181 l 137 1181 l 137 1112 l 68 1112 l 68 1181 m 482 1528 l 551 1528 l 551 1459 l 482 1459 l 482 1528 m 413 1459 l 482 1459 l 482 1390 l 413 1390 l 413 1459 m 758 1597 l 827 1597 l 827 1528 l 763 1528 l 758 1597 m -208 417 l -139 417 l -139 348 l -208 348 l -208 417 m 827 1597 l 896 1597 l 902 1528 l 827 1528 l 827 1597 m 137 1252 l 206 1250 l 206 1181 l 137 1181 l 137 1252 m 344 1459 l 413 1459 l 413 1390 l 344 1390 l 344 1459 m 275 1390 l 344 1390 l 344 1321 l 275 1321 l 275 1390 m -1 1112 l 68 1112 l 68 1043 l -1 1042 l -1 1112 m -208 486 l -139 486 l -138 417 l -208 417 l -208 486 m -139 765 l -70 764 l -69 695 l -138 694 l -139 765 m -70 904 l -1 903 l -1 834 l -70 833 l -70 904 m -1 1043 l 68 1042 l 68 973 l -1 973 l -1 1043 m 620 1597 l 689 1597 l 689 1528 l 620 1528 l 620 1597 m -208 557 l -139 555 l -138 486 l -208 486 l -208 557 m -70 973 l -1 973 l -1 904 l -69 903 l -70 973 m -139 695 l -69 694 l -70 626 l -139 626 l -139 695 m 896 1597 l 965 1597 l 965 1528 l 902 1528 l 896 1597 m 965 1597 l 1034 1597 l 1034 1528 l 965 1528 l 965 1597 m 206 1321 l 275 1321 l 275 1252 l 206 1250 l 206 1321 m 413 -139 l 482 -138 l 482 -208 l 413 -208 l 413 -139 m 206 -139 l 275 -138 l 275 -208 l 206 -208 l 206 -139 m 68 -70 l 137 -70 l 137 -139 l 68 -138 l 68 -70 m -70 0 l -1 -1 l -1 -70 l -69 -70 l -70 0 m -70 69 l -1 69 l -1 0 l -69 -1 l -70 69 m -208 278 l -139 278 l -138 207 l -208 209 l -208 278 m -208 348 l -139 348 l -138 278 l -208 278 l -208 348 m -139 138 l -70 138 l -69 69 l -138 69 l -139 138 m 68 -139 l 137 -138 l 137 -208 l 68 -208 l 68 -139 m 1379 1043 l 1448 1042 l 1448 973 l 1379 973 l 1379 1043 m 1379 1112 l 1448 1112 l 1448 1043 l 1379 1042 l 1379 1112 m 1241 1321 l 1310 1321 l 1310 1252 l 1241 1250 l 1241 1321 m 275 -139 l 344 -138 l 344 -208 l 275 -208 l 275 -139 m 344 -139 l 413 -138 l 413 -208 l 344 -208 l 344 -139 m 137 -277 l 206 -277 l 206 -347 l 137 -347 l 137 -277 m 620 -556 l 689 -556 l 689 -625 l 620 -625 l 620 -556 m 689 -625 l 758 -625 l 763 -694 l 689 -694 l 689 -625 m 758 -625 l 827 -625 l 827 -694 l 763 -694 l 758 -625 m 827 -625 l 896 -625 l 902 -694 l 827 -694 l 827 -625 m 1379 -487 l 1448 -487 l 1448 -556 l 1379 -556 l 1379 -487 m 1103 1321 l 1172 1321 l 1172 1252 l 1103 1250 l 1103 1321 m 137 278 l 206 278 l 206 207 l 137 209 l 137 278 m 68 278 l 137 278 l 137 207 l 68 209 l 68 278 m 1103 1390 l 1172 1390 l 1172 1321 l 1103 1321 l 1103 1390 m 137 348 l 206 348 l 206 278 l 137 278 l 137 348 m 68 348 l 137 348 l 137 278 l 68 278 l 68 348 m -139 207 l -70 209 l -69 138 l -138 138 l -139 207 m 689 1597 l 758 1597 l 763 1528 l 689 1528 l 689 1597 m 689 1252 l 758 1250 l 763 1181 l 689 1181 l 689 1252 m 482 1112 l 551 1112 l 551 1043 l 482 1042 l 482 1112 m 758 1321 l 827 1321 l 827 1252 l 763 1250 l 758 1321 m 551 1181 l 620 1181 l 620 1112 l 551 1112 l 551 1181 m 620 1252 l 689 1250 l 689 1181 l 620 1181 l 620 1252 m 413 1043 l 482 1042 l 482 973 l 413 973 l 413 1043 m 344 973 l 413 973 l 413 904 l 344 903 l 344 973 m 965 1390 l 1034 1390 l 1034 1321 l 965 1321 l 965 1390 m 827 1181 l 896 1181 l 902 1112 l 827 1112 l 827 1181 m 206 417 l 275 417 l 275 348 l 206 348 l 206 417 m -1 -70 l 68 -70 l 68 -139 l -1 -138 l -1 -70 m 965 -625 l 1034 -625 l 1034 -694 l 965 -694 l 965 -625 m -208 626 l -139 626 l -138 557 l -208 555 l -208 626 m -139 834 l -70 833 l -69 765 l -138 764 l -139 834 "},"Ì":{"x_min":-555,"x_max":1862,"ha":1806,"o":"m 1655 1044 l 1724 1044 l 1724 975 l 1655 972 l 1655 1044 m 1448 557 l 1517 555 l 1517 486 l 1448 486 l 1448 557 m 1517 555 l 1586 557 l 1586 486 l 1517 486 l 1517 555 m 1379 486 l 1458 486 l 1448 417 l 1379 417 l 1379 486 m 1448 486 l 1517 486 l 1517 417 l 1458 417 l 1448 486 m 1241 1320 l 1310 1320 l 1310 1251 l 1241 1251 l 1241 1320 m 1241 1251 l 1310 1251 l 1310 1182 l 1241 1182 l 1241 1251 m 1172 69 l 1241 69 l 1241 0 l 1172 -2 l 1172 69 m 1103 0 l 1180 0 l 1172 -71 l 1103 -71 l 1103 0 m -70 0 l -1 -2 l -1 -71 l -70 -71 l -70 0 m -139 138 l -70 138 l -70 69 l -139 69 l -139 138 m 1310 279 l 1379 276 l 1379 207 l 1310 207 l 1310 279 m 1379 276 l 1448 279 l 1458 207 l 1379 207 l 1379 276 m 1241 138 l 1310 138 l 1310 69 l 1241 69 l 1241 138 m 1172 0 l 1241 -2 l 1241 -71 l 1180 -71 l 1172 0 m 1241 69 l 1310 69 l 1310 0 l 1241 -2 l 1241 69 m 1310 138 l 1379 138 l 1379 69 l 1310 69 l 1310 138 m 1724 1044 l 1793 1044 l 1805 975 l 1724 972 l 1724 1044 m 1448 348 l 1517 348 l 1517 276 l 1458 279 l 1448 348 m 1310 207 l 1379 207 l 1379 138 l 1310 138 l 1310 207 m 1379 207 l 1448 207 l 1458 138 l 1379 138 l 1379 207 m 1310 348 l 1379 348 l 1379 276 l 1310 276 l 1310 348 m 1379 348 l 1448 348 l 1458 276 l 1379 279 l 1379 348 m -1 -71 l 68 -71 l 68 -140 l 0 -140 l -1 -71 m 1724 1113 l 1793 1113 l 1805 1044 l 1724 1044 l 1724 1113 m 68 -71 l 137 -71 l 137 -140 l 68 -140 l 68 -71 m 137 -71 l 206 -71 l 206 -140 l 137 -140 l 137 -71 m 827 -71 l 896 -71 l 896 -140 l 827 -140 l 827 -71 m 896 -71 l 965 -71 l 965 -140 l 896 -140 l 896 -71 m 965 0 l 1034 -2 l 1034 -71 l 965 -71 l 965 0 m 1034 0 l 1103 -2 l 1103 -71 l 1041 -71 l 1034 0 m 965 -71 l 1034 -71 l 1041 -140 l 965 -140 l 965 -71 m 1034 -71 l 1103 -71 l 1103 -140 l 1041 -140 l 1034 -71 m 1103 69 l 1172 69 l 1180 0 l 1103 -2 l 1103 69 m 1172 138 l 1241 138 l 1241 69 l 1180 69 l 1172 138 m 1241 276 l 1310 279 l 1310 207 l 1241 207 l 1241 276 m 1241 207 l 1310 207 l 1310 138 l 1241 138 l 1241 207 m 1379 417 l 1448 417 l 1458 348 l 1379 348 l 1379 417 m 1448 417 l 1517 417 l 1517 348 l 1458 348 l 1448 417 m 1517 486 l 1586 486 l 1586 417 l 1517 417 l 1517 486 m 1655 834 l 1724 833 l 1724 764 l 1655 764 l 1655 834 m 1655 903 l 1724 903 l 1724 834 l 1655 833 l 1655 903 m 1586 834 l 1655 833 l 1655 764 l 1586 764 l 1586 834 m 896 0 l 965 -2 l 965 -71 l 896 -71 l 896 0 m 1034 69 l 1103 69 l 1103 0 l 1041 -2 l 1034 69 m 1103 138 l 1172 138 l 1180 69 l 1103 69 l 1103 138 m 1172 207 l 1241 207 l 1241 138 l 1180 138 l 1172 207 m 1793 1251 l 1862 1251 l 1862 1182 l 1793 1182 l 1793 1251 m -208 207 l -139 207 l -139 138 l -208 138 l -208 207 m 827 695 l 896 695 l 896 626 l 827 626 l 827 695 m 413 764 l 482 764 l 482 695 l 413 694 l 413 764 m 1517 1598 l 1586 1597 l 1586 1528 l 1517 1528 l 1517 1598 m -70 555 l -1 557 l 0 486 l -70 486 l -70 555 m -1 626 l 68 626 l 68 555 l 0 557 l -1 626 m 1034 626 l 1103 626 l 1103 555 l 1041 557 l 1034 626 m 1517 0 l 1586 -2 l 1586 -71 l 1517 -71 l 1517 0 m 1517 -71 l 1586 -71 l 1586 -140 l 1517 -140 l 1517 -71 m 1517 69 l 1586 69 l 1586 0 l 1517 -2 l 1517 69 m 1448 -140 l 1517 -140 l 1517 -209 l 1458 -209 l 1448 -140 m 1379 -278 l 1448 -280 l 1458 -349 l 1379 -349 l 1379 -278 m 1241 -418 l 1310 -418 l 1310 -487 l 1241 -487 l 1241 -418 m 1310 -349 l 1379 -349 l 1379 -418 l 1310 -418 l 1310 -349 m 1103 -487 l 1172 -487 l 1180 -556 l 1103 -556 l 1103 -487 m 1172 -418 l 1241 -418 l 1241 -487 l 1180 -487 l 1172 -418 m -277 -349 l -208 -349 l -208 -418 l -277 -418 l -277 -349 m -416 -280 l -347 -278 l -347 -349 l -416 -349 l -416 -280 m -347 -349 l -277 -349 l -277 -418 l -347 -418 l -347 -349 m -555 -140 l -486 -140 l -486 -209 l -555 -209 l -555 -140 m -486 -209 l -416 -209 l -416 -280 l -486 -278 l -486 -209 m -555 -71 l -486 -71 l -486 -140 l -555 -140 l -555 -71 m -70 -487 l -1 -487 l 0 -556 l -70 -556 l -70 -487 m -208 -418 l -139 -418 l -139 -487 l -208 -487 l -208 -418 m -139 -418 l -70 -418 l -70 -487 l -139 -487 l -139 -418 m 1586 1598 l 1655 1598 l 1655 1528 l 1586 1528 l 1586 1598 m 1172 1182 l 1241 1182 l 1241 1113 l 1180 1113 l 1172 1182 m 1172 1113 l 1241 1113 l 1241 1044 l 1180 1044 l 1172 1113 m 1655 1667 l 1724 1667 l 1724 1598 l 1655 1598 l 1655 1667 m 1793 1528 l 1862 1528 l 1862 1459 l 1805 1459 l 1793 1528 m 551 764 l 620 764 l 620 695 l 551 694 l 551 764 m 620 764 l 689 764 l 689 695 l 620 694 l 620 764 m 689 764 l 758 764 l 758 695 l 689 694 l 689 764 m 620 -140 l 689 -140 l 689 -209 l 620 -209 l 620 -140 m 689 -140 l 758 -140 l 758 -209 l 689 -209 l 689 -140 m 758 -140 l 827 -140 l 827 -209 l 758 -209 l 758 -140 m 758 -71 l 827 -71 l 827 -140 l 758 -140 l 758 -71 m 827 -140 l 896 -140 l 896 -209 l 827 -209 l 827 -140 m 482 764 l 551 764 l 551 695 l 482 694 l 482 764 m 206 -556 l 275 -556 l 275 -625 l 208 -625 l 206 -556 m 275 -556 l 344 -556 l 344 -625 l 275 -625 l 275 -556 m 137 -487 l 206 -487 l 208 -556 l 137 -556 l 137 -487 m -1 -487 l 68 -487 l 68 -556 l 0 -556 l -1 -487 m 68 -487 l 137 -487 l 137 -556 l 68 -556 l 68 -487 m 344 -556 l 413 -556 l 413 -625 l 344 -625 l 344 -556 m 1517 626 l 1586 626 l 1586 555 l 1517 557 l 1517 626 m 1448 626 l 1517 626 l 1517 555 l 1458 555 l 1448 626 m 1586 626 l 1655 626 l 1655 555 l 1586 557 l 1586 626 m 1586 903 l 1655 903 l 1655 834 l 1586 833 l 1586 903 m 1793 1320 l 1862 1320 l 1862 1251 l 1805 1251 l 1793 1320 m 1724 1182 l 1793 1182 l 1805 1113 l 1724 1113 l 1724 1182 m 1517 695 l 1586 694 l 1586 626 l 1517 626 l 1517 695 m 1586 695 l 1655 694 l 1655 626 l 1586 626 l 1586 695 m 1517 764 l 1586 764 l 1586 695 l 1517 694 l 1517 764 m 1586 764 l 1655 764 l 1655 695 l 1586 694 l 1586 764 m 1655 975 l 1724 972 l 1724 903 l 1655 903 l 1655 975 m 1724 975 l 1793 972 l 1805 903 l 1724 903 l 1724 975 m 1103 903 l 1172 903 l 1180 834 l 1103 833 l 1103 903 m 1034 417 l 1103 417 l 1103 348 l 1041 348 l 1034 417 m -208 276 l -139 279 l -139 207 l -208 207 l -208 276 m -208 348 l -139 348 l -139 276 l -208 279 l -208 348 m -139 417 l -70 417 l -70 348 l -139 348 l -139 417 m -139 486 l -70 486 l -70 417 l -139 417 l -139 486 m 482 -140 l 551 -140 l 551 -209 l 482 -209 l 482 -140 m 551 -140 l 620 -140 l 620 -209 l 551 -209 l 551 -140 m 206 695 l 275 694 l 275 626 l 208 626 l 206 695 m 137 695 l 206 694 l 208 626 l 137 626 l 137 695 m 1034 348 l 1103 348 l 1103 276 l 1041 279 l 1034 348 m 1103 1044 l 1172 1044 l 1180 975 l 1103 972 l 1103 1044 m 1034 834 l 1103 833 l 1103 764 l 1041 764 l 1034 834 m 1034 555 l 1103 557 l 1103 486 l 1041 486 l 1034 555 m 1034 486 l 1103 486 l 1103 417 l 1041 417 l 1034 486 m 1103 276 l 1172 279 l 1180 207 l 1103 207 l 1103 276 m 1448 1528 l 1517 1528 l 1517 1459 l 1458 1459 l 1448 1528 m 1103 975 l 1172 972 l 1180 903 l 1103 903 l 1103 975 m 1310 486 l 1379 486 l 1379 417 l 1310 417 l 1310 486 m 1310 417 l 1379 417 l 1379 348 l 1310 348 l 1310 417 m 1172 626 l 1241 626 l 1241 555 l 1180 557 l 1172 626 m 896 695 l 965 694 l 965 626 l 896 626 l 896 695 m 1034 695 l 1103 694 l 1103 626 l 1041 626 l 1034 695 m 68 626 l 137 626 l 137 555 l 68 557 l 68 626 m 1241 555 l 1310 557 l 1310 486 l 1241 486 l 1241 555 m 1517 138 l 1586 138 l 1586 69 l 1517 69 l 1517 138 m 1448 -209 l 1517 -209 l 1517 -280 l 1458 -278 l 1448 -209 m 1034 -487 l 1103 -487 l 1103 -556 l 1041 -556 l 1034 -487 m 1517 207 l 1586 207 l 1586 138 l 1517 138 l 1517 207 m 1172 -71 l 1241 -71 l 1241 -140 l 1180 -140 l 1172 -71 m 1241 -140 l 1310 -140 l 1310 -209 l 1241 -209 l 1241 -140 m 620 -556 l 689 -556 l 689 -625 l 620 -625 l 620 -556 m 413 -556 l 482 -556 l 482 -625 l 413 -625 l 413 -556 m 482 -556 l 551 -556 l 551 -625 l 482 -625 l 482 -556 m 551 -556 l 620 -556 l 620 -625 l 551 -625 l 551 -556 m 1310 1389 l 1379 1390 l 1379 1320 l 1310 1320 l 1310 1389 m 1793 1390 l 1862 1389 l 1862 1320 l 1805 1320 l 1793 1390 m 1379 1459 l 1448 1459 l 1458 1390 l 1379 1389 l 1379 1459 m 1793 1459 l 1862 1459 l 1862 1390 l 1805 1389 l 1793 1459 m 1448 276 l 1517 279 l 1517 207 l 1458 207 l 1448 276 m 1034 764 l 1103 764 l 1103 695 l 1041 694 l 1034 764 m 1103 207 l 1172 207 l 1180 138 l 1103 138 l 1103 207 m -139 69 l -70 69 l -70 0 l -139 -2 l -139 69 m 275 -140 l 344 -140 l 344 -209 l 275 -209 l 275 -140 m 206 -140 l 275 -140 l 275 -209 l 208 -209 l 206 -140 m 1793 1598 l 1862 1598 l 1862 1528 l 1805 1528 l 1793 1598 m 1724 1667 l 1793 1667 l 1805 1598 l 1724 1598 l 1724 1667 m 896 -140 l 965 -140 l 965 -209 l 896 -209 l 896 -140 m 1448 -349 l 1517 -349 l 1517 -418 l 1458 -418 l 1448 -349 m 1310 -209 l 1379 -209 l 1379 -280 l 1310 -278 l 1310 -209 m 1517 -349 l 1586 -349 l 1586 -418 l 1517 -418 l 1517 -349 m 1586 -418 l 1655 -418 l 1655 -487 l 1586 -487 l 1586 -418 m 1655 -418 l 1724 -418 l 1724 -487 l 1655 -487 l 1655 -418 m 344 764 l 413 764 l 413 695 l 344 694 l 344 764 m 413 -140 l 482 -140 l 482 -209 l 413 -209 l 413 -140 m 275 764 l 344 764 l 344 695 l 275 694 l 275 764 m 344 -140 l 413 -140 l 413 -209 l 344 -209 l 344 -140 m 1103 626 l 1172 626 l 1180 555 l 1103 557 l 1103 626 m 965 695 l 1034 694 l 1041 626 l 965 626 l 965 695 m 965 -487 l 1034 -487 l 1041 -556 l 965 -556 l 965 -487 m 896 -556 l 965 -556 l 965 -625 l 896 -625 l 896 -556 m 689 -556 l 758 -556 l 758 -625 l 689 -625 l 689 -556 m 758 -556 l 827 -556 l 827 -625 l 758 -625 l 758 -556 m 827 -556 l 896 -556 l 896 -625 l 827 -625 l 827 -556 m 758 764 l 827 764 l 827 694 l 758 695 l 758 764 m 1805 1806 l 1736 1806 l 1736 1875 l 1805 1875 l 1805 1806 m 1736 1875 l 1666 1875 l 1666 1944 l 1736 1944 l 1736 1875 m 1666 1875 l 1597 1875 l 1597 1944 l 1666 1944 l 1666 1875 "},"µ":{"x_min":-763.953125,"x_max":2986.34375,"ha":1528,"o":"m 827 696 l 896 694 l 896 625 l 827 625 l 827 696 m 758 556 l 827 555 l 827 486 l 758 486 l 758 556 m 206 1250 l 275 1250 l 275 1181 l 206 1180 l 206 1250 m 137 1181 l 208 1181 l 206 1111 l 137 1111 l 137 1181 m 551 69 l 620 69 l 620 0 l 551 0 l 551 69 m 689 348 l 758 348 l 758 276 l 689 276 l 689 348 m 620 417 l 689 417 l 689 348 l 620 348 l 620 417 m 1172 1460 l 1241 1458 l 1250 1389 l 1172 1389 l 1172 1460 m 689 276 l 758 276 l 758 207 l 689 207 l 689 276 m 689 486 l 758 486 l 758 417 l 689 417 l 689 486 m 689 417 l 758 417 l 758 348 l 689 348 l 689 417 m 758 417 l 827 417 l 827 348 l 758 348 l 758 417 m 68 1042 l 137 1042 l 137 973 l 68 973 l 68 1042 m 1172 1529 l 1241 1529 l 1250 1460 l 1172 1458 l 1172 1529 m 482 69 l 551 69 l 551 0 l 482 0 l 482 69 m 551 138 l 620 138 l 620 69 l 551 69 l 551 138 m 620 207 l 689 207 l 689 138 l 620 138 l 620 207 m 758 486 l 827 486 l 827 417 l 758 417 l 758 486 m 827 765 l 896 765 l 896 696 l 827 694 l 827 765 m 1034 903 l 1103 903 l 1103 834 l 1034 834 l 1034 903 m 896 765 l 965 765 l 965 696 l 896 694 l 896 765 m 551 207 l 620 207 l 620 138 l 551 138 l 551 207 m 620 276 l 689 276 l 689 207 l 620 207 l 620 276 m -139 696 l -70 694 l -70 625 l -139 625 l -139 696 m 137 -349 l 206 -349 l 208 -418 l 137 -418 l 137 -349 m 275 -418 l 344 -418 l 344 -487 l 275 -487 l 275 -418 m 68 1111 l 137 1111 l 137 1042 l 68 1042 l 68 1111 m 206 -418 l 275 -418 l 275 -487 l 208 -487 l 206 -418 m 689 1598 l 758 1598 l 758 1529 l 689 1529 l 689 1598 m 896 1667 l 965 1667 l 972 1598 l 896 1598 l 896 1667 m 827 1667 l 896 1667 l 896 1598 l 827 1598 l 827 1667 m 275 1319 l 344 1320 l 344 1250 l 275 1250 l 275 1319 m 551 1529 l 620 1529 l 620 1460 l 551 1458 l 551 1529 m 620 1598 l 689 1598 l 689 1529 l 620 1529 l 620 1598 m 344 1389 l 413 1389 l 413 1320 l 344 1319 l 344 1389 m 758 1667 l 827 1667 l 827 1598 l 758 1598 l 758 1667 m -1 -280 l 68 -280 l 68 -349 l -1 -349 l -1 -280 m 68 -349 l 137 -349 l 137 -418 l 68 -418 l 68 -349 m -70 -210 l -1 -210 l -1 -280 l -70 -280 l -70 -210 m 482 1529 l 551 1529 l 551 1460 l 482 1458 l 482 1529 m 827 625 l 896 625 l 896 555 l 827 556 l 827 625 m 1103 1598 l 1172 1598 l 1172 1529 l 1103 1529 l 1103 1598 m 1172 1389 l 1241 1389 l 1250 1320 l 1172 1319 l 1172 1389 m 1172 1320 l 1241 1319 l 1250 1250 l 1172 1250 l 1172 1320 m 413 1460 l 482 1458 l 482 1389 l 413 1389 l 413 1460 m -208 486 l -139 486 l -139 417 l -208 417 l -208 486 m -139 555 l -70 556 l -70 486 l -139 486 l -139 555 m -208 348 l -139 348 l -139 276 l -208 276 l -208 348 m -208 417 l -139 417 l -139 348 l -208 348 l -208 417 m -208 276 l -139 276 l -139 207 l -208 207 l -208 276 m -208 138 l -139 138 l -139 69 l -208 69 l -208 138 m -208 207 l -139 207 l -139 138 l -208 138 l -208 207 m -208 69 l -139 69 l -139 0 l -208 0 l -208 69 m -139 -69 l -70 -70 l -70 -139 l -139 -139 l -139 -69 m -139 0 l -70 0 l -70 -70 l -139 -69 l -139 0 m -70 -139 l -1 -139 l -1 -208 l -70 -208 l -70 -139 m 344 -418 l 413 -418 l 413 -487 l 344 -487 l 344 -418 m 413 -487 l 482 -487 l 482 -556 l 413 -556 l 413 -487 m 482 -487 l 551 -487 l 551 -556 l 482 -556 l 482 -487 m 551 -487 l 620 -487 l 620 -556 l 551 -556 l 551 -487 m 620 -487 l 689 -487 l 689 -556 l 620 -556 l 620 -487 m 689 -487 l 758 -487 l 758 -556 l 689 -556 l 689 -487 m 758 -487 l 827 -487 l 827 -556 l 758 -556 l 758 -487 m 827 -487 l 896 -487 l 896 -556 l 827 -556 l 827 -487 m 896 -487 l 965 -487 l 972 -556 l 896 -556 l 896 -487 m 965 -487 l 1034 -487 l 1034 -556 l 972 -556 l 965 -487 m 1034 -487 l 1103 -487 l 1103 -556 l 1034 -556 l 1034 -487 m 1103 -418 l 1172 -418 l 1172 -487 l 1103 -487 l 1103 -418 m 1172 -418 l 1241 -418 l 1250 -487 l 1172 -487 l 1172 -418 m 1241 -418 l 1310 -418 l 1310 -487 l 1250 -487 l 1241 -418 m 1310 -349 l 1379 -349 l 1379 -418 l 1310 -418 l 1310 -349 m 1379 -349 l 1448 -349 l 1448 -418 l 1389 -418 l 1379 -349 m 896 903 l 965 902 l 972 834 l 896 834 l 896 903 m 965 903 l 1034 902 l 1034 834 l 972 834 l 965 903 m 1379 834 l 1448 834 l 1448 765 l 1389 765 l 1379 834 m -70 765 l -1 765 l -1 696 l -70 694 l -70 765 m -70 834 l -1 834 l -1 765 l -70 765 l -70 834 m 1103 1111 l 1172 1111 l 1172 1042 l 1103 1042 l 1103 1111 m -1 903 l 68 902 l 68 834 l -1 834 l -1 903 m -1 973 l 68 972 l 68 903 l -1 902 l -1 973 m 1448 -280 l 1527 -280 l 1517 -349 l 1448 -349 l 1448 -280 m 827 555 l 896 556 l 896 486 l 827 486 l 827 555 m 896 696 l 965 694 l 972 625 l 896 625 l 896 696 m 620 -70 l 689 -69 l 689 -139 l 620 -139 l 620 -70 m 689 -70 l 758 -69 l 758 -139 l 689 -139 l 689 -70 m 551 276 l 620 276 l 620 207 l 551 207 l 551 276 m 620 348 l 689 348 l 689 276 l 620 276 l 620 348 m 482 138 l 551 138 l 551 69 l 482 69 l 482 138 m 1172 1250 l 1241 1250 l 1250 1181 l 1172 1180 l 1172 1250 m 1103 1042 l 1172 1042 l 1172 973 l 1103 972 l 1103 1042 m 1034 1042 l 1103 1042 l 1103 973 l 1034 972 l 1034 1042 m 965 834 l 1034 834 l 1034 765 l 965 765 l 965 834 m 896 834 l 965 834 l 972 765 l 896 765 l 896 834 m 965 138 l 1034 138 l 1034 69 l 972 69 l 965 138 m 1034 207 l 1103 207 l 1103 138 l 1034 138 l 1034 207 m 1103 276 l 1172 276 l 1172 207 l 1103 207 l 1103 276 m 1103 348 l 1172 348 l 1172 276 l 1103 276 l 1103 348 m 1172 417 l 1241 417 l 1250 348 l 1172 348 l 1172 417 m 1172 486 l 1241 486 l 1250 417 l 1172 417 l 1172 486 m 1241 555 l 1310 556 l 1310 486 l 1250 486 l 1241 555 m 1241 625 l 1310 625 l 1310 555 l 1250 556 l 1241 625 m 1310 696 l 1379 694 l 1389 625 l 1310 625 l 1310 696 m 1310 765 l 1379 765 l 1389 696 l 1310 694 l 1310 765 m 551 0 l 620 0 l 620 -70 l 551 -69 l 551 0 m 482 0 l 551 0 l 551 -70 l 482 -69 l 482 0 m 551 -70 l 620 -69 l 620 -139 l 551 -139 l 551 -70 m 965 1667 l 1034 1667 l 1034 1598 l 972 1598 l 965 1667 m 620 138 l 689 138 l 689 69 l 620 69 l 620 138 m 758 625 l 827 625 l 827 555 l 758 555 l 758 625 m 1172 1181 l 1241 1180 l 1250 1111 l 1172 1111 l 1172 1181 m 1172 1111 l 1241 1111 l 1241 1042 l 1172 1042 l 1172 1111 m 689 555 l 758 556 l 758 486 l 689 486 l 689 555 m 758 696 l 827 694 l 827 625 l 758 625 l 758 696 m 482 207 l 551 207 l 551 138 l 482 138 l 482 207 m 551 348 l 620 348 l 620 276 l 551 276 l 551 348 m 620 486 l 689 486 l 689 417 l 620 417 l 620 486 m 689 625 l 758 625 l 758 555 l 689 556 l 689 625 m 1103 1181 l 1172 1180 l 1172 1111 l 1103 1111 l 1103 1181 m 1103 1250 l 1172 1250 l 1172 1181 l 1103 1180 l 1103 1250 m 1034 1111 l 1103 1111 l 1103 1042 l 1034 1042 l 1034 1111 m 827 0 l 896 0 l 896 -70 l 827 -69 l 827 0 m 2222 1667 l 2291 1667 l 2291 1598 l 2222 1598 l 2222 1667 m 2291 1667 l 2361 1667 l 2361 1598 l 2291 1598 l 2291 1667 m 2361 1736 l 2430 1736 l 2430 1667 l 2361 1667 l 2361 1736 m 2708 1736 l 2778 1736 l 2778 1667 l 2708 1667 l 2708 1736 m 1586 1250 l 1655 1250 l 1655 1181 l 1586 1180 l 1586 1250 m 1655 1320 l 1724 1319 l 1724 1250 l 1655 1250 l 1655 1320 m 1793 1460 l 1862 1458 l 1862 1389 l 1793 1389 l 1793 1460 m 2778 1736 l 2847 1736 l 2847 1667 l 2778 1667 l 2778 1736 m 2916 1667 l 2986 1667 l 2986 1598 l 2916 1598 l 2916 1667 m 2847 1667 l 2916 1667 l 2916 1598 l 2847 1598 l 2847 1667 m 2430 1736 l 2500 1736 l 2500 1667 l 2430 1667 l 2430 1736 m 2500 1736 l 2569 1736 l 2569 1667 l 2500 1667 l 2500 1736 m 2569 1736 l 2639 1736 l 2639 1667 l 2569 1667 l 2569 1736 m 2639 1736 l 2708 1736 l 2708 1667 l 2639 1667 l 2639 1736 m 2152 1667 l 2222 1667 l 2222 1598 l 2152 1598 l 2152 1667 m 2083 1598 l 2152 1598 l 2152 1529 l 2083 1529 l 2083 1598 m 1931 1529 l 2000 1529 l 2000 1460 l 1931 1458 l 1931 1529 m 2014 1598 l 2083 1598 l 2083 1529 l 2014 1529 l 2014 1598 m 1862 1529 l 1931 1529 l 1931 1460 l 1862 1458 l 1862 1529 m 1724 1389 l 1793 1389 l 1793 1320 l 1724 1319 l 1724 1389 m 1448 1042 l 1517 1042 l 1517 973 l 1448 972 l 1448 1042 m 1448 973 l 1517 972 l 1527 903 l 1448 902 l 1448 973 m 1517 1181 l 1586 1180 l 1586 1111 l 1527 1111 l 1517 1181 m 1517 1111 l 1586 1111 l 1586 1042 l 1527 1042 l 1517 1111 m 758 0 l 827 0 l 827 -70 l 758 -69 l 758 0 m 896 69 l 965 69 l 972 0 l 896 0 l 896 69 m 965 973 l 1034 972 l 1034 903 l 972 902 l 965 973 m -208 625 l -139 625 l -139 555 l -208 556 l -208 625 m 1862 696 l 1931 694 l 1931 625 l 1862 625 l 1862 696 m 1862 765 l 1931 765 l 1931 696 l 1862 694 l 1862 765 m -694 696 l -625 694 l -625 625 l -694 625 l -694 696 m -625 696 l -555 694 l -555 625 l -625 625 l -625 696 m -555 625 l -486 625 l -486 555 l -555 556 l -555 625 m -486 625 l -416 625 l -416 555 l -486 556 l -486 625 m -416 625 l -347 625 l -347 555 l -416 556 l -416 625 m -347 625 l -277 625 l -277 555 l -347 556 l -347 625 m -277 625 l -208 625 l -208 555 l -277 556 l -277 625 m -139 625 l -70 625 l -70 555 l -139 556 l -139 625 m -70 625 l -1 625 l -1 555 l -70 556 l -70 625 m -1 625 l 68 625 l 68 555 l -1 556 l -1 625 m 68 696 l 137 694 l 137 625 l 68 625 l 68 696 m 137 696 l 206 694 l 208 625 l 137 625 l 137 696 m 206 696 l 275 694 l 275 625 l 208 625 l 206 696 m -763 765 l -694 765 l -694 696 l -763 694 l -763 765 m 275 765 l 344 765 l 344 696 l 275 694 l 275 765 m 344 765 l 413 765 l 413 696 l 344 694 l 344 765 m 413 765 l 482 765 l 482 696 l 413 694 l 413 765 m 482 834 l 551 834 l 551 765 l 482 765 l 482 834 m 551 834 l 620 834 l 620 765 l 551 765 l 551 834 m 620 834 l 689 834 l 689 765 l 620 765 l 620 834 m 689 903 l 758 902 l 758 834 l 689 834 l 689 903 m 758 903 l 827 902 l 827 834 l 758 834 l 758 903 m 827 903 l 896 902 l 896 834 l 827 834 l 827 903 m 1379 903 l 1448 902 l 1448 834 l 1389 834 l 1379 903 m 1310 1042 l 1379 1042 l 1389 973 l 1310 972 l 1310 1042 m 1793 834 l 1862 834 l 1862 765 l 1793 765 l 1793 834 m 1241 973 l 1310 972 l 1310 903 l 1250 902 l 1241 973 m 1103 973 l 1172 972 l 1172 903 l 1103 902 l 1103 973 m 1172 973 l 1241 972 l 1250 903 l 1172 902 l 1172 973 m 896 973 l 965 972 l 972 903 l 896 902 l 896 973 m 1724 973 l 1793 972 l 1793 903 l 1736 902 l 1724 973 m 1034 973 l 1103 972 l 1103 903 l 1034 902 l 1034 973 m 1379 1042 l 1448 1042 l 1448 973 l 1389 972 l 1379 1042 m 1517 1042 l 1586 1042 l 1586 973 l 1517 972 l 1517 1042 m 1586 1042 l 1655 1042 l 1655 973 l 1586 972 l 1586 1042 m 1655 973 l 1724 972 l 1736 903 l 1655 902 l 1655 973 m 1793 903 l 1862 902 l 1862 834 l 1793 834 l 1793 903 m 1034 1667 l 1103 1667 l 1103 1598 l 1034 1598 l 1034 1667 "},"Ç":{"x_min":-416,"x_max":1792,"ha":1458,"o":"m -2 765 l -71 765 l -71 834 l -2 834 l -2 765 m 412 486 l 481 486 l 481 417 l 412 417 l 412 486 m 481 555 l 550 555 l 550 486 l 481 486 l 481 555 m 1309 -416 l 1378 -418 l 1378 -487 l 1309 -487 l 1309 -416 m 1240 -418 l 1309 -416 l 1309 -487 l 1240 -487 l 1240 -418 m 964 -487 l 1033 -487 l 1033 -556 l 964 -556 l 964 -487 m 1171 -487 l 1250 -487 l 1240 -556 l 1171 -556 l 1171 -487 m 1033 -487 l 1102 -487 l 1102 -556 l 1033 -556 l 1033 -487 m 1102 -487 l 1171 -487 l 1171 -556 l 1102 -556 l 1102 -487 m -69 833 l -140 834 l -140 903 l -71 903 l -69 833 m -140 834 l -209 833 l -209 903 l -140 903 l -140 834 m -278 973 l -347 973 l -347 1043 l -278 1042 l -278 973 m 826 1043 l 895 1042 l 895 973 l 826 972 l 826 1043 m 481 624 l 550 624 l 555 555 l 481 555 l 481 624 m 481 696 l 550 696 l 555 624 l 481 624 l 481 696 m 688 973 l 757 972 l 757 903 l 688 903 l 688 973 m 757 1043 l 826 1042 l 833 973 l 757 972 l 757 1043 m 550 624 l 619 624 l 619 555 l 550 555 l 550 624 m 550 696 l 619 696 l 625 624 l 555 624 l 550 696 m 757 973 l 826 972 l 833 903 l 757 903 l 757 973 m 826 973 l 895 972 l 895 903 l 833 903 l 826 973 m 412 555 l 481 555 l 481 486 l 412 486 l 412 555 m 412 624 l 481 624 l 481 555 l 412 555 l 412 624 m 688 1043 l 757 1042 l 757 973 l 688 972 l 688 1043 m 895 1043 l 964 1042 l 964 973 l 895 972 l 895 1043 m 343 486 l 412 486 l 412 417 l 343 417 l 343 486 m 412 696 l 481 696 l 481 624 l 412 624 l 412 696 m 619 973 l 688 972 l 688 903 l 625 903 l 619 973 m 343 69 l 412 69 l 412 0 l 343 0 l 343 69 m 343 696 l 274 696 l 274 765 l 343 765 l 343 696 m 1447 -347 l 1516 -347 l 1516 -418 l 1447 -416 l 1447 -347 m 1378 -418 l 1447 -416 l 1458 -487 l 1378 -487 l 1378 -418 m 1171 765 l 1102 765 l 1102 834 l 1171 833 l 1171 765 m 1102 765 l 1033 765 l 1033 834 l 1102 833 l 1102 765 m 1033 765 l 964 765 l 964 834 l 1033 833 l 1033 765 m 67 765 l -2 765 l -2 834 l 67 833 l 67 765 m 481 765 l 550 765 l 555 696 l 481 696 l 481 765 m 550 765 l 619 765 l 625 696 l 555 696 l 550 765 m 619 765 l 688 765 l 688 696 l 625 696 l 619 765 m 550 834 l 619 833 l 625 765 l 555 765 l 550 834 m 619 834 l 688 833 l 688 765 l 625 765 l 619 834 m 688 834 l 757 833 l 757 765 l 688 765 l 688 834 m 895 696 l 826 696 l 833 765 l 895 765 l 895 696 m 964 696 l 895 696 l 895 765 l 964 765 l 964 696 m 757 696 l 688 696 l 688 765 l 757 765 l 757 696 m 826 696 l 757 696 l 757 765 l 833 765 l 826 696 m 619 696 l 688 696 l 688 624 l 619 624 l 619 696 m -209 903 l -278 903 l -278 973 l -209 972 l -209 903 m 412 -278 l 481 -278 l 481 -347 l 412 -347 l 412 -278 m 550 -418 l 619 -416 l 625 -487 l 555 -487 l 550 -418 m 619 -418 l 688 -416 l 688 -487 l 625 -487 l 619 -418 m 826 -487 l 895 -487 l 895 -556 l 833 -556 l 826 -487 m 895 -487 l 964 -487 l 964 -556 l 895 -556 l 895 -487 m 757 -487 l 826 -487 l 833 -556 l 757 -556 l 757 -487 m 688 -487 l 757 -487 l 757 -556 l 688 -556 l 688 -487 m 274 69 l 343 69 l 343 0 l 274 0 l 274 69 m 343 -209 l 412 -209 l 412 -278 l 343 -278 l 343 -209 m 343 0 l 412 0 l 412 -70 l 343 -70 l 343 0 m 343 -70 l 412 -70 l 412 -139 l 343 -139 l 343 -70 m 274 0 l 343 0 l 343 -70 l 274 -70 l 274 0 m 274 -70 l 343 -70 l 343 -139 l 274 -139 l 274 -70 m 1378 903 l 1309 903 l 1309 973 l 1378 972 l 1378 903 m 274 348 l 343 348 l 343 279 l 274 277 l 274 348 m 343 348 l 412 348 l 412 277 l 343 279 l 343 348 m 1240 834 l 1171 833 l 1171 903 l 1250 903 l 1240 834 m 1309 834 l 1240 833 l 1250 903 l 1309 903 l 1309 834 m 619 903 l 688 903 l 688 834 l 625 833 l 619 903 m 688 903 l 757 903 l 757 834 l 688 833 l 688 903 m 757 903 l 826 903 l 833 834 l 757 833 l 757 903 m 550 903 l 619 903 l 625 834 l 555 833 l 550 903 m 481 -347 l 550 -347 l 555 -418 l 481 -416 l 481 -347 m 757 1112 l 826 1112 l 833 1043 l 757 1042 l 757 1112 m 1171 1389 l 1240 1389 l 1250 1320 l 1171 1320 l 1171 1389 m 1033 1320 l 1102 1319 l 1102 1250 l 1033 1250 l 1033 1320 m 1447 1389 l 1516 1389 l 1516 1320 l 1458 1319 l 1447 1389 m 1033 1250 l 1102 1250 l 1102 1181 l 1033 1181 l 1033 1250 m 1240 1389 l 1309 1389 l 1309 1320 l 1250 1319 l 1240 1389 m 1378 1389 l 1447 1389 l 1458 1320 l 1378 1319 l 1378 1389 m 1309 1389 l 1378 1389 l 1378 1320 l 1309 1319 l 1309 1389 m 826 1181 l 895 1181 l 895 1112 l 833 1112 l 826 1181 m 826 1112 l 895 1112 l 895 1043 l 833 1042 l 826 1112 m 895 1181 l 964 1181 l 964 1112 l 895 1112 l 895 1181 m 895 1112 l 964 1112 l 964 1043 l 895 1042 l 895 1112 m 964 1181 l 1033 1181 l 1033 1112 l 964 1112 l 964 1181 m 964 1112 l 1033 1112 l 1033 1043 l 964 1042 l 964 1112 m 964 1250 l 1033 1250 l 1033 1181 l 964 1181 l 964 1250 m 895 1250 l 964 1250 l 964 1181 l 895 1181 l 895 1250 m 1102 1320 l 1171 1319 l 1171 1250 l 1102 1250 l 1102 1320 m 1171 1320 l 1240 1319 l 1250 1250 l 1171 1250 l 1171 1320 m 1033 1181 l 1102 1181 l 1102 1112 l 1033 1112 l 1033 1181 m 1102 1250 l 1171 1250 l 1171 1181 l 1102 1181 l 1102 1250 m 1240 1320 l 1309 1319 l 1309 1250 l 1250 1250 l 1240 1320 m -278 1460 l -347 1458 l -347 1529 l -278 1529 l -278 1460 m -209 1529 l -278 1529 l -278 1598 l -209 1598 l -209 1529 m -71 1598 l -140 1598 l -140 1667 l -69 1667 l -71 1598 m -2 1598 l -71 1598 l -69 1667 l -2 1667 l -2 1598 m 205 1667 l 136 1667 l 136 1736 l 205 1736 l 205 1667 m 688 1598 l 619 1598 l 625 1667 l 688 1667 l 688 1598 m 757 1529 l 688 1529 l 688 1598 l 757 1598 l 757 1529 m 550 1598 l 481 1598 l 481 1667 l 555 1667 l 550 1598 m 619 1598 l 550 1598 l 555 1667 l 625 1667 l 619 1598 m 136 1667 l 67 1667 l 67 1736 l 136 1736 l 136 1667 m 826 1529 l 757 1529 l 757 1598 l 833 1598 l 826 1529 m 481 1667 l 412 1667 l 412 1736 l 481 1736 l 481 1667 m -278 1043 l -347 1042 l -347 1112 l -278 1112 l -278 1043 m 343 1667 l 274 1667 l 274 1736 l 343 1736 l 343 1667 m 412 1667 l 343 1667 l 343 1736 l 412 1736 l 412 1667 m -347 1181 l -416 1181 l -416 1250 l -347 1250 l -347 1181 m -347 1320 l -416 1319 l -416 1389 l -347 1389 l -347 1320 m -347 1250 l -416 1250 l -416 1320 l -347 1319 l -347 1250 m -347 1112 l -416 1112 l -416 1181 l -347 1181 l -347 1112 m -140 1529 l -209 1529 l -209 1598 l -140 1598 l -140 1529 m 1516 1460 l 1585 1458 l 1585 1389 l 1516 1389 l 1516 1460 m 1447 1460 l 1516 1458 l 1516 1389 l 1458 1389 l 1447 1460 m 1378 1460 l 1447 1458 l 1458 1389 l 1378 1389 l 1378 1460 m 1585 1460 l 1654 1458 l 1654 1389 l 1585 1389 l 1585 1460 m 1447 903 l 1378 903 l 1378 973 l 1458 972 l 1447 903 m 1792 1320 l 1723 1319 l 1723 1389 l 1792 1389 l 1792 1320 m 1792 1250 l 1723 1250 l 1723 1320 l 1792 1319 l 1792 1250 m 1792 1181 l 1723 1181 l 1723 1250 l 1792 1250 l 1792 1181 m 1516 973 l 1447 972 l 1458 1043 l 1516 1042 l 1516 973 m 1585 973 l 1516 972 l 1516 1043 l 1585 1042 l 1585 973 m 1723 1112 l 1654 1112 l 1654 1181 l 1723 1181 l 1723 1112 m 895 1460 l 826 1458 l 833 1529 l 895 1529 l 895 1460 m 964 1460 l 895 1458 l 895 1529 l 964 1529 l 964 1460 m 1033 1389 l 964 1389 l 964 1460 l 1033 1458 l 1033 1389 m 1654 834 l 1585 833 l 1585 903 l 1654 903 l 1654 834 m 1102 1320 l 1033 1319 l 1033 1389 l 1102 1389 l 1102 1320 m 1585 903 l 1516 903 l 1516 973 l 1585 972 l 1585 903 m 1447 1043 l 1378 1042 l 1378 1112 l 1458 1112 l 1447 1043 m 1378 1112 l 1309 1112 l 1309 1181 l 1378 1181 l 1378 1112 m 1309 1181 l 1240 1181 l 1250 1250 l 1309 1250 l 1309 1181 m 1240 1181 l 1171 1181 l 1171 1250 l 1250 1250 l 1240 1181 m 136 765 l 67 765 l 67 834 l 136 833 l 136 765 m 205 696 l 136 696 l 136 765 l 205 765 l 205 696 m 412 417 l 481 417 l 481 348 l 412 348 l 412 417 m 343 417 l 412 417 l 412 348 l 343 348 l 343 417 m 343 555 l 412 555 l 412 486 l 343 486 l 343 555 m 274 417 l 343 417 l 343 348 l 274 348 l 274 417 m 412 348 l 481 348 l 481 277 l 412 279 l 412 348 m 481 486 l 550 486 l 555 417 l 481 417 l 481 486 m 481 834 l 550 833 l 555 765 l 481 765 l 481 834 m 412 555 l 343 555 l 343 624 l 412 624 l 412 555 m 412 696 l 343 696 l 343 765 l 412 765 l 412 696 m 1723 765 l 1654 765 l 1654 834 l 1723 833 l 1723 765 m 481 696 l 412 696 l 412 765 l 481 765 l 481 696 m 1723 1389 l 1654 1389 l 1654 1460 l 1723 1458 l 1723 1389 m 274 696 l 205 696 l 205 765 l 274 765 l 274 696 m 274 1667 l 205 1667 l 205 1736 l 274 1736 l 274 1667 m 412 -209 l 481 -209 l 481 -278 l 412 -278 l 412 -209 m 1516 -347 l 1585 -347 l 1585 -418 l 1516 -416 l 1516 -347 m 67 1667 l -2 1667 l -2 1736 l 67 1736 l 67 1667 m -278 1389 l -347 1389 l -347 1460 l -278 1458 l -278 1389 m 343 -139 l 412 -139 l 412 -209 l 343 -209 l 343 -139 m 1654 1043 l 1585 1042 l 1585 1112 l 1654 1112 l 1654 1043 m 1309 1460 l 1378 1458 l 1378 1389 l 1309 1389 l 1309 1460 m 274 139 l 343 138 l 343 69 l 274 69 l 274 139 m 343 138 l 412 139 l 412 69 l 343 69 l 343 138 m 274 208 l 343 208 l 343 138 l 274 138 l 274 208 m 343 208 l 412 208 l 412 138 l 343 139 l 343 208 m 274 277 l 343 279 l 343 208 l 274 208 l 274 277 m 343 277 l 412 279 l 412 208 l 343 208 l 343 277 m 412 277 l 481 279 l 481 208 l 412 208 l 412 277 m 764 -623 l 833 -623 l 833 -692 l 764 -692 l 764 -623 m 833 -693 l 902 -693 l 902 -763 l 833 -763 l 833 -693 m 764 -763 l 833 -763 l 833 -832 l 764 -832 l 764 -763 m 833 -554 l 902 -554 l 902 -623 l 833 -623 l 833 -554 m 694 -763 l 764 -763 l 764 -832 l 694 -832 l 694 -763 "},"’":{"x_min":139,"x_max":346.453125,"ha":417,"o":"m 277 764 l 346 764 l 346 695 l 277 694 l 277 764 m 208 695 l 277 695 l 277 625 l 208 625 l 208 695 m 208 764 l 277 764 l 277 695 l 208 694 l 208 764 m 208 625 l 277 625 l 277 555 l 208 555 l 208 625 m 139 555 l 208 555 l 208 486 l 139 486 l 139 555 m 139 695 l 208 694 l 208 625 l 139 625 l 139 695 "},"-":{"x_min":138.90625,"x_max":347.25,"ha":486,"o":"m 138 208 l 208 208 l 208 139 l 138 139 l 138 208 m 208 208 l 277 208 l 277 139 l 208 139 l 208 208 m 277 208 l 347 208 l 347 139 l 277 139 l 277 208 "},"Q":{"x_min":-694.5,"x_max":2083.5,"ha":1875,"o":"m 1241 696 l 1310 696 l 1310 624 l 1241 624 l 1241 696 m 1103 555 l 1172 555 l 1172 486 l 1103 486 l 1103 555 m 206 1250 l 275 1250 l 275 1181 l 206 1180 l 206 1250 m 137 1181 l 208 1181 l 206 1111 l 137 1111 l 137 1181 m 827 139 l 896 138 l 896 69 l 827 69 l 827 139 m 758 69 l 833 69 l 827 0 l 758 -1 l 758 69 m 965 348 l 1034 348 l 1034 277 l 965 277 l 965 348 m 1034 348 l 1103 348 l 1103 277 l 1034 277 l 1034 348 m 896 208 l 965 208 l 965 138 l 896 139 l 896 208 m 965 208 l 1034 208 l 1034 138 l 965 139 l 965 208 m 1448 1460 l 1517 1458 l 1517 1389 l 1448 1389 l 1448 1460 m 1103 417 l 1172 417 l 1172 348 l 1103 348 l 1103 417 m 965 277 l 1034 277 l 1034 208 l 965 208 l 965 277 m 1034 277 l 1103 277 l 1103 208 l 1034 208 l 1034 277 m 965 417 l 1034 417 l 1034 348 l 965 348 l 965 417 m 1034 417 l 1103 417 l 1103 348 l 1034 348 l 1034 417 m -1 1042 l 68 1042 l 68 973 l -1 972 l -1 1042 m 1448 1529 l 1517 1529 l 1527 1460 l 1448 1458 l 1448 1529 m 206 69 l 275 69 l 275 0 l 208 -1 l 206 69 m 275 0 l 344 -1 l 344 -70 l 275 -70 l 275 0 m 344 0 l 413 -1 l 413 -70 l 344 -70 l 344 0 m 413 0 l 482 -1 l 482 -70 l 413 -70 l 413 0 m 482 0 l 551 -1 l 551 -70 l 482 -70 l 482 0 m 551 0 l 620 -1 l 620 -70 l 551 -70 l 551 0 m 620 69 l 689 69 l 689 0 l 620 -1 l 620 69 m 689 69 l 758 69 l 758 0 l 694 -1 l 689 69 m 758 138 l 827 139 l 833 69 l 758 69 l 758 138 m 827 208 l 896 208 l 896 138 l 833 138 l 827 208 m 896 348 l 965 348 l 965 277 l 896 277 l 896 348 m 896 277 l 965 277 l 965 208 l 896 208 l 896 277 m 1034 486 l 1103 486 l 1103 417 l 1034 417 l 1034 486 m 1103 486 l 1172 486 l 1172 417 l 1103 417 l 1103 486 m 1172 555 l 1241 555 l 1241 486 l 1172 486 l 1172 555 m 1310 765 l 1379 765 l 1379 696 l 1310 696 l 1310 765 m 1310 834 l 1379 834 l 1389 765 l 1310 765 l 1310 834 m 551 69 l 620 69 l 620 0 l 551 -1 l 551 69 m 620 138 l 689 139 l 694 69 l 620 69 l 620 138 m 689 138 l 758 139 l 758 69 l 694 69 l 689 138 m 758 208 l 827 208 l 833 138 l 758 139 l 758 208 m 827 277 l 896 277 l 896 208 l 833 208 l 827 277 m 137 -210 l 206 -210 l 208 -279 l 137 -279 l 137 -210 m 275 -279 l 344 -279 l 344 -348 l 275 -348 l 275 -279 m 68 1111 l 137 1111 l 137 1042 l 68 1042 l 68 1111 m 206 -279 l 275 -279 l 275 -348 l 208 -348 l 206 -279 m 758 1598 l 827 1598 l 833 1529 l 758 1529 l 758 1598 m 965 1667 l 1034 1667 l 1034 1598 l 965 1598 l 965 1667 m 896 1667 l 965 1667 l 965 1598 l 896 1598 l 896 1667 m 275 1319 l 344 1320 l 344 1250 l 275 1250 l 275 1319 m 620 1598 l 689 1598 l 694 1529 l 620 1529 l 620 1598 m 689 1598 l 758 1598 l 758 1529 l 694 1529 l 689 1598 m 344 1389 l 413 1389 l 413 1320 l 344 1319 l 344 1389 m 827 1667 l 896 1667 l 896 1598 l 833 1598 l 827 1667 m -1 -139 l 68 -141 l 68 -210 l -1 -210 l -1 -139 m 68 -210 l 137 -210 l 137 -279 l 68 -279 l 68 -210 m -70 -70 l -1 -70 l -1 -141 l -70 -139 l -70 -70 m 551 1529 l 620 1529 l 620 1460 l 551 1458 l 551 1529 m 1172 624 l 1241 624 l 1241 555 l 1172 555 l 1172 624 m 1241 624 l 1310 624 l 1310 555 l 1241 555 l 1241 624 m 1172 486 l 1241 486 l 1241 417 l 1172 417 l 1172 486 m 1103 348 l 1172 348 l 1172 277 l 1103 277 l 1103 348 m 1379 1598 l 1448 1598 l 1448 1529 l 1389 1529 l 1379 1598 m 1310 1598 l 1379 1598 l 1389 1529 l 1310 1529 l 1310 1598 m 1517 1389 l 1586 1389 l 1586 1320 l 1527 1319 l 1517 1389 m 1517 1320 l 1586 1319 l 1586 1250 l 1527 1250 l 1517 1320 m -139 624 l -70 624 l -70 555 l -139 555 l -139 624 m -208 486 l -139 486 l -139 417 l -208 417 l -208 486 m -208 555 l -139 555 l -139 486 l -208 486 l -208 555 m -208 417 l -139 417 l -139 348 l -208 348 l -208 417 m -208 277 l -139 277 l -139 208 l -208 208 l -208 277 m -208 348 l -139 348 l -139 277 l -208 277 l -208 348 m -208 208 l -139 208 l -139 138 l -208 139 l -208 208 m -139 69 l -70 69 l -70 0 l -139 -1 l -139 69 m -139 138 l -70 139 l -70 69 l -139 69 l -139 138 m -70 0 l -1 -1 l -1 -70 l -70 -70 l -70 0 m 344 -279 l 413 -279 l 413 -348 l 344 -348 l 344 -279 m 413 -348 l 482 -348 l 482 -417 l 413 -417 l 413 -348 m 482 -348 l 551 -348 l 551 -417 l 482 -417 l 482 -348 m 551 -348 l 620 -348 l 620 -417 l 551 -417 l 551 -348 m 620 -348 l 689 -348 l 694 -417 l 620 -417 l 620 -348 m 689 -348 l 758 -348 l 758 -417 l 694 -417 l 689 -348 m 758 -348 l 827 -348 l 833 -417 l 758 -417 l 758 -348 m 827 -279 l 896 -279 l 896 -348 l 833 -348 l 827 -279 m 896 -279 l 965 -279 l 965 -348 l 896 -348 l 896 -279 m 965 -279 l 1034 -279 l 1034 -348 l 965 -348 l 965 -279 m 1379 973 l 1448 972 l 1448 903 l 1389 903 l 1379 973 m 1448 973 l 1517 972 l 1527 903 l 1448 903 l 1448 973 m 1517 973 l 1586 972 l 1586 903 l 1527 903 l 1517 973 m 1517 1111 l 1586 1111 l 1586 1042 l 1527 1042 l 1517 1111 m -70 903 l -1 903 l -1 834 l -70 834 l -70 903 m 1517 1181 l 1586 1180 l 1586 1111 l 1527 1111 l 1517 1181 m -1 973 l 68 972 l 68 903 l -1 903 l -1 973 m 1517 1250 l 1586 1250 l 1586 1181 l 1527 1180 l 1517 1250 m 482 1529 l 551 1529 l 551 1460 l 482 1458 l 482 1529 m 413 1460 l 482 1458 l 482 1389 l 413 1389 l 413 1460 m 1517 1042 l 1586 1042 l 1586 973 l 1527 972 l 1517 1042 m 1034 1667 l 1103 1667 l 1103 1598 l 1034 1598 l 1034 1667 m 1448 1042 l 1517 1042 l 1527 973 l 1448 972 l 1448 1042 m 1379 765 l 1448 765 l 1448 696 l 1389 696 l 1379 765 m 1310 696 l 1379 696 l 1389 624 l 1310 624 l 1310 696 m 1379 696 l 1448 696 l 1448 624 l 1389 624 l 1379 696 m 1310 624 l 1379 624 l 1389 555 l 1310 555 l 1310 624 m 1241 555 l 1310 555 l 1310 486 l 1241 486 l 1241 555 m 1310 555 l 1379 555 l 1389 486 l 1310 486 l 1310 555 m 1241 486 l 1310 486 l 1310 417 l 1241 417 l 1241 486 m 1172 417 l 1241 417 l 1241 348 l 1172 348 l 1172 417 m 1448 1111 l 1517 1111 l 1527 1042 l 1448 1042 l 1448 1111 m 206 277 l 275 277 l 275 208 l 208 208 l 206 277 m 275 277 l 344 277 l 344 208 l 275 208 l 275 277 m 344 277 l 413 277 l 413 208 l 344 208 l 344 277 m 137 138 l 206 139 l 208 69 l 137 69 l 137 138 m 137 208 l 206 208 l 208 138 l 137 139 l 137 208 m 413 277 l 482 277 l 482 208 l 413 208 l 413 277 m 482 208 l 551 208 l 551 138 l 482 139 l 482 208 m 551 208 l 620 208 l 620 138 l 551 139 l 551 208 m 1805 -417 l 1875 -417 l 1875 -486 l 1805 -486 l 1805 -417 m 1655 -417 l 1724 -417 l 1724 -486 l 1655 -486 l 1655 -417 m 1736 -417 l 1805 -417 l 1805 -486 l 1736 -486 l 1736 -417 m 1103 -210 l 1172 -210 l 1172 -279 l 1103 -279 l 1103 -210 m 1034 -210 l 1103 -210 l 1103 -279 l 1034 -279 l 1034 -210 m 965 -141 l 1034 -139 l 1034 -210 l 965 -210 l 965 -141 m 1172 -279 l 1241 -279 l 1241 -348 l 1172 -348 l 1172 -279 m 1241 -348 l 1310 -348 l 1310 -417 l 1241 -417 l 1241 -348 m 1944 -348 l 2014 -348 l 2014 -417 l 1944 -417 l 1944 -348 m 2014 -279 l 2083 -279 l 2083 -348 l 2014 -348 l 2014 -279 m 1517 -417 l 1586 -417 l 1586 -486 l 1527 -486 l 1517 -417 m 1448 -417 l 1517 -417 l 1527 -486 l 1448 -486 l 1448 -417 m 1379 -417 l 1448 -417 l 1448 -486 l 1389 -486 l 1379 -417 m 1586 -417 l 1655 -417 l 1655 -486 l 1586 -486 l 1586 -417 m 896 -70 l 965 -70 l 965 -141 l 896 -139 l 896 -70 m 827 0 l 896 -1 l 896 -70 l 833 -70 l 827 0 m 1103 1667 l 1172 1667 l 1172 1598 l 1103 1598 l 1103 1667 m 1241 1667 l 1310 1667 l 1310 1598 l 1241 1598 l 1241 1667 m 1172 1667 l 1241 1667 l 1241 1598 l 1172 1598 l 1172 1667 m 1172 -210 l 1241 -210 l 1241 -279 l 1172 -279 l 1172 -210 m 1241 -141 l 1310 -139 l 1310 -210 l 1241 -210 l 1241 -141 m 1310 -348 l 1379 -348 l 1389 -417 l 1310 -417 l 1310 -348 m -347 624 l -277 624 l -277 555 l -347 555 l -347 624 m 1517 208 l 1586 208 l 1586 138 l 1527 139 l 1517 208 m 1448 69 l 1517 69 l 1527 0 l 1448 -1 l 1448 69 m 1310 -70 l 1379 -70 l 1389 -141 l 1310 -139 l 1310 -70 m 1379 0 l 1448 -1 l 1448 -70 l 1389 -70 l 1379 0 m 1517 277 l 1586 277 l 1586 208 l 1527 208 l 1517 277 m 1586 348 l 1655 348 l 1655 277 l 1586 277 l 1586 348 m 1586 417 l 1655 417 l 1655 348 l 1586 348 l 1586 417 m 1586 486 l 1655 486 l 1655 417 l 1586 417 l 1586 486 m 1586 555 l 1655 555 l 1655 486 l 1586 486 l 1586 555 m 1586 624 l 1655 624 l 1655 555 l 1586 555 l 1586 624 m 1517 696 l 1586 696 l 1586 624 l 1527 624 l 1517 696 m 1517 765 l 1586 765 l 1586 696 l 1527 696 l 1517 765 m 1448 834 l 1517 834 l 1527 765 l 1448 765 l 1448 834 m -625 696 l -555 696 l -555 624 l -625 624 l -625 696 m -555 696 l -486 696 l -486 624 l -555 624 l -555 696 m -486 624 l -416 624 l -416 555 l -486 555 l -486 624 m -208 696 l -139 696 l -139 624 l -208 624 l -208 696 m -139 765 l -70 765 l -70 696 l -139 696 l -139 765 m -70 765 l -1 765 l -1 696 l -70 696 l -70 765 m -1 765 l 68 765 l 68 696 l -1 696 l -1 765 m -694 765 l -625 765 l -625 696 l -694 696 l -694 765 m 68 834 l 137 834 l 137 765 l 68 765 l 68 834 m 137 834 l 206 834 l 208 765 l 137 765 l 137 834 m 206 834 l 275 834 l 275 765 l 208 765 l 206 834 m 275 903 l 344 903 l 344 834 l 275 834 l 275 903 m 344 903 l 413 903 l 413 834 l 344 834 l 344 903 m 413 903 l 482 903 l 482 834 l 413 834 l 413 903 m 482 973 l 551 972 l 551 903 l 482 903 l 482 973 m 551 973 l 620 972 l 620 903 l 551 903 l 551 973 m 620 973 l 689 972 l 694 903 l 620 903 l 620 973 m 1172 973 l 1241 972 l 1241 903 l 1172 903 l 1172 973 m 1241 973 l 1310 972 l 1310 903 l 1241 903 l 1241 973 m 1103 1042 l 1172 1042 l 1172 973 l 1103 972 l 1103 1042 m 1379 903 l 1448 903 l 1448 834 l 1389 834 l 1379 903 m 1034 1042 l 1103 1042 l 1103 973 l 1034 972 l 1034 1042 m 896 1042 l 965 1042 l 965 973 l 896 972 l 896 1042 m 965 1042 l 1034 1042 l 1034 973 l 965 972 l 965 1042 m 827 1042 l 896 1042 l 896 973 l 833 972 l 827 1042 m 689 1042 l 758 1042 l 758 973 l 694 972 l 689 1042 m 1310 973 l 1379 972 l 1389 903 l 1310 903 l 1310 973 m 1448 138 l 1517 139 l 1527 69 l 1448 69 l 1448 138 m 758 1042 l 827 1042 l 833 973 l 758 972 l 758 1042 m -416 624 l -347 624 l -347 555 l -416 555 l -416 624 m -277 624 l -208 624 l -208 555 l -277 555 l -277 624 m -70 834 l -1 834 l -1 765 l -70 765 l -70 834 m -139 696 l -70 696 l -70 624 l -139 624 l -139 696 m 1448 903 l 1517 903 l 1527 834 l 1448 834 l 1448 903 m 1379 834 l 1448 834 l 1448 765 l 1389 765 l 1379 834 m 1448 765 l 1517 765 l 1527 696 l 1448 696 l 1448 765 m 1875 -348 l 1944 -348 l 1944 -417 l 1875 -417 l 1875 -348 "},"M":{"x_min":-694.5,"x_max":2916.90625,"ha":2292,"o":"m 1172 973 l 1241 973 l 1241 904 l 1172 903 l 1172 973 m 1103 696 l 1172 694 l 1172 625 l 1103 625 l 1103 696 m 965 555 l 1034 555 l 1034 486 l 965 486 l 965 555 m 206 1250 l 275 1250 l 275 1181 l 206 1180 l 206 1250 m 137 1181 l 208 1181 l 206 1111 l 137 1111 l 137 1181 m 689 139 l 758 138 l 758 69 l 689 69 l 689 139 m 620 69 l 694 69 l 689 0 l 620 -2 l 620 69 m 827 348 l 896 348 l 896 277 l 827 277 l 827 348 m 896 348 l 965 348 l 965 277 l 896 277 l 896 348 m 758 208 l 827 208 l 827 138 l 758 139 l 758 208 m 689 69 l 758 69 l 758 0 l 694 -2 l 689 69 m 758 138 l 827 139 l 827 69 l 758 69 l 758 138 m 827 208 l 896 208 l 896 138 l 827 139 l 827 208 m 1172 1460 l 1241 1458 l 1241 1389 l 1172 1389 l 1172 1460 m 965 417 l 1034 417 l 1034 348 l 965 348 l 965 417 m 827 277 l 896 277 l 896 208 l 827 208 l 827 277 m 896 277 l 965 277 l 965 208 l 896 208 l 896 277 m 827 417 l 896 417 l 896 348 l 827 348 l 827 417 m 896 417 l 965 417 l 965 348 l 896 348 l 896 417 m 68 1042 l 137 1042 l 137 973 l 68 973 l 68 1042 m 1172 1529 l 1241 1529 l 1241 1460 l 1172 1458 l 1172 1529 m 68 69 l 137 69 l 137 0 l 68 -2 l 68 69 m 137 0 l 206 -2 l 208 -71 l 137 -71 l 137 0 m 206 0 l 275 -2 l 275 -71 l 208 -71 l 206 0 m 275 0 l 344 -2 l 344 -71 l 275 -71 l 275 0 m 344 0 l 413 -2 l 413 -71 l 344 -71 l 344 0 m 413 0 l 482 -2 l 482 -71 l 413 -71 l 413 0 m 482 69 l 551 69 l 551 0 l 482 -2 l 482 69 m 551 69 l 620 69 l 620 0 l 555 -2 l 551 69 m 482 0 l 551 -2 l 555 -71 l 482 -71 l 482 0 m 551 0 l 620 -2 l 620 -71 l 555 -71 l 551 0 m 620 138 l 689 139 l 694 69 l 620 69 l 620 138 m 689 208 l 758 208 l 758 138 l 694 138 l 689 208 m 758 348 l 827 348 l 827 277 l 758 277 l 758 348 m 758 277 l 827 277 l 827 208 l 758 208 l 758 277 m 896 486 l 965 486 l 965 417 l 896 417 l 896 486 m 965 486 l 1034 486 l 1034 417 l 965 417 l 965 486 m 1034 555 l 1103 555 l 1103 486 l 1034 486 l 1034 555 m 1034 696 l 1103 694 l 1103 625 l 1034 624 l 1034 696 m 1172 765 l 1241 765 l 1241 696 l 1172 694 l 1172 765 m 1172 834 l 1241 834 l 1241 765 l 1172 765 l 1172 834 m 1172 904 l 1241 903 l 1241 834 l 1172 834 l 1172 904 m 1103 765 l 1172 765 l 1172 696 l 1103 694 l 1103 765 m 344 69 l 413 69 l 413 0 l 344 -2 l 344 69 m 413 69 l 482 69 l 482 0 l 413 -2 l 413 69 m 482 138 l 551 139 l 555 69 l 482 69 l 482 138 m 551 138 l 620 139 l 620 69 l 555 69 l 551 138 m 620 208 l 689 208 l 694 138 l 620 139 l 620 208 m 689 277 l 758 277 l 758 208 l 694 208 l 689 277 m -139 696 l -70 694 l -70 625 l -139 624 l -139 696 m 137 -349 l 206 -349 l 208 -418 l 137 -418 l 137 -349 m 275 -418 l 344 -418 l 344 -487 l 275 -487 l 275 -418 m 68 1111 l 137 1111 l 137 1042 l 68 1042 l 68 1111 m 206 -418 l 275 -418 l 275 -487 l 208 -487 l 206 -418 m 689 1598 l 758 1598 l 758 1529 l 694 1529 l 689 1598 m 896 1667 l 965 1667 l 965 1598 l 896 1598 l 896 1667 m 827 1667 l 896 1667 l 896 1598 l 827 1598 l 827 1667 m 275 1319 l 344 1320 l 344 1250 l 275 1250 l 275 1319 m 551 1529 l 620 1529 l 620 1460 l 555 1458 l 551 1529 m 620 1598 l 689 1598 l 694 1529 l 620 1529 l 620 1598 m 344 1389 l 413 1389 l 413 1320 l 344 1319 l 344 1389 m 758 1598 l 827 1598 l 827 1529 l 758 1529 l 758 1598 m -1 -278 l 68 -280 l 68 -349 l -1 -349 l -1 -278 m 68 -349 l 137 -349 l 137 -418 l 68 -418 l 68 -349 m -70 -209 l -1 -209 l -1 -280 l -70 -278 l -70 -209 m 482 1529 l 551 1529 l 555 1460 l 482 1458 l 482 1529 m 1034 625 l 1103 624 l 1103 555 l 1034 555 l 1034 625 m 1103 625 l 1172 624 l 1172 555 l 1103 555 l 1103 625 m 1034 486 l 1103 486 l 1103 417 l 1034 417 l 1034 486 m 965 348 l 1034 348 l 1034 277 l 965 277 l 965 348 m 1103 1598 l 1172 1598 l 1172 1529 l 1103 1529 l 1103 1598 m 1034 1598 l 1103 1598 l 1103 1529 l 1034 1529 l 1034 1598 m 965 1667 l 1034 1667 l 1034 1598 l 965 1598 l 965 1667 m 1241 1389 l 1310 1389 l 1310 1320 l 1241 1319 l 1241 1389 m 1241 1320 l 1310 1319 l 1310 1250 l 1241 1250 l 1241 1320 m 413 1460 l 482 1458 l 482 1389 l 413 1389 l 413 1460 m -208 486 l -139 486 l -139 417 l -208 417 l -208 486 m -139 555 l -70 555 l -70 486 l -139 486 l -139 555 m -208 348 l -139 348 l -139 277 l -208 277 l -208 348 m -208 417 l -139 417 l -139 348 l -208 348 l -208 417 m -208 277 l -139 277 l -139 208 l -208 208 l -208 277 m -208 138 l -139 139 l -139 69 l -208 69 l -208 138 m -208 208 l -139 208 l -139 138 l -208 139 l -208 208 m -208 69 l -139 69 l -139 0 l -208 -2 l -208 69 m -139 -71 l -70 -71 l -70 -140 l -139 -140 l -139 -71 m -139 0 l -70 -2 l -70 -71 l -139 -71 l -139 0 m -70 -140 l -1 -140 l -1 -209 l -70 -208 l -70 -140 m 344 -418 l 413 -418 l 413 -487 l 344 -487 l 344 -418 m 413 -487 l 482 -487 l 482 -556 l 413 -556 l 413 -487 m 482 -487 l 551 -487 l 555 -556 l 482 -556 l 482 -487 m 551 -487 l 620 -487 l 620 -556 l 555 -556 l 551 -487 m 620 -487 l 689 -487 l 694 -556 l 620 -556 l 620 -487 m 689 -487 l 758 -487 l 758 -556 l 694 -556 l 689 -487 m 758 -487 l 827 -487 l 827 -556 l 758 -556 l 758 -487 m 827 -487 l 896 -487 l 896 -556 l 827 -556 l 827 -487 m 896 -487 l 965 -487 l 965 -556 l 896 -556 l 896 -487 m 965 -487 l 1034 -487 l 1034 -556 l 965 -556 l 965 -487 m 1034 -487 l 1103 -487 l 1103 -556 l 1034 -556 l 1034 -487 m 1103 -487 l 1172 -487 l 1172 -556 l 1103 -556 l 1103 -487 m 1172 -418 l 1241 -418 l 1241 -487 l 1172 -487 l 1172 -418 m 1241 -418 l 1310 -418 l 1310 -487 l 1241 -487 l 1241 -418 m 1931 138 l 2000 139 l 2000 69 l 1931 69 l 1931 138 m 2000 208 l 2083 208 l 2069 138 l 2000 139 l 2000 208 m 1931 69 l 2000 69 l 2000 0 l 1931 -2 l 1931 69 m 1931 0 l 2000 -2 l 2000 -71 l 1931 -71 l 1931 0 m 2000 277 l 2069 277 l 2083 208 l 2000 208 l 2000 277 m 2000 348 l 2069 348 l 2083 277 l 2000 277 l 2000 348 m 2000 417 l 2069 417 l 2083 348 l 2000 348 l 2000 417 m 2000 486 l 2069 486 l 2083 417 l 2000 417 l 2000 486 m 2000 555 l 2069 555 l 2083 486 l 2000 486 l 2000 555 m -625 696 l -555 694 l -555 625 l -625 624 l -625 696 m -555 696 l -486 694 l -486 625 l -555 624 l -555 696 m -486 625 l -416 624 l -416 555 l -486 555 l -486 625 m -416 625 l -347 624 l -347 555 l -416 555 l -416 625 m -347 625 l -277 624 l -277 555 l -347 555 l -347 625 m -277 625 l -208 624 l -208 555 l -277 555 l -277 625 m -208 625 l -139 624 l -139 555 l -208 555 l -208 625 m -139 625 l -70 624 l -70 555 l -139 555 l -139 625 m -70 625 l -1 624 l -1 555 l -70 555 l -70 625 m -1 625 l 68 624 l 68 555 l -1 555 l -1 625 m 68 625 l 137 624 l 137 555 l 68 555 l 68 625 m 137 696 l 206 694 l 208 625 l 137 624 l 137 696 m 206 696 l 275 694 l 275 625 l 208 624 l 206 696 m 275 696 l 344 694 l 344 625 l 275 624 l 275 696 m -694 765 l -625 765 l -625 696 l -694 694 l -694 765 m 344 765 l 413 765 l 413 696 l 344 694 l 344 765 m 413 765 l 482 765 l 482 696 l 413 694 l 413 765 m 482 765 l 551 765 l 555 696 l 482 694 l 482 765 m 551 834 l 620 834 l 620 765 l 555 765 l 551 834 m 620 834 l 689 834 l 694 765 l 620 765 l 620 834 m 689 834 l 758 834 l 758 765 l 694 765 l 689 834 m 758 904 l 827 903 l 827 834 l 758 834 l 758 904 m 827 904 l 896 903 l 896 834 l 827 834 l 827 904 m 896 904 l 965 903 l 965 834 l 896 834 l 896 904 m 965 904 l 1034 903 l 1034 834 l 965 834 l 965 904 m 1034 973 l 1103 973 l 1103 904 l 1034 903 l 1034 973 m 1103 973 l 1172 973 l 1172 904 l 1103 903 l 1103 973 m 1241 973 l 1310 973 l 1310 904 l 1241 903 l 1241 973 m 1517 904 l 1586 903 l 1586 834 l 1517 834 l 1517 904 m 1586 904 l 1655 903 l 1655 834 l 1586 834 l 1586 904 m 1448 973 l 1517 973 l 1517 904 l 1448 903 l 1448 973 m -70 765 l -1 765 l -1 696 l -70 694 l -70 765 m 1241 1042 l 1310 1042 l 1310 973 l 1241 973 l 1241 1042 m -70 834 l -1 834 l -1 765 l -70 765 l -70 834 m 1241 1111 l 1310 1111 l 1310 1042 l 1241 1042 l 1241 1111 m -1 904 l 68 903 l 68 834 l -1 834 l -1 904 m 1241 1181 l 1310 1180 l 1310 1111 l 1241 1111 l 1241 1181 m -1 973 l 68 973 l 68 904 l -1 903 l -1 973 m 1241 1250 l 1310 1250 l 1310 1181 l 1241 1180 l 1241 1250 m 1241 904 l 1310 903 l 1310 834 l 1241 834 l 1241 904 m 1448 1111 l 1517 1111 l 1517 1042 l 1448 1042 l 1448 1111 m 1448 1181 l 1517 1180 l 1517 1111 l 1448 1111 l 1448 1181 m 1586 1320 l 1655 1319 l 1655 1250 l 1586 1250 l 1586 1320 m 1517 1250 l 1586 1250 l 1586 1181 l 1517 1180 l 1517 1250 m 1724 1389 l 1793 1389 l 1793 1320 l 1724 1319 l 1724 1389 m 1655 1389 l 1724 1389 l 1724 1320 l 1655 1319 l 1655 1389 m 1793 1320 l 1862 1319 l 1875 1250 l 1805 1250 l 1793 1320 m 1724 1181 l 1793 1180 l 1805 1111 l 1724 1111 l 1724 1181 m 1793 1250 l 1862 1250 l 1862 1181 l 1805 1180 l 1793 1250 m 1724 1111 l 1793 1111 l 1805 1042 l 1724 1042 l 1724 1111 m 1655 1042 l 1724 1042 l 1724 973 l 1655 973 l 1655 1042 m 1655 973 l 1724 973 l 1724 904 l 1655 903 l 1655 973 m 1586 834 l 1655 834 l 1655 765 l 1586 765 l 1586 834 m 1586 765 l 1655 765 l 1655 696 l 1586 694 l 1586 765 m 1517 696 l 1586 694 l 1586 625 l 1517 624 l 1517 696 m 1310 348 l 1379 348 l 1379 277 l 1310 277 l 1310 348 m 1310 277 l 1379 277 l 1379 208 l 1310 208 l 1310 277 m 1241 208 l 1310 208 l 1310 138 l 1241 139 l 1241 208 m 1241 138 l 1310 139 l 1310 69 l 1241 69 l 1241 138 m 1172 69 l 1241 69 l 1241 0 l 1172 -2 l 1172 69 m 1448 625 l 1517 624 l 1517 555 l 1448 555 l 1448 625 m 1448 555 l 1517 555 l 1517 486 l 1448 486 l 1448 555 m 1655 904 l 1724 903 l 1724 834 l 1655 834 l 1655 904 m 1724 973 l 1793 973 l 1805 904 l 1724 903 l 1724 973 m 1793 1042 l 1862 1042 l 1875 973 l 1805 973 l 1793 1042 m 1931 1181 l 2000 1180 l 2000 1111 l 1931 1111 l 1931 1181 m 2000 1250 l 2069 1250 l 2083 1181 l 2000 1180 l 2000 1250 m 2069 1250 l 2138 1250 l 2138 1181 l 2083 1180 l 2069 1250 m 2138 1181 l 2207 1180 l 2207 1111 l 2152 1111 l 2138 1181 m 2138 1111 l 2207 1111 l 2207 1042 l 2152 1042 l 2138 1111 m 2138 1042 l 2207 1042 l 2207 973 l 2152 973 l 2138 1042 m 2069 973 l 2138 973 l 2152 904 l 2083 903 l 2069 973 m 1862 1111 l 1931 1111 l 1931 1042 l 1875 1042 l 1862 1111 m 2069 904 l 2152 903 l 2138 834 l 2069 834 l 2069 904 m 2000 834 l 2069 834 l 2083 765 l 2000 765 l 2000 834 m 2000 765 l 2069 765 l 2083 696 l 2000 694 l 2000 765 m 1793 348 l 1862 348 l 1875 277 l 1805 277 l 1793 348 m 1793 417 l 1862 417 l 1875 348 l 1805 348 l 1793 417 m 1724 -71 l 1793 -71 l 1805 -140 l 1724 -140 l 1724 -71 m 2569 -418 l 2639 -418 l 2639 -487 l 2569 -487 l 2569 -418 m 1793 -140 l 1862 -140 l 1875 -209 l 1805 -208 l 1793 -140 m 2500 -487 l 2569 -487 l 2569 -556 l 2500 -556 l 2500 -487 m 2430 -487 l 2500 -487 l 2500 -556 l 2430 -556 l 2430 -487 m 2291 -487 l 2361 -487 l 2361 -556 l 2291 -556 l 2291 -487 m 2361 -487 l 2430 -487 l 2430 -556 l 2361 -556 l 2361 -487 m 2000 -418 l 2069 -418 l 2083 -487 l 2000 -487 l 2000 -418 m 1724 138 l 1793 139 l 1805 69 l 1724 69 l 1724 138 m 1724 208 l 1793 208 l 1805 138 l 1724 139 l 1724 208 m 2778 -349 l 2847 -349 l 2847 -418 l 2778 -418 l 2778 -349 m 2708 -418 l 2778 -418 l 2778 -487 l 2708 -487 l 2708 -418 m 1724 69 l 1793 69 l 1805 0 l 1724 -2 l 1724 69 m 1724 0 l 1793 -2 l 1805 -71 l 1724 -71 l 1724 0 m 2639 -418 l 2708 -418 l 2708 -487 l 2639 -487 l 2639 -418 m 2847 -280 l 2916 -278 l 2916 -349 l 2847 -349 l 2847 -280 m 1862 486 l 1931 486 l 1931 417 l 1875 417 l 1862 486 m 1862 555 l 1931 555 l 1931 486 l 1875 486 l 1862 555 m 1931 625 l 2000 624 l 2000 555 l 1931 555 l 1931 625 m 1931 696 l 2000 694 l 2000 625 l 1931 624 l 1931 696 m 1793 277 l 1862 277 l 1875 208 l 1805 208 l 1793 277 m 1862 -71 l 1931 -71 l 1931 -140 l 1875 -140 l 1862 -71 m 1724 -209 l 1793 -208 l 1805 -280 l 1724 -278 l 1724 -209 m 1448 -349 l 1517 -349 l 1517 -418 l 1448 -418 l 1448 -349 m 1517 -349 l 1586 -349 l 1586 -418 l 1517 -418 l 1517 -349 m 1586 -280 l 1655 -278 l 1655 -349 l 1586 -349 l 1586 -280 m 1655 -280 l 1724 -278 l 1724 -349 l 1655 -349 l 1655 -280 m 1862 765 l 1931 765 l 1931 696 l 1875 694 l 1862 765 m 1724 834 l 1793 834 l 1805 765 l 1724 765 l 1724 834 m 1793 765 l 1862 765 l 1875 696 l 1805 694 l 1793 765 m 2069 -418 l 2138 -418 l 2152 -487 l 2083 -487 l 2069 -418 m 1379 -418 l 1448 -418 l 1448 -487 l 1379 -487 l 1379 -418 m 1379 972 l 1448 904 l 1379 903 l 1379 972 m 1379 1042 l 1448 1042 l 1448 973 l 1379 973 l 1379 1042 m 1379 486 l 1448 486 l 1448 417 l 1379 417 l 1379 486 m 1379 417 l 1448 417 l 1448 348 l 1379 348 l 1379 417 m 1310 -418 l 1379 -418 l 1379 -487 l 1310 -487 l 1310 -418 m 1310 972 l 1379 904 l 1310 903 l 1310 972 m 2207 -487 l 2276 -487 l 2276 -556 l 2207 -556 l 2207 -487 m 2138 -418 l 2207 -418 l 2207 -487 l 2152 -487 l 2138 -418 m 1931 -349 l 2000 -349 l 2000 -418 l 1931 -418 l 1931 -349 m 1862 -280 l 1931 -278 l 1931 -349 l 1875 -349 l 1862 -280 m 1793 -209 l 1862 -208 l 1875 -280 l 1805 -278 l 1793 -209 "},"C":{"x_min":-416,"x_max":1792,"ha":1458,"o":"m -2 765 l -71 765 l -71 834 l -2 834 l -2 765 m 412 486 l 481 486 l 481 417 l 412 417 l 412 486 m 481 555 l 550 555 l 550 486 l 481 486 l 481 555 m 1309 -416 l 1378 -418 l 1378 -487 l 1309 -487 l 1309 -416 m 1240 -418 l 1309 -416 l 1309 -487 l 1240 -487 l 1240 -418 m 964 -487 l 1033 -487 l 1033 -556 l 964 -556 l 964 -487 m 1171 -487 l 1250 -487 l 1240 -556 l 1171 -556 l 1171 -487 m 1033 -487 l 1102 -487 l 1102 -556 l 1033 -556 l 1033 -487 m 1102 -487 l 1171 -487 l 1171 -556 l 1102 -556 l 1102 -487 m -69 833 l -140 834 l -140 903 l -71 903 l -69 833 m -140 834 l -209 833 l -209 903 l -140 903 l -140 834 m -278 973 l -347 973 l -347 1043 l -278 1042 l -278 973 m 826 1043 l 895 1042 l 895 973 l 826 972 l 826 1043 m 481 624 l 550 624 l 555 555 l 481 555 l 481 624 m 481 696 l 550 696 l 555 624 l 481 624 l 481 696 m 688 973 l 757 972 l 757 903 l 688 903 l 688 973 m 757 1043 l 826 1042 l 833 973 l 757 972 l 757 1043 m 550 624 l 619 624 l 619 555 l 550 555 l 550 624 m 550 696 l 619 696 l 625 624 l 555 624 l 550 696 m 757 973 l 826 972 l 833 903 l 757 903 l 757 973 m 826 973 l 895 972 l 895 903 l 833 903 l 826 973 m 412 555 l 481 555 l 481 486 l 412 486 l 412 555 m 412 624 l 481 624 l 481 555 l 412 555 l 412 624 m 688 1043 l 757 1042 l 757 973 l 688 972 l 688 1043 m 895 1043 l 964 1042 l 964 973 l 895 972 l 895 1043 m 343 486 l 412 486 l 412 417 l 343 417 l 343 486 m 412 696 l 481 696 l 481 624 l 412 624 l 412 696 m 619 973 l 688 972 l 688 903 l 625 903 l 619 973 m 343 69 l 412 69 l 412 0 l 343 0 l 343 69 m 343 696 l 274 696 l 274 765 l 343 765 l 343 696 m 1447 -347 l 1516 -347 l 1516 -418 l 1447 -416 l 1447 -347 m 1378 -418 l 1447 -416 l 1458 -487 l 1378 -487 l 1378 -418 m 1171 765 l 1102 765 l 1102 834 l 1171 833 l 1171 765 m 1102 765 l 1033 765 l 1033 834 l 1102 833 l 1102 765 m 1033 765 l 964 765 l 964 834 l 1033 833 l 1033 765 m 67 765 l -2 765 l -2 834 l 67 833 l 67 765 m 481 765 l 550 765 l 555 696 l 481 696 l 481 765 m 550 765 l 619 765 l 625 696 l 555 696 l 550 765 m 619 765 l 688 765 l 688 696 l 625 696 l 619 765 m 550 834 l 619 833 l 625 765 l 555 765 l 550 834 m 619 834 l 688 833 l 688 765 l 625 765 l 619 834 m 688 834 l 757 833 l 757 765 l 688 765 l 688 834 m 895 696 l 826 696 l 833 765 l 895 765 l 895 696 m 964 696 l 895 696 l 895 765 l 964 765 l 964 696 m 757 696 l 688 696 l 688 765 l 757 765 l 757 696 m 826 696 l 757 696 l 757 765 l 833 765 l 826 696 m 619 696 l 688 696 l 688 624 l 619 624 l 619 696 m -209 903 l -278 903 l -278 973 l -209 972 l -209 903 m 412 -278 l 481 -278 l 481 -347 l 412 -347 l 412 -278 m 550 -418 l 619 -416 l 625 -487 l 555 -487 l 550 -418 m 619 -418 l 688 -416 l 688 -487 l 625 -487 l 619 -418 m 826 -487 l 895 -487 l 895 -556 l 833 -556 l 826 -487 m 895 -487 l 964 -487 l 964 -556 l 895 -556 l 895 -487 m 757 -487 l 826 -487 l 833 -556 l 757 -556 l 757 -487 m 688 -487 l 757 -487 l 757 -556 l 688 -556 l 688 -487 m 274 69 l 343 69 l 343 0 l 274 0 l 274 69 m 343 -209 l 412 -209 l 412 -278 l 343 -278 l 343 -209 m 343 0 l 412 0 l 412 -70 l 343 -70 l 343 0 m 343 -70 l 412 -70 l 412 -139 l 343 -139 l 343 -70 m 274 0 l 343 0 l 343 -70 l 274 -70 l 274 0 m 274 -70 l 343 -70 l 343 -139 l 274 -139 l 274 -70 m 1378 903 l 1309 903 l 1309 973 l 1378 972 l 1378 903 m 274 348 l 343 348 l 343 279 l 274 277 l 274 348 m 343 348 l 412 348 l 412 277 l 343 279 l 343 348 m 1240 834 l 1171 833 l 1171 903 l 1250 903 l 1240 834 m 1309 834 l 1240 833 l 1250 903 l 1309 903 l 1309 834 m 619 903 l 688 903 l 688 834 l 625 833 l 619 903 m 688 903 l 757 903 l 757 834 l 688 833 l 688 903 m 757 903 l 826 903 l 833 834 l 757 833 l 757 903 m 550 903 l 619 903 l 625 834 l 555 833 l 550 903 m 481 -347 l 550 -347 l 555 -418 l 481 -416 l 481 -347 m 757 1112 l 826 1112 l 833 1043 l 757 1042 l 757 1112 m 1171 1389 l 1240 1389 l 1250 1320 l 1171 1320 l 1171 1389 m 1033 1320 l 1102 1319 l 1102 1250 l 1033 1250 l 1033 1320 m 1447 1389 l 1516 1389 l 1516 1320 l 1458 1319 l 1447 1389 m 1033 1250 l 1102 1250 l 1102 1181 l 1033 1181 l 1033 1250 m 1240 1389 l 1309 1389 l 1309 1320 l 1250 1319 l 1240 1389 m 1378 1389 l 1447 1389 l 1458 1320 l 1378 1319 l 1378 1389 m 1309 1389 l 1378 1389 l 1378 1320 l 1309 1319 l 1309 1389 m 826 1181 l 895 1181 l 895 1112 l 833 1112 l 826 1181 m 826 1112 l 895 1112 l 895 1043 l 833 1042 l 826 1112 m 895 1181 l 964 1181 l 964 1112 l 895 1112 l 895 1181 m 895 1112 l 964 1112 l 964 1043 l 895 1042 l 895 1112 m 964 1181 l 1033 1181 l 1033 1112 l 964 1112 l 964 1181 m 964 1112 l 1033 1112 l 1033 1043 l 964 1042 l 964 1112 m 964 1250 l 1033 1250 l 1033 1181 l 964 1181 l 964 1250 m 895 1250 l 964 1250 l 964 1181 l 895 1181 l 895 1250 m 1102 1320 l 1171 1319 l 1171 1250 l 1102 1250 l 1102 1320 m 1171 1320 l 1240 1319 l 1250 1250 l 1171 1250 l 1171 1320 m 1033 1181 l 1102 1181 l 1102 1112 l 1033 1112 l 1033 1181 m 1102 1250 l 1171 1250 l 1171 1181 l 1102 1181 l 1102 1250 m 1240 1320 l 1309 1319 l 1309 1250 l 1250 1250 l 1240 1320 m -278 1460 l -347 1458 l -347 1529 l -278 1529 l -278 1460 m -209 1529 l -278 1529 l -278 1598 l -209 1598 l -209 1529 m -71 1598 l -140 1598 l -140 1667 l -69 1667 l -71 1598 m -2 1598 l -71 1598 l -69 1667 l -2 1667 l -2 1598 m 205 1667 l 136 1667 l 136 1736 l 205 1736 l 205 1667 m 688 1598 l 619 1598 l 625 1667 l 688 1667 l 688 1598 m 757 1529 l 688 1529 l 688 1598 l 757 1598 l 757 1529 m 550 1598 l 481 1598 l 481 1667 l 555 1667 l 550 1598 m 619 1598 l 550 1598 l 555 1667 l 625 1667 l 619 1598 m 136 1667 l 67 1667 l 67 1736 l 136 1736 l 136 1667 m 826 1529 l 757 1529 l 757 1598 l 833 1598 l 826 1529 m 481 1667 l 412 1667 l 412 1736 l 481 1736 l 481 1667 m -278 1043 l -347 1042 l -347 1112 l -278 1112 l -278 1043 m 343 1667 l 274 1667 l 274 1736 l 343 1736 l 343 1667 m 412 1667 l 343 1667 l 343 1736 l 412 1736 l 412 1667 m -347 1181 l -416 1181 l -416 1250 l -347 1250 l -347 1181 m -347 1320 l -416 1319 l -416 1389 l -347 1389 l -347 1320 m -347 1250 l -416 1250 l -416 1320 l -347 1319 l -347 1250 m -347 1112 l -416 1112 l -416 1181 l -347 1181 l -347 1112 m -140 1529 l -209 1529 l -209 1598 l -140 1598 l -140 1529 m 1516 1460 l 1585 1458 l 1585 1389 l 1516 1389 l 1516 1460 m 1447 1460 l 1516 1458 l 1516 1389 l 1458 1389 l 1447 1460 m 1378 1460 l 1447 1458 l 1458 1389 l 1378 1389 l 1378 1460 m 1585 1460 l 1654 1458 l 1654 1389 l 1585 1389 l 1585 1460 m 1447 903 l 1378 903 l 1378 973 l 1458 972 l 1447 903 m 1792 1320 l 1723 1319 l 1723 1389 l 1792 1389 l 1792 1320 m 1792 1250 l 1723 1250 l 1723 1320 l 1792 1319 l 1792 1250 m 1792 1181 l 1723 1181 l 1723 1250 l 1792 1250 l 1792 1181 m 1516 973 l 1447 972 l 1458 1043 l 1516 1042 l 1516 973 m 1585 973 l 1516 972 l 1516 1043 l 1585 1042 l 1585 973 m 1723 1112 l 1654 1112 l 1654 1181 l 1723 1181 l 1723 1112 m 895 1460 l 826 1458 l 833 1529 l 895 1529 l 895 1460 m 964 1460 l 895 1458 l 895 1529 l 964 1529 l 964 1460 m 1033 1389 l 964 1389 l 964 1460 l 1033 1458 l 1033 1389 m 1654 834 l 1585 833 l 1585 903 l 1654 903 l 1654 834 m 1102 1320 l 1033 1319 l 1033 1389 l 1102 1389 l 1102 1320 m 1585 903 l 1516 903 l 1516 973 l 1585 972 l 1585 903 m 1447 1043 l 1378 1042 l 1378 1112 l 1458 1112 l 1447 1043 m 1378 1112 l 1309 1112 l 1309 1181 l 1378 1181 l 1378 1112 m 1309 1181 l 1240 1181 l 1250 1250 l 1309 1250 l 1309 1181 m 1240 1181 l 1171 1181 l 1171 1250 l 1250 1250 l 1240 1181 m 136 765 l 67 765 l 67 834 l 136 833 l 136 765 m 205 696 l 136 696 l 136 765 l 205 765 l 205 696 m 412 417 l 481 417 l 481 348 l 412 348 l 412 417 m 343 417 l 412 417 l 412 348 l 343 348 l 343 417 m 343 555 l 412 555 l 412 486 l 343 486 l 343 555 m 274 417 l 343 417 l 343 348 l 274 348 l 274 417 m 412 348 l 481 348 l 481 277 l 412 279 l 412 348 m 481 486 l 550 486 l 555 417 l 481 417 l 481 486 m 481 834 l 550 833 l 555 765 l 481 765 l 481 834 m 412 555 l 343 555 l 343 624 l 412 624 l 412 555 m 412 696 l 343 696 l 343 765 l 412 765 l 412 696 m 1723 765 l 1654 765 l 1654 834 l 1723 833 l 1723 765 m 481 696 l 412 696 l 412 765 l 481 765 l 481 696 m 1723 1389 l 1654 1389 l 1654 1460 l 1723 1458 l 1723 1389 m 274 696 l 205 696 l 205 765 l 274 765 l 274 696 m 274 1667 l 205 1667 l 205 1736 l 274 1736 l 274 1667 m 412 -209 l 481 -209 l 481 -278 l 412 -278 l 412 -209 m 1516 -347 l 1585 -347 l 1585 -418 l 1516 -416 l 1516 -347 m 67 1667 l -2 1667 l -2 1736 l 67 1736 l 67 1667 m -278 1389 l -347 1389 l -347 1460 l -278 1458 l -278 1389 m 343 -139 l 412 -139 l 412 -209 l 343 -209 l 343 -139 m 1654 1043 l 1585 1042 l 1585 1112 l 1654 1112 l 1654 1043 m 1309 1460 l 1378 1458 l 1378 1389 l 1309 1389 l 1309 1460 m 274 139 l 343 138 l 343 69 l 274 69 l 274 139 m 343 138 l 412 139 l 412 69 l 343 69 l 343 138 m 274 208 l 343 208 l 343 138 l 274 138 l 274 208 m 343 208 l 412 208 l 412 138 l 343 139 l 343 208 m 274 277 l 343 279 l 343 208 l 274 208 l 274 277 m 343 277 l 412 279 l 412 208 l 343 208 l 343 277 m 412 277 l 481 279 l 481 208 l 412 208 l 412 277 "}}}
